<svg width="128" height="265" viewBox="0 0 128 265" fill="none" xmlns="http://www.w3.org/2000/svg">
<g clip-path="url(#clip0_76_750)">
<path d="M14.4543 98.2583C14.4543 98.2583 -2.82814 95.8702 0.314123 92.1466C3.45638 88.423 12.3019 94.5819 12.3019 94.5819C12.3019 94.5819 2.87508 85.6265 5.92307 82.7984C8.97106 79.9704 15.2555 91.9581 15.2555 91.9581C15.2555 91.9581 13.5273 80.7088 17.5337 81.2273C21.5401 81.7458 21.1787 96.1059 18.7435 97.1743C17.3913 97.7928 15.938 98.1602 14.4543 98.2583V98.2583Z" fill="#FDA0A3"/>
<path d="M39.6239 131.927L34.2035 134.551C34.2035 134.551 20.5347 133.279 12.082 123.977C5.24755 116.467 3.53502 103.553 15.7113 96.7498C27.8875 89.9468 37.9899 91.345 43.3946 106.051C48.3122 119.39 44.353 129.618 44.353 129.618L39.6239 131.927Z" fill="#3C8A59"/>
<path d="M17.1254 96.0118C27.9977 91.047 36.9217 93.2623 41.9022 106.79C46.8827 120.317 42.8449 130.357 42.8449 130.357L44.416 129.634C44.416 129.634 48.3752 119.39 43.4576 106.067C38.1943 91.9112 28.6732 90.1044 17.1254 96.0118Z" fill="#0F7F3E"/>
<path d="M13.9045 103.899C14.4387 104.983 14.4387 106.083 13.9045 106.334C13.3704 106.585 12.5062 105.925 11.9878 104.763C11.4693 103.6 11.4536 102.579 11.9878 102.328C12.5219 102.076 13.3075 102.799 13.9045 103.899Z" fill="#9FD8AF"/>
<path d="M11.2808 111.173C11.815 112.273 11.7993 113.357 11.2808 113.624C10.7623 113.891 9.88251 113.2 9.34832 112.053C8.81414 110.906 8.82985 109.869 9.34832 109.602C9.86679 109.335 10.7623 110.089 11.2808 111.173Z" fill="#9FD8AF"/>
<path d="M18.2879 110.215C18.8221 111.314 18.8221 112.398 18.2879 112.666C17.7537 112.933 16.8896 112.241 16.3711 111.094C15.8526 109.948 15.8369 108.911 16.3711 108.643C16.9053 108.376 17.7694 109.131 18.2879 110.215Z" fill="#9FD8AF"/>
<path d="M22.3572 101.998C22.8914 103.097 22.8914 104.181 22.3572 104.449C21.823 104.716 20.9589 104.024 20.4405 102.877C19.922 101.73 19.9063 100.694 20.4405 100.426C20.9746 100.159 21.8388 100.913 22.3572 101.998Z" fill="#9FD8AF"/>
<path d="M26.0965 109.712C26.6307 110.796 26.615 111.896 26.0965 112.147C25.5781 112.398 24.6982 111.739 24.164 110.576C23.6298 109.413 23.6456 108.392 24.164 108.141C24.6825 107.889 25.5623 108.612 26.0965 109.712Z" fill="#9FD8AF"/>
<path d="M27.9189 97.41C28.4374 98.4941 28.4374 99.5939 27.9189 99.8453C27.4004 100.097 26.5363 99.4368 26.0021 98.2741C25.4679 97.1115 25.4836 96.0902 26.0021 95.8388C26.5206 95.5875 27.3847 96.3887 27.9189 97.41Z" fill="#9FD8AF"/>
<path d="M31.8782 104.464C32.4124 105.564 32.3967 106.648 31.8782 106.915C31.3598 107.182 30.4956 106.491 29.9614 105.344C29.4273 104.197 29.443 103.16 29.9614 102.893C30.4799 102.626 31.344 103.38 31.8782 104.464Z" fill="#9FD8AF"/>
<path d="M34.9733 97.9596C35.4917 99.0594 35.4917 100.144 34.9733 100.395C34.4548 100.646 33.5907 99.9864 33.0565 98.8238C32.5223 97.6611 32.538 96.6399 33.0565 96.3885C33.575 96.1371 34.4391 96.9227 34.9733 97.9596Z" fill="#9FD8AF"/>
<path d="M38.9011 104.339C39.4196 105.423 39.4196 106.523 38.9011 106.774C38.3826 107.025 37.5185 106.366 36.9843 105.203C36.4502 104.04 36.4659 103.019 36.9843 102.768C37.5028 102.516 38.3669 103.255 38.9011 104.339Z" fill="#9FD8AF"/>
<path d="M43.2846 119.751C43.803 120.835 43.803 121.935 43.2846 122.187C42.7661 122.438 41.902 121.778 41.3678 120.616C40.8336 119.453 40.8336 118.432 41.3678 118.18C41.902 117.929 42.7504 118.652 43.2846 119.751Z" fill="#9FD8AF"/>
<path d="M13.449 119.579C13.9832 120.679 13.9832 121.763 13.449 122.03C12.9148 122.297 12.0507 121.606 11.5322 120.459C11.0137 119.312 10.998 118.275 11.5322 118.008C12.0664 117.741 12.9305 118.495 13.449 119.579Z" fill="#9FD8AF"/>
<path d="M20.5976 117.426C21.1318 118.526 21.1161 119.61 20.5976 119.877C20.0791 120.144 19.1993 119.453 18.6651 118.306C18.1309 117.159 18.1466 116.122 18.6651 115.855C19.1836 115.588 20.0634 116.342 20.5976 117.426Z" fill="#9FD8AF"/>
<path d="M20.189 126.319C20.7075 127.418 20.7075 128.502 20.189 128.77C19.6705 129.037 18.8064 128.345 18.2722 127.198C17.7381 126.052 17.7538 125.015 18.2722 124.747C18.7907 124.48 19.6391 125.235 20.189 126.319Z" fill="#9FD8AF"/>
<path d="M25.2481 122.14C25.7823 123.224 25.7823 124.324 25.2481 124.575C24.7139 124.826 23.8498 124.151 23.3313 123.004C22.8128 121.857 22.7971 120.82 23.3313 120.569C23.8655 120.317 24.7296 121.04 25.2481 122.14Z" fill="#9FD8AF"/>
<path d="M30.1814 114.865C30.7156 115.949 30.7156 117.049 30.1814 117.3C29.6472 117.552 28.7831 116.892 28.2646 115.729C27.7462 114.567 27.7305 113.545 28.2646 113.294C28.7988 113.043 29.6158 113.781 30.1814 114.865Z" fill="#9FD8AF"/>
<path d="M36.0103 112.996C36.5445 114.08 36.5288 115.179 36.0103 115.431C35.4918 115.682 34.6277 115.022 34.0935 113.86C33.5593 112.697 33.575 111.676 34.0935 111.424C34.612 111.173 35.4761 111.911 36.0103 112.996Z" fill="#9FD8AF"/>
<path d="M32.0353 124.433C32.5695 125.533 32.5695 126.617 32.0353 126.884C31.5012 127.151 30.637 126.46 30.1186 125.313C29.6001 124.166 29.5844 123.129 30.1186 122.862C30.6527 122.595 31.5169 123.349 32.0353 124.433Z" fill="#9FD8AF"/>
<path d="M43.0018 112.823C43.536 113.907 43.536 115.006 43.0018 115.258C42.4676 115.509 41.6035 114.849 41.085 113.687C40.5666 112.524 40.5509 111.503 41.085 111.251C41.6192 111 42.4834 111.723 43.0018 112.823Z" fill="#9FD8AF"/>
<path d="M38.2572 122.438C38.7914 123.522 38.7914 124.622 38.2572 124.873C37.723 125.125 36.8589 124.465 36.3247 123.302C35.7905 122.14 35.8062 121.118 36.3247 120.867C36.8431 120.616 37.723 121.338 38.2572 122.438Z" fill="#9FD8AF"/>
<path d="M37.7071 128.848C38.2413 129.948 38.2413 131.032 37.7071 131.299C37.1729 131.566 36.3088 130.875 35.7903 129.728C35.2718 128.581 35.2561 127.544 35.7903 127.277C36.3245 127.01 37.1886 127.811 37.7071 128.848Z" fill="#9FD8AF"/>
<path d="M28.5946 129.021C29.1288 130.105 29.1131 131.205 28.5946 131.456C28.0761 131.708 27.1963 131.048 26.6621 129.885C26.1279 128.723 26.1436 127.701 26.6621 127.45C27.1806 127.199 28.0447 127.937 28.5946 129.021Z" fill="#9FD8AF"/>
<path d="M41.5091 22.2468C41.5091 22.2468 19.0891 21.0684 22.7655 15.9623C26.442 10.8561 38.4768 17.8005 38.4768 17.8005C38.4768 17.8005 25.4207 7.30535 29.05 3.33039C32.6793 -0.644571 42.0433 14.0926 42.0433 14.0926C42.0433 14.0926 38.5868 -0.188961 43.8029 0.0467082C49.0191 0.282378 50.0875 18.7746 47.1023 20.4714C45.3636 21.4038 43.4672 22.0057 41.5091 22.2468V22.2468Z" fill="#FDA0A3"/>
<path d="M77.5823 62.7509L70.905 66.7259C70.905 66.7259 53.1827 66.5374 41.2892 55.5394C31.6896 46.6311 28.0603 30.1657 42.9703 20.1262C57.8803 10.0867 71.015 10.6994 79.5934 29.0502C87.3705 45.657 83.4112 59.263 83.4112 59.263L77.5823 62.7509Z" fill="#3C8A59"/>
<path d="M44.7143 19.0577C58.1317 11.4848 69.8524 13.3388 77.708 30.1813C85.5637 47.0238 81.5259 60.3941 81.5259 60.3941L83.3798 59.2944C83.3798 59.2944 87.3391 45.6884 79.562 29.0815C71.345 11.5477 58.9016 10.2436 44.7143 19.0577Z" fill="#0F7F3E"/>
<path d="M41.3365 29.5527C42.1378 30.9039 42.2478 32.3022 41.5879 32.695C40.928 33.0877 39.7654 32.3179 38.9642 30.9667C38.1629 29.6156 38.0372 28.2172 38.697 27.8245C39.3569 27.4317 40.6138 28.2173 41.3365 29.5527Z" fill="#9FD8AF"/>
<path d="M38.8541 39.1993C39.6553 40.5348 39.7653 41.9488 39.1211 42.3416C38.477 42.7343 37.2829 41.9488 36.4816 40.6133C35.6804 39.2778 35.5704 37.8638 36.2146 37.471C36.8587 37.0783 38.0528 37.8481 38.8541 39.1993Z" fill="#9FD8AF"/>
<path d="M47.7623 37.1886C48.5636 38.5398 48.6736 39.9381 48.0295 40.3309C47.3853 40.7237 46.1912 39.9538 45.39 38.6026C44.5887 37.2515 44.4787 35.8532 45.1229 35.4604C45.767 35.0676 46.8982 35.8532 47.7623 37.1886Z" fill="#9FD8AF"/>
<path d="M52.0987 26.1749C52.8842 27.5261 53.0099 28.9244 52.35 29.3172C51.6902 29.71 50.5118 28.9402 49.7105 27.589C48.9093 26.2378 48.7993 24.8395 49.4592 24.4467C50.119 24.0539 51.2974 24.8395 52.0987 26.1749Z" fill="#9FD8AF"/>
<path d="M57.7392 35.6802C58.5405 37.0313 58.6662 38.4296 58.0063 38.8224C57.3465 39.2152 56.1681 38.4454 55.3668 37.0942C54.5656 35.743 54.4556 34.3447 55.0997 33.9519C55.7439 33.5592 56.9379 34.329 57.7392 35.6802Z" fill="#9FD8AF"/>
<path d="M58.7288 19.6546C59.5301 21.0058 59.6401 22.4041 58.9959 22.7969C58.3517 23.1897 57.1576 22.4198 56.3564 21.0687C55.5551 19.7175 55.4294 18.3192 56.0893 17.9264C56.7492 17.5336 57.8961 18.3192 58.7288 19.6546Z" fill="#9FD8AF"/>
<path d="M64.6049 28.3116C65.4062 29.6471 65.5161 31.0611 64.8563 31.4539C64.1964 31.8467 63.0181 31.0611 62.2168 29.7257C61.4155 28.3902 61.3055 26.9762 61.9654 26.5834C62.6253 26.1906 63.8036 26.9605 64.6049 28.3116Z" fill="#9FD8AF"/>
<path d="M67.8729 19.6546C68.6741 21.0058 68.7841 22.4041 68.1243 22.7969C67.4644 23.1897 66.286 22.4198 65.4847 21.0687C64.6834 19.7175 64.5735 18.3192 65.2334 17.9264C65.8933 17.5336 67.0716 18.3192 67.8729 19.6546Z" fill="#9FD8AF"/>
<path d="M73.6074 27.3688C74.4087 28.72 74.5344 30.1183 73.8745 30.5111C73.2146 30.9038 72.0362 30.1183 71.235 28.7828C70.4337 27.4473 70.3237 26.0333 70.9836 25.6405C71.6435 25.2478 72.8061 26.0176 73.6074 27.3688Z" fill="#9FD8AF"/>
<path d="M80.9446 46.7093C81.7459 48.0448 81.8558 49.4588 81.1959 49.8516C80.5361 50.2444 79.3577 49.4745 78.5565 48.1233C77.7552 46.7721 77.6452 45.3738 78.3051 44.9811C78.9649 44.5883 80.1433 45.3581 80.9446 46.7093Z" fill="#9FD8AF"/>
<path d="M42.5776 49.773C43.3632 51.1085 43.4889 52.5225 42.829 52.9153C42.1691 53.3081 40.9908 52.5226 40.1895 51.1871C39.3882 49.8516 39.2782 48.4376 39.9381 48.0448C40.598 47.6521 41.7763 48.4219 42.5776 49.773Z" fill="#9FD8AF"/>
<path d="M51.5173 46.2068C52.3186 47.558 52.4442 48.972 51.7843 49.3491C51.1245 49.7262 49.9461 48.972 49.1449 47.6208C48.3436 46.2697 48.2336 44.8714 48.8778 44.4786C49.522 44.0858 50.716 44.8714 51.5173 46.2068Z" fill="#9FD8AF"/>
<path d="M51.9416 57.6916C52.7428 59.0428 52.8686 60.4411 52.2087 60.8339C51.5488 61.2267 50.3705 60.4568 49.5692 59.1056C48.7679 57.7545 48.6579 56.3562 49.3178 55.9634C49.9777 55.5706 51.1403 56.3562 51.9416 57.6916Z" fill="#9FD8AF"/>
<path d="M58.0218 51.7526C58.8231 53.088 58.9488 54.5021 58.2889 54.8948C57.6291 55.2876 56.4507 54.5021 55.6495 53.1666C54.8482 51.8311 54.7382 50.4171 55.3981 50.0243C56.0579 49.6315 57.2363 50.4014 58.0218 51.7526Z" fill="#9FD8AF"/>
<path d="M63.5679 41.855C64.3692 43.2061 64.4792 44.6202 63.835 44.9972C63.1908 45.3743 61.9968 44.6201 61.1955 43.269C60.3942 41.9178 60.2842 40.5195 60.9284 40.1267C61.5726 39.7339 62.7666 40.5195 63.5679 41.855Z" fill="#9FD8AF"/>
<path d="M70.8579 38.8223C71.6434 40.1578 71.7691 41.5718 71.1093 41.9646C70.4494 42.3573 69.271 41.5718 68.4698 40.2364C67.6685 38.9009 67.5585 37.4869 68.2184 37.0941C68.8783 36.7013 70.0566 37.4711 70.8579 38.8223Z" fill="#9FD8AF"/>
<path d="M67.0087 53.9683C67.81 55.3038 67.92 56.7178 67.2758 57.1106C66.6316 57.5034 65.4376 56.7178 64.6363 55.3824C63.835 54.0469 63.725 52.6329 64.3692 52.2401C65.0134 51.8473 66.2074 52.6172 67.0087 53.9683Z" fill="#9FD8AF"/>
<path d="M79.8919 37.8169C80.6932 39.168 80.8031 40.5664 80.1433 40.9591C79.4834 41.3519 78.3207 40.5821 77.5195 39.2309C76.7182 37.8797 76.5925 36.4814 77.2524 36.0886C77.9123 35.6958 79.0278 36.4814 79.8919 37.8169Z" fill="#9FD8AF"/>
<path d="M74.7859 50.716C75.5871 52.0514 75.6971 53.4654 75.0372 53.8582C74.3774 54.251 73.199 53.4811 72.4134 52.13C71.6279 50.7788 71.4865 49.3805 72.1464 48.9877C72.8062 48.5949 73.9846 49.3648 74.7859 50.716Z" fill="#9FD8AF"/>
<path d="M74.7859 59.0269C75.5871 60.3624 75.6971 61.7764 75.0372 62.1692C74.3774 62.562 73.199 61.7764 72.4134 60.4409C71.6279 59.1055 71.4865 57.6758 72.1464 57.2987C72.8062 56.9216 73.9846 57.6758 74.7859 59.0269Z" fill="#9FD8AF"/>
<path d="M63.0809 60.2528C63.8821 61.6039 63.9921 63.0022 63.3322 63.395C62.6724 63.7878 61.5098 63.0179 60.7085 61.6668C59.9072 60.3156 59.7815 58.9173 60.4414 58.5245C61.1012 58.1317 62.2796 58.9016 63.0809 60.2528Z" fill="#9FD8AF"/>
<path d="M74.5187 128.439L65.2019 122.799C65.2019 122.799 53.7327 100.803 59.5458 78.8075C64.2592 61.0694 82.233 45.8137 104.433 57.5972C126.633 69.3807 134.504 86.0975 117.489 108.769C102.045 129.304 82.6257 133.341 82.6257 133.341L74.5187 128.439Z" fill="#3C8A59"/>
<path d="M106.947 59.0588C125.14 70.6694 130.514 86.4122 114.912 107.23C99.4682 127.764 80.049 131.802 80.049 131.802L82.6256 133.373C82.6256 133.373 102.045 129.383 117.489 108.801C133.844 86.9621 127.183 70.8108 106.947 59.0588Z" fill="#0F7F3E"/>
<path d="M84.6055 61.3211C83.7885 62.6722 82.5787 63.4421 81.9188 63.0493C81.259 62.6565 81.4004 61.2268 82.2174 59.9071C83.0343 58.5873 84.2441 57.786 84.904 58.1788C85.5639 58.5716 85.391 59.9699 84.6055 61.3211Z" fill="#9FD8AF"/>
<path d="M90.8898 67.7783C90.0728 69.1295 88.8788 69.8993 88.2189 69.5066C87.559 69.1138 87.6847 67.684 88.5017 66.3643C89.3187 65.0445 90.5285 64.2432 91.1883 64.6517C91.8482 65.0602 91.7382 66.4271 90.8898 67.7783Z" fill="#9FD8AF"/>
<path d="M74.0631 66.7888C73.2461 68.14 72.052 68.9098 71.3922 68.5013C70.7323 68.0928 70.858 66.6945 71.675 65.3591C72.4919 64.0236 73.7017 63.238 74.3616 63.6308C75.0215 64.0236 74.8801 65.4376 74.0631 66.7888Z" fill="#9FD8AF"/>
<path d="M81.196 72.2563C80.379 73.6074 79.185 74.3772 78.5251 73.9845C77.8652 73.5917 77.9909 72.162 78.8079 70.8422C79.6249 69.5225 80.8346 68.7212 81.4945 69.114C82.1544 69.5068 82.013 70.9051 81.196 72.2563Z" fill="#9FD8AF"/>
<path d="M97.0015 60.4568C96.1845 61.808 94.9747 62.5778 94.3148 62.1694C93.6549 61.7609 93.7963 60.3468 94.6133 59.0271C95.4303 57.7073 96.6244 56.9061 97.2843 57.3146C97.9441 57.7231 97.8185 59.1057 97.0015 60.4568Z" fill="#9FD8AF"/>
<path d="M87.2134 79.2634C86.3964 80.6145 85.1867 81.3844 84.5268 80.9759C83.8669 80.5674 84.0083 79.1691 84.8253 77.8336C85.6423 76.4982 86.8521 75.6969 87.4962 76.1054C88.1404 76.5139 88.0304 77.9122 87.2134 79.2634Z" fill="#9FD8AF"/>
<path d="M101.762 67.6842C100.945 69.0354 99.7511 69.8052 99.0912 69.3967C98.4314 68.9882 98.557 67.5742 99.374 66.2544C100.191 64.9347 101.401 64.1334 102.061 64.5419C102.721 64.9504 102.595 66.333 101.762 67.6842Z" fill="#9FD8AF"/>
<path d="M110.246 68.5011C109.429 69.8522 108.235 70.6221 107.575 70.2293C106.916 69.8365 107.041 68.4068 107.858 67.0871C108.675 65.7673 109.885 64.966 110.545 65.3588C111.205 65.7516 111.079 67.1499 110.246 68.5011Z" fill="#9FD8AF"/>
<path d="M99.091 77.8969C98.274 79.2481 97.0799 80.0179 96.4201 79.6251C95.7602 79.2323 95.8859 77.8026 96.7029 76.4828C97.5199 75.1631 98.7297 74.3618 99.3895 74.7546C100.049 75.1474 99.908 76.5457 99.091 77.8969Z" fill="#9FD8AF"/>
<path d="M117.143 75.9638C116.311 77.315 115.117 78.0849 114.457 77.6921C113.797 77.2993 113.923 75.8696 114.755 74.5498C115.588 73.2301 116.766 72.4288 117.426 72.8216C118.086 73.2144 117.96 74.6755 117.143 75.9638Z" fill="#9FD8AF"/>
<path d="M93.2936 87.4487C92.4766 88.7999 91.2826 89.5697 90.6227 89.1612C89.9628 88.7528 90.0885 87.3544 90.9055 86.019C91.7225 84.6835 92.9323 83.8822 93.5921 84.2907C94.252 84.6992 94.1106 86.0975 93.2936 87.4487Z" fill="#9FD8AF"/>
<path d="M108.062 80.6773C107.23 82.0284 106.036 82.7983 105.376 82.4055C104.716 82.0127 104.857 80.583 105.674 79.2633C106.491 77.9435 107.685 77.1422 108.345 77.535C109.005 77.9278 108.879 79.3732 108.062 80.6773Z" fill="#9FD8AF"/>
<path d="M103.129 90.1039C102.312 91.4551 101.102 92.2249 100.442 91.8164C99.7824 91.408 99.9238 89.9939 100.741 88.6742C101.558 87.3544 102.768 86.5532 103.412 86.9617C104.056 87.3702 103.946 88.7213 103.129 90.1039Z" fill="#9FD8AF"/>
<path d="M115.384 87.7787C114.567 89.1299 113.357 89.9154 112.697 89.5069C112.037 89.0984 112.179 87.6844 112.996 86.3647C113.813 85.0449 115.007 84.2437 115.667 84.6521C116.326 85.0606 116.201 86.4275 115.384 87.7787Z" fill="#9FD8AF"/>
<path d="M123.758 87.7317C122.941 89.0828 121.731 89.8527 121.071 89.4442C120.411 89.0357 120.553 87.6217 121.37 86.3019C122.187 84.9822 123.397 84.1809 124.056 84.5894C124.716 84.9979 124.575 86.3805 123.758 87.7317Z" fill="#9FD8AF"/>
<path d="M108.172 97.6612C107.355 99.0124 106.161 99.7823 105.501 99.3895C104.841 98.9967 104.967 97.567 105.784 96.2472C106.601 94.9275 107.811 94.1262 108.471 94.519C109.131 94.9117 109.052 96.3886 108.172 97.6612Z" fill="#9FD8AF"/>
<path d="M119.375 97.6458C118.558 98.997 117.348 99.7669 116.688 99.3584C116.028 98.9499 116.169 97.5516 116.986 96.2161C117.803 94.8807 118.997 94.0794 119.657 94.4879C120.317 94.8964 120.192 96.2946 119.375 97.6458Z" fill="#9FD8AF"/>
<path d="M113.797 106.837C112.964 108.188 111.77 108.958 111.11 108.549C110.45 108.141 110.576 106.742 111.409 105.407C112.241 104.071 113.42 103.27 114.08 103.679C114.74 104.087 114.614 105.485 113.797 106.837Z" fill="#9FD8AF"/>
<path d="M67.8728 74.2989C67.0558 75.65 65.8461 76.4199 65.1862 76.0271C64.5263 75.6343 64.6677 74.2046 65.4847 72.8849C66.3017 71.5651 67.5115 70.7638 68.1713 71.1566C68.8312 71.5494 68.6898 72.9477 67.8728 74.2989Z" fill="#9FD8AF"/>
<path d="M73.6076 80.5832C72.7906 81.9344 71.5809 82.72 70.921 82.3115C70.2611 81.903 70.4025 80.489 71.2195 79.1692C72.0365 77.8495 73.2462 77.0482 73.9061 77.4567C74.566 77.8652 74.346 79.2321 73.6076 80.5832Z" fill="#9FD8AF"/>
<path d="M65.1077 85.8463C64.2907 87.1975 63.0809 87.9674 62.4211 87.5746C61.7612 87.1818 61.9026 85.7521 62.7196 84.4323C63.5366 83.1126 64.7463 82.3113 65.3905 82.7041C66.0346 83.0969 65.9247 84.4952 65.1077 85.8463Z" fill="#9FD8AF"/>
<path d="M80.9446 86.9617C80.1276 88.3128 78.9178 89.0984 78.2737 88.6899C77.6295 88.2814 77.7395 86.8674 78.5564 85.5477C79.3734 84.2279 80.5832 83.4266 81.2431 83.8351C81.9029 84.2436 81.7616 85.5319 80.9446 86.9617Z" fill="#9FD8AF"/>
<path d="M70.905 92.7124C70.088 94.0635 68.8782 94.8334 68.2184 94.4406C67.5585 94.0478 67.6999 92.6181 68.5169 91.2984C69.3339 89.9786 70.5279 89.1773 71.1878 89.5701C71.8477 89.9629 71.722 91.3612 70.905 92.7124Z" fill="#9FD8AF"/>
<path d="M65.2806 101.966C64.4636 103.317 63.2695 104.087 62.6096 103.694C61.9498 103.301 62.0754 101.872 62.8924 100.552C63.7094 99.2322 64.9192 98.4309 65.5791 98.8237C66.239 99.2165 66.1133 100.615 65.2806 101.966Z" fill="#9FD8AF"/>
<path d="M79.0907 95.3202C78.2737 96.6714 77.0797 97.4413 76.4198 97.0485C75.7599 96.6557 75.8856 95.226 76.7026 93.9062C77.5196 92.5865 78.7293 91.7852 79.3892 92.178C80.0491 92.5707 79.892 93.969 79.0907 95.3202Z" fill="#9FD8AF"/>
<path d="M90.5441 95.5718C89.7271 96.9229 88.5174 97.6927 87.8575 97.3C87.1976 96.9072 87.339 95.4774 88.156 94.1577C88.973 92.8379 90.1828 92.0367 90.8426 92.4295C91.5025 92.8223 91.3611 94.2206 90.5441 95.5718Z" fill="#9FD8AF"/>
<path d="M96.7187 100.631C95.886 101.982 94.6919 102.752 94.0321 102.359C93.3722 101.966 93.4979 100.537 94.3306 99.2168C95.1633 97.897 96.3417 97.0958 97.0015 97.4886C97.6614 97.8814 97.5357 99.2797 96.7187 100.631Z" fill="#9FD8AF"/>
<path d="M81.3689 104.386C80.552 105.737 79.3579 106.507 78.698 106.114C78.0381 105.721 78.1639 104.291 78.9808 102.972C79.7978 101.652 81.0076 100.851 81.6675 101.243C82.3273 101.636 82.2016 103.035 81.3689 104.386Z" fill="#9FD8AF"/>
<path d="M101.888 108.172C101.071 109.523 99.8767 110.293 99.2169 109.884C98.557 109.476 98.6827 108.062 99.4997 106.742C100.317 105.422 101.526 104.621 102.186 105.03C102.846 105.438 102.689 106.821 101.888 108.172Z" fill="#9FD8AF"/>
<path d="M87.9675 109.774C87.1505 111.126 85.9407 111.895 85.2965 111.503C84.6524 111.11 84.7624 109.68 85.5793 108.36C86.3963 107.041 87.6061 106.239 88.266 106.632C88.9258 107.025 88.7845 108.423 87.9675 109.774Z" fill="#9FD8AF"/>
<path d="M105.03 116.012C104.213 117.363 103.019 118.133 102.359 117.724C101.699 117.316 101.825 115.902 102.642 114.582C103.459 113.262 104.669 112.461 105.329 112.87C105.988 113.278 105.768 114.661 105.03 116.012Z" fill="#9FD8AF"/>
<path d="M91.6596 117.991C90.8426 119.343 89.6486 120.113 88.9887 119.704C88.3288 119.296 88.4545 117.882 89.2715 116.562C90.0885 115.242 91.2982 114.441 91.9581 114.849C92.618 115.258 92.4609 116.64 91.6596 117.991Z" fill="#9FD8AF"/>
<path d="M73.906 103.851C73.089 105.202 71.8949 105.972 71.235 105.58C70.5752 105.187 70.7009 103.757 71.5179 102.437C72.3349 101.118 73.5446 100.316 74.2045 100.709C74.8644 101.102 74.7387 102.5 73.906 103.851Z" fill="#9FD8AF"/>
<path d="M77.158 116.719C76.3411 118.07 75.1313 118.84 74.4714 118.447C73.8115 118.055 73.9529 116.625 74.7699 115.305C75.5869 113.985 76.781 113.184 77.4408 113.577C78.1007 113.97 77.975 115.368 77.158 116.719Z" fill="#9FD8AF"/>
<path d="M98.0857 120.584C97.2688 121.935 96.0747 122.705 95.4149 122.297C94.755 121.888 94.8807 120.49 95.6976 119.154C96.5146 117.819 97.7244 117.018 98.3843 117.426C99.0441 117.835 98.9184 119.233 98.0857 120.584Z" fill="#9FD8AF"/>
<path d="M68.3598 112.98C67.5428 114.347 66.3487 115.116 65.6889 114.708C65.029 114.299 65.1547 112.885 65.9874 111.566C66.8201 110.246 67.9984 109.445 68.6583 109.853C69.3182 110.262 69.1925 111.628 68.3598 112.98Z" fill="#9FD8AF"/>
<path d="M84.4639 123.491C83.6469 124.842 82.4371 125.612 81.7772 125.219C81.1174 124.826 81.2588 123.396 82.0758 122.077C82.8927 120.757 84.1025 119.956 84.7624 120.348C85.4223 120.741 85.2808 122.139 84.4639 123.491Z" fill="#9FD8AF"/>
<path d="M71.2508 207.577H58.3361C58.3361 207.577 33.198 192.353 25.5623 166.54C19.4035 145.659 28.2176 119.076 58.0062 117.426C87.7948 115.776 106.004 127.795 102.705 161.229C99.7039 191.552 82.5001 207.577 82.5001 207.577H71.2508Z" fill="#3C8A59"/>
<path d="M61.4311 117.332C87.0091 117.897 102.171 130.513 99.1382 161.229C96.1374 191.552 78.9492 207.577 78.9492 207.577H82.5157C82.5157 207.577 99.7195 191.552 102.72 161.229C105.878 129.115 89.1615 116.813 61.4311 117.332Z" fill="#0F7F3E"/>
<path d="M40.1425 133.389C40.1425 135.258 39.404 136.782 38.4928 136.782C37.5815 136.782 36.9217 135.211 36.9217 133.389C36.9217 131.566 37.6601 129.995 38.4928 129.995C39.3255 129.995 40.1425 131.503 40.1425 133.389Z" fill="#9FD8AF"/>
<path d="M50.5433 136.028C50.5433 137.914 49.8048 139.422 48.8936 139.422C47.9823 139.422 47.2282 137.851 47.2282 136.028C47.2282 134.206 47.9823 132.635 48.8936 132.635C49.8048 132.635 50.5433 134.096 50.5433 136.028Z" fill="#9FD8AF"/>
<path d="M32.868 145.392C32.868 147.262 32.1295 148.77 31.2026 148.77C30.2756 148.77 29.5529 147.199 29.5529 145.392C29.5529 143.586 30.2913 141.952 31.1868 141.952C32.0824 141.952 32.868 143.523 32.868 145.392Z" fill="#9FD8AF"/>
<path d="M43.4576 146.539C43.4576 148.425 42.7192 149.933 41.8079 149.933C40.8967 149.933 40.1425 148.362 40.1425 146.539C40.1425 144.717 40.881 143.146 41.8079 143.146C42.7349 143.146 43.4576 144.67 43.4576 146.539Z" fill="#9FD8AF"/>
<path d="M52.193 124.858C52.193 126.727 51.4546 128.251 50.5433 128.251C49.6321 128.251 48.8936 126.68 48.8936 124.858C48.8936 123.035 49.6321 121.464 50.5433 121.464C51.4546 121.464 52.193 122.988 52.193 124.858Z" fill="#9FD8AF"/>
<path d="M53.8584 149.933C53.8584 151.818 53.12 153.326 52.193 153.326C51.266 153.326 50.5433 151.755 50.5433 149.933C50.5433 148.11 51.2817 146.539 52.193 146.539C53.1043 146.539 53.8584 148.063 53.8584 149.933Z" fill="#9FD8AF"/>
<path d="M61.4783 129.241C61.4783 131.127 60.7399 132.635 59.9072 132.635C59.0745 132.635 58.2418 131.064 58.2418 129.241C58.2418 127.419 58.9959 125.848 59.9072 125.848C60.8184 125.848 61.4783 127.372 61.4783 129.241Z" fill="#9FD8AF"/>
<path d="M70.5752 124.858C70.5752 126.727 69.8367 128.251 68.9255 128.251C68.0142 128.251 67.3543 126.68 67.3543 124.858C67.3543 123.035 68.0928 121.464 68.9255 121.464C69.7582 121.464 70.5752 122.988 70.5752 124.858Z" fill="#9FD8AF"/>
<path d="M65.0606 141.245C65.0606 143.114 64.3221 144.638 63.3952 144.638C62.4682 144.638 61.7455 143.067 61.7455 141.245C61.7455 139.422 62.4839 137.851 63.3952 137.851C64.3064 137.851 65.0606 139.375 65.0606 141.245Z" fill="#9FD8AF"/>
<path d="M82.1858 128.251C82.1858 130.121 81.4474 131.645 80.6147 131.645C79.782 131.645 78.965 130.074 78.965 128.251C78.965 126.429 79.7034 124.858 80.6147 124.858C81.5259 124.858 82.1858 126.382 82.1858 128.251Z" fill="#9FD8AF"/>
<path d="M65.0606 154.52C65.0606 156.39 64.3221 157.914 63.3952 157.914C62.4682 157.914 61.7455 156.343 61.7455 154.52C61.7455 152.698 62.4839 151.127 63.3952 151.127C64.3064 151.127 65.0606 152.619 65.0606 154.52Z" fill="#9FD8AF"/>
<path d="M75.8855 138.605C75.8855 140.475 75.1314 141.999 74.2201 141.999C73.3089 141.999 72.5704 140.428 72.5704 138.605C72.5704 136.783 73.3089 135.211 74.2201 135.211C75.1314 135.211 75.8855 136.72 75.8855 138.605Z" fill="#9FD8AF"/>
<path d="M74.9744 154.489C75.8855 154.489 76.6241 152.97 76.6241 151.095C76.6241 149.221 75.8855 147.702 74.9744 147.702C74.0633 147.702 73.3247 149.221 73.3247 151.095C73.3247 152.97 74.0633 154.489 74.9744 154.489Z" fill="#9FD8AF"/>
<path d="M87.6375 141.245C87.6375 143.114 86.899 144.638 85.9878 144.638C85.0765 144.638 84.3381 143.067 84.3381 141.245C84.3381 139.422 85.0765 137.851 85.9878 137.851C86.899 137.851 87.6375 139.375 87.6375 141.245Z" fill="#9FD8AF"/>
<path d="M96.0903 136.028C96.0903 137.914 95.3518 139.422 94.4406 139.422C93.5293 139.422 92.7909 137.851 92.7909 136.028C92.7909 134.206 93.5293 132.635 94.4406 132.635C95.3518 132.635 96.0903 134.096 96.0903 136.028Z" fill="#9FD8AF"/>
<path d="M86.4906 155.651C86.4906 157.521 85.7365 159.045 84.8252 159.045C83.914 159.045 83.1755 157.474 83.1755 155.651C83.1755 153.829 83.914 152.258 84.8252 152.258C85.7365 152.258 86.4906 153.766 86.4906 155.651Z" fill="#9FD8AF"/>
<path d="M97.7557 148.77C97.7557 150.656 97.0015 152.164 96.0903 152.164C95.179 152.164 94.4406 150.593 94.4406 148.77C94.4406 146.948 95.179 145.392 96.0903 145.392C97.0015 145.392 97.7557 146.901 97.7557 148.77Z" fill="#9FD8AF"/>
<path d="M97.7557 161.528C97.7557 163.397 97.0015 164.921 96.0903 164.921C95.179 164.921 94.4406 163.35 94.4406 161.528C94.4406 159.705 95.179 158.134 96.0903 158.134C97.0015 158.134 97.7557 159.642 97.7557 161.528Z" fill="#9FD8AF"/>
<path d="M31.1871 156.799C31.1871 158.684 30.4487 160.192 29.5374 160.192C28.6262 160.192 27.9663 158.621 27.9663 156.799C27.9663 154.976 28.7047 153.405 29.5374 153.405C30.3701 153.405 31.1871 154.929 31.1871 156.799Z" fill="#9FD8AF"/>
<path d="M40.8023 159.705C40.8023 161.575 40.0639 163.099 39.1526 163.099C38.2414 163.099 37.5029 161.528 37.5029 159.705C37.5029 157.883 38.2414 156.312 39.1526 156.312C40.0639 156.312 40.8023 157.836 40.8023 159.705Z" fill="#9FD8AF"/>
<path d="M35.5075 170.232C35.5075 172.101 34.7691 173.625 33.8579 173.625C32.9466 173.625 32.2082 172.054 32.2082 170.232C32.2082 168.409 32.9466 166.838 33.8579 166.838C34.7691 166.838 35.5075 168.346 35.5075 170.232Z" fill="#9FD8AF"/>
<path d="M52.193 161.528C52.193 163.397 51.4546 164.921 50.5433 164.921C49.6321 164.921 48.8936 163.35 48.8936 161.528C48.8936 159.705 49.6321 158.134 50.5433 158.134C51.4546 158.134 52.193 159.642 52.193 161.528Z" fill="#9FD8AF"/>
<path d="M43.9445 177.004C44.8556 177.004 45.5942 175.484 45.5942 173.61C45.5942 171.736 44.8556 170.216 43.9445 170.216C43.0334 170.216 42.2948 171.736 42.2948 173.61C42.2948 175.484 43.0334 177.004 43.9445 177.004Z" fill="#9FD8AF"/>
<path d="M45.6099 186.43C45.6099 188.316 44.8715 189.824 43.9602 189.824C43.049 189.824 42.2948 188.253 42.2948 186.43C42.2948 184.608 43.0333 183.036 43.9602 183.036C44.8872 183.036 45.6099 184.561 45.6099 186.43Z" fill="#9FD8AF"/>
<path d="M55.508 171.206C55.508 173.076 54.7695 174.6 53.8582 174.6C52.947 174.6 52.1928 173.029 52.1928 171.206C52.1928 169.384 52.947 167.812 53.8582 167.812C54.7695 167.812 55.508 169.336 55.508 171.206Z" fill="#9FD8AF"/>
<path d="M67.323 164.418C67.323 166.288 66.5846 167.812 65.6576 167.812C64.7306 167.812 64.0079 166.241 64.0079 164.418C64.0079 162.596 64.7463 161.025 65.6576 161.025C66.5689 161.025 67.323 162.549 67.323 164.418Z" fill="#9FD8AF"/>
<path d="M76.6241 165.739C76.6241 167.624 75.8856 169.132 74.9744 169.132C74.0631 169.132 73.3247 167.561 73.3247 165.739C73.3247 163.916 74.0631 162.345 74.9744 162.345C75.8856 162.345 76.6241 163.948 76.6241 165.739Z" fill="#9FD8AF"/>
<path d="M63.3952 178.983C63.3952 180.868 62.6568 182.377 61.7455 182.377C60.8343 182.377 60.0958 180.806 60.0958 178.983C60.0958 177.161 60.8343 175.589 61.7455 175.589C62.6568 175.589 63.3952 177.113 63.3952 178.983Z" fill="#9FD8AF"/>
<path d="M86.4906 170.232C86.4906 172.101 85.7365 173.625 84.8252 173.625C83.914 173.625 83.1755 172.054 83.1755 170.232C83.1755 168.409 83.914 166.838 84.8252 166.838C85.7365 166.838 86.4906 168.346 86.4906 170.232Z" fill="#9FD8AF"/>
<path d="M73.4031 180.397C73.4031 182.267 72.649 183.791 71.7377 183.791C70.8265 183.791 70.0881 182.22 70.0881 180.397C70.0881 178.574 70.8265 177.003 71.7377 177.003C72.649 177.003 73.4031 178.512 73.4031 180.397Z" fill="#9FD8AF"/>
<path d="M94.4406 176.249C94.4406 178.135 93.7022 179.643 92.7909 179.643C91.8797 179.643 91.1255 178.072 91.1255 176.249C91.1255 174.427 91.864 172.856 92.7909 172.856C93.7179 172.856 94.4406 174.38 94.4406 176.249Z" fill="#9FD8AF"/>
<path d="M82.1858 186.43C82.1858 188.316 81.4474 189.824 80.6147 189.824C79.782 189.824 78.965 188.253 78.965 186.43C78.965 184.608 79.7034 183.036 80.6147 183.036C81.5259 183.036 82.1858 184.561 82.1858 186.43Z" fill="#9FD8AF"/>
<path d="M55.508 183.037C55.508 184.922 54.7695 186.43 53.8582 186.43C52.947 186.43 52.1928 184.859 52.1928 183.037C52.1928 181.214 52.947 179.643 53.8582 179.643C54.7695 179.643 55.508 181.23 55.508 183.037Z" fill="#9FD8AF"/>
<path d="M66.7102 194.082C66.7102 195.951 65.9718 197.475 65.0605 197.475C64.1492 197.475 63.3951 195.904 63.3951 194.082C63.3951 192.259 64.1807 190.657 65.0605 190.657C65.9403 190.657 66.7102 192.228 66.7102 194.082Z" fill="#9FD8AF"/>
<path d="M90.3086 185.11C90.3086 186.98 89.5544 188.504 88.6432 188.504C87.7319 188.504 86.9935 186.933 86.9935 185.11C86.9935 183.288 87.7319 181.717 88.6432 181.717C89.5544 181.717 90.3086 183.241 90.3086 185.11Z" fill="#9FD8AF"/>
<path d="M55.508 195.7C55.508 197.585 54.7695 199.093 53.8582 199.093C52.947 199.093 52.1928 197.522 52.1928 195.7C52.1928 193.877 52.947 192.306 53.8582 192.306C54.7695 192.306 55.508 193.799 55.508 195.7Z" fill="#9FD8AF"/>
<path d="M78.3208 196.454C78.3208 198.323 77.5824 199.847 76.6554 199.847C75.7285 199.847 75.0058 198.276 75.0058 196.454C75.0058 194.631 75.7442 193.06 76.6554 193.06C77.5667 193.06 78.3208 194.568 78.3208 196.454Z" fill="#9FD8AF"/>
<path d="M18.1936 200.319V211.317C18.1936 240.854 39.1996 265.002 64.8876 265.002H70.308C95.9802 265.002 116.986 240.854 116.986 211.317V200.319H18.1936Z" fill="#F8C72F"/>
<path d="M127.984 218.701H7.88708V220.429H127.984V218.701Z" fill="white"/>
<path d="M127.984 245.41H7.88708V247.139H127.984V245.41Z" fill="white"/>
<path opacity="0.1" d="M96.4831 200.319V211.317C96.4831 240.572 89.523 264.531 64.1649 264.987H70.308C95.9803 264.987 116.986 240.839 116.986 211.301V200.303L96.4831 200.319Z" fill="#4F2882"/>
<path d="M121.448 194.993H13.716V205.645H121.448V194.993Z" fill="#E5A000"/>
</g>
<defs>
<clipPath id="clip0_76_750">
<rect width="128" height="264.971" fill="white"/>
</clipPath>
</defs>
</svg>
