<svg width="26" height="20" viewBox="0 0 26 20" fill="none" xmlns="http://www.w3.org/2000/svg">
<path d="M25.8499 4.82105L25.8175 4.60339L25.7838 4.61116C25.5536 3.53454 25.0232 2.5451 24.2541 1.75733C23.485 0.969567 22.5085 0.415671 21.4377 0.15973C20.3669 -0.09621 19.2455 -0.0437324 18.2033 0.311092C17.1611 0.665916 16.2406 1.30858 15.5484 2.16473C14.8562 3.02089 14.4206 4.05553 14.2919 5.14895C14.1633 6.24237 14.3468 7.34987 14.8213 8.34332C15.2959 9.33677 16.042 10.1756 16.9734 10.7626C17.9048 11.3497 18.9833 11.6611 20.0843 11.6607C20.3732 11.6607 20.6505 11.6167 20.9264 11.5765C20.837 11.8771 20.7451 12.1828 20.5974 12.4575C20.4497 12.8566 20.219 13.2025 19.9897 13.551C19.7979 13.9281 19.4598 14.1833 19.211 14.5059C18.9506 14.8195 18.5956 15.0281 18.3145 15.2885C18.0385 15.5606 17.677 15.6966 17.3894 15.8884C17.0888 16.0607 16.8271 16.2511 16.5472 16.3418L15.8489 16.6295L15.2347 16.8847L15.8618 19.3969L16.6353 19.2104C16.8828 19.1482 17.1847 19.0756 17.528 18.9888C17.8791 18.924 18.2536 18.7465 18.6707 18.5846C19.0815 18.3993 19.5596 18.2762 20.0027 17.9795C20.4484 17.6971 20.9627 17.4613 21.4162 17.0829C21.8554 16.6929 22.3853 16.3548 22.7766 15.8599C23.2042 15.396 23.6265 14.9089 23.9543 14.3543C24.334 13.8257 24.5918 13.2453 24.8639 12.6713C25.11 12.0973 25.3083 11.5104 25.4702 10.9403C25.7773 9.79758 25.9146 8.71184 25.9678 7.78287C26.0118 6.85261 25.9859 6.07911 25.9315 5.5194C25.9133 5.28565 25.886 5.0527 25.8499 4.82105ZM11.5979 4.82105L11.5655 4.60339L11.5318 4.61116C11.3016 3.53454 10.7712 2.5451 10.0021 1.75733C9.23299 0.969567 8.25653 0.415671 7.18573 0.15973C6.11493 -0.09621 4.99354 -0.0437324 3.95132 0.311092C2.9091 0.665916 1.98865 1.30858 1.29646 2.16473C0.604264 3.02089 0.168631 4.05553 0.0399587 5.14895C-0.0887131 6.24237 0.0948362 7.34987 0.569369 8.34332C1.0439 9.33677 1.79002 10.1756 2.7214 10.7626C3.65278 11.3497 4.73135 11.6611 5.83231 11.6607C6.12124 11.6607 6.39851 11.6167 6.67448 11.5765C6.58508 11.8771 6.49309 12.1828 6.34539 12.4575C6.19768 12.8566 5.96706 13.2025 5.73773 13.551C5.54598 13.9281 5.20782 14.1833 4.95906 14.5059C4.69864 14.8195 4.34363 15.0281 4.06248 15.2885C3.78651 15.5606 3.42503 15.6966 3.1374 15.8884C2.83681 16.0607 2.57509 16.2511 2.29524 16.3418L1.59689 16.6295C1.2069 16.7888 0.984054 16.8821 0.984054 16.8821L1.61114 19.3943L2.38463 19.2078C2.6321 19.1456 2.93398 19.073 3.27733 18.9862C3.62844 18.9214 4.00288 18.7439 4.42007 18.582C4.83079 18.3967 5.30888 18.2736 5.75199 17.9769C6.19768 17.6945 6.71205 17.4587 7.16552 17.0803C7.60474 16.6904 8.13466 16.3522 8.52594 15.8573C8.9535 15.3934 9.37587 14.9063 9.70367 14.3517C10.0833 13.8231 10.3411 13.2427 10.6132 12.6687C10.8594 12.0947 11.0576 11.5078 11.2196 10.9377C11.5266 9.79499 11.664 8.70925 11.7171 7.78028C11.7611 6.85002 11.7352 6.07652 11.6808 5.51681C11.6615 5.28398 11.6338 5.05191 11.5979 4.82105Z" fill="#95A857"/>
</svg>
