<svg width="161" height="187" viewBox="0 0 161 187" fill="none" xmlns="http://www.w3.org/2000/svg">
<path fill-rule="evenodd" clip-rule="evenodd" d="M84.9917 39.004C109.476 41.0282 134.891 0.32826 152.528 17.4308C170.06 34.4311 131.332 60.5696 132.393 84.9675C133.571 112.049 170.484 134.25 158.671 158.647C146.959 182.837 110.471 191.418 84.9917 182.868C61.5432 174.999 58.3349 144.245 48.3372 121.622C43.1203 109.817 46.2057 97.0719 41.727 84.9675C31.1876 56.4831 -15.5355 27.3726 5.28145 5.25721C25.8401 -16.5838 55.0989 36.5326 84.9917 39.004Z" fill="#EAEEDD"/>
<path d="M91.2161 49.6668C89.6646 46.3405 87.4636 43.358 84.7424 40.8949C81.4091 37.3861 77.7249 34.2809 74.2161 30.9651C69.4091 26.4563 59.6372 20.6668 51.6898 23.9475C56.4458 23.0632 61.3599 24.0297 65.4267 26.6493C72.6372 31.0879 76.6898 35.0704 82.7775 42.2107C88.8653 49.3511 90.2161 53.0177 90.8828 55.4212C90.8828 55.4212 91.4091 56.3335 91.7074 54.8247C92.0667 53.0952 91.8955 51.2975 91.2161 49.6668Z" fill="#5B9834"/>
<path d="M91.2863 55.9825C91.1593 55.9686 91.038 55.9226 90.9337 55.849C90.8294 55.7753 90.7454 55.6764 90.6898 55.5615V55.5615C89.9178 52.8597 88.374 49.1755 82.6371 42.4562C76.9003 35.7369 72.6371 31.4387 65.3564 26.965C62.2618 25.0314 58.6896 23.9987 55.0406 23.9825C53.9738 23.9704 52.9088 24.0763 51.8652 24.2983C51.7908 24.3162 51.7125 24.3065 51.6447 24.271C51.577 24.2355 51.5244 24.1767 51.4968 24.1053C51.4777 24.0331 51.4849 23.9564 51.517 23.889C51.5491 23.8215 51.6041 23.7676 51.6722 23.7369C53.3001 23.0827 55.0407 22.7548 56.795 22.772C63.5143 22.772 70.5494 27.1229 74.5319 30.8422C75.7775 32.0351 77.0582 33.2106 78.3038 34.3509C80.5494 36.4036 82.8652 38.5264 85.0231 40.772H85.1108C87.8086 43.248 89.9959 46.228 91.5494 49.5439C92.2455 51.2061 92.4406 53.0355 92.1108 54.8071C92.0056 55.1755 91.8477 55.9825 91.2863 55.9825ZM91.2863 55.2808C91.392 55.0963 91.4633 54.8942 91.4968 54.6843C91.8039 53.0059 91.6149 51.2744 90.9529 49.7018C89.4327 46.4646 87.2861 43.5607 84.6371 41.158L84.5494 41.0702C82.4091 38.8422 80.0933 36.7194 77.8652 34.6667C76.6196 33.5264 75.3213 32.3334 74.0757 31.158C70.181 27.5088 63.3038 23.2457 56.76 23.2457H55.8828C59.348 23.4223 62.7111 24.4789 65.6546 26.3158C73.0055 30.8246 77.1284 34.9474 83.0757 41.9123C89.0231 48.8772 90.4617 52.5264 91.2161 55.2808H91.2863Z" fill="#528C45"/>
<g style="mix-blend-mode:multiply" opacity="0.5">
<path d="M91.2161 49.6668C89.6646 46.3405 87.4636 43.358 84.7424 40.8949C81.4091 37.3861 77.7249 34.2809 74.2161 30.9651C69.4091 26.4563 59.6372 20.6668 51.6898 23.9475C56.4458 23.0632 61.3599 24.0297 65.4267 26.6493C71.7212 30.5101 77.3005 35.4306 81.9179 41.1932C81.8913 40.9189 81.8913 40.6428 81.9179 40.3686C81.9208 40.3186 81.9363 40.2701 81.9628 40.2276C81.9894 40.1852 82.0262 40.1501 82.0699 40.1256C82.1136 40.1012 82.1628 40.0881 82.2129 40.0876C82.2629 40.0871 82.3124 40.0993 82.3565 40.123C83.6984 40.9884 84.8455 42.1236 85.7249 43.4563C86.9265 44.9868 88.0114 46.6054 88.9705 48.2984C90.2004 50.569 90.9359 53.0742 91.1284 55.6493C91.3214 55.7545 91.567 55.6493 91.7425 54.8247C92.0908 53.0917 91.9073 51.2938 91.2161 49.6668Z" fill="#5B9834"/>
</g>
<path d="M80.1984 38.0529C80.6687 38.2928 81.1962 38.3977 81.7225 38.3562C82.2488 38.3147 82.7533 38.1283 83.1801 37.8177C83.607 37.5071 83.9396 37.0844 84.141 36.5964C84.3424 36.1084 84.4048 35.5742 84.3212 35.0529C84.3212 30.474 80.1282 22.5792 72.4616 19.5091C64.7949 16.4389 54.444 18.5968 47.7598 21.6143C41.0756 24.6319 39.637 25.5091 39.2686 26.7898C39.2686 26.7898 46.7774 25.895 50.3739 30.0178C53.9703 34.1406 55.1107 48.8775 67.1283 51.1933C79.1458 53.5091 83.7247 47.3687 80.1984 38.0529Z" fill="#A2C629"/>
<path d="M71.8476 52.0001C70.2444 51.983 68.6465 51.8127 67.0757 51.4913C58.4617 49.8247 55.3038 41.8422 53.0406 36.0001C52.3774 33.9433 51.4201 31.9933 50.1985 30.2106C47.7599 27.4211 43.4265 27.0001 41.0581 27.0001C40.4721 26.9949 39.8863 27.0242 39.3037 27.0878C39.2546 27.0935 39.2048 27.0868 39.1589 27.0685C39.1129 27.0501 39.0723 27.0206 39.0406 26.9826C39.0141 26.9405 39.0001 26.8919 39.0001 26.8422C39.0001 26.7925 39.0141 26.7439 39.0406 26.7018C39.4441 25.2808 40.9002 24.3861 47.6897 21.3334C52.8083 19.0346 58.3424 17.8048 63.9529 17.7194C66.9115 17.6657 69.8531 18.1778 72.6195 19.2282C80.4967 22.3861 84.6897 30.4562 84.6897 35.0176C84.6897 38.1229 82.8476 38.5264 81.7599 38.5264C81.4182 38.523 81.0775 38.4877 80.7423 38.4212C82.1634 42.5089 82.0406 45.9299 80.3564 48.3685C78.6721 50.8071 75.7775 52.0001 71.8476 52.0001ZM41.0231 26.4036C43.4967 26.4036 48.0406 26.8422 50.602 29.9124C51.8831 31.7412 52.8826 33.7519 53.5669 35.8773C55.9353 41.8949 58.8301 49.3861 67.181 51.0001C68.7186 51.3011 70.2808 51.4597 71.8476 51.4738V51.4738C75.5845 51.4738 78.3388 50.351 79.8125 48.2106C81.2862 46.0703 81.4616 42.3334 79.9178 38.2457C79.8968 38.1918 79.892 38.1329 79.9039 38.0763C79.9159 38.0197 79.944 37.9678 79.9849 37.9269C80.0258 37.886 80.0777 37.8579 80.1343 37.8459C80.1909 37.834 80.2498 37.8388 80.3037 37.8597C80.7559 38.0143 81.2295 38.0972 81.7073 38.1054C83.2511 38.1054 84.0406 37.1054 84.0406 35.1404C84.0406 30.7018 79.9704 22.8597 72.3564 19.8773C69.6577 18.8503 66.7872 18.35 63.9002 18.4036C58.3802 18.4908 52.9337 19.6839 47.8827 21.9124C42.2511 24.4387 40.3564 25.4212 39.7423 26.4913C40.1674 26.4398 40.5949 26.4105 41.0231 26.4036V26.4036Z" fill="#559649"/>
<g style="mix-blend-mode:multiply" opacity="0.4">
<path d="M72.4616 19.5088C64.7949 16.4211 54.444 18.5965 47.7598 21.6141C41.0756 24.6316 39.637 25.5088 39.2686 26.7895C39.2686 26.7895 46.7774 25.8947 50.3739 30.0176C53.9703 34.1404 55.1107 48.8772 67.1283 51.193C79.1458 53.5088 83.7247 47.3684 80.1984 38.0526C80.6687 38.2925 81.1962 38.3975 81.7225 38.3559C82.2488 38.3144 82.7533 38.1281 83.1801 37.8174C83.607 37.5068 83.9396 37.0841 84.141 36.5961C84.3424 36.1081 84.4048 35.5739 84.3212 35.0527C84.3212 30.4737 80.1282 22.5439 72.4616 19.5088ZM77.2511 30.4211C75.9353 31.772 73.2335 30.3333 71.9879 29.7719C68.5935 28.1751 65.0176 26.9969 61.3388 26.2632C59.4786 25.901 57.5838 25.748 55.6896 25.807C61.3739 26.9474 67.1107 28.7544 71.3563 32.8246C73.1107 34.579 75.5493 37.193 75.0054 39.8421C74.7306 40.9011 74.1747 41.8661 73.3964 42.6351C72.6182 43.404 71.6466 43.9484 70.5844 44.2106C65.1458 45.7544 60.9704 41.579 58.3037 37.3509C55.83 33.4035 53.3563 29.1404 48.7949 27.3158C47.3378 26.754 45.818 26.371 44.2686 26.1755C43.7599 26.1755 42.2861 26.1755 42.216 25.5263C42.1283 24.579 44.9177 23.6316 45.5669 23.3509C46.9704 22.7369 48.444 22.2983 49.8826 21.8246C53.0761 20.6918 56.4127 20.0127 59.7949 19.807C65.7247 19.5614 72.0756 20.8947 76.1282 25.4912C77.2159 26.7368 78.7598 28.8772 77.2511 30.4211Z" fill="#98C22E"/>
</g>
<g style="mix-blend-mode:multiply" opacity="0.4">
<path d="M55.6547 25.7897C57.8738 26.2232 60.0603 26.8093 62.1986 27.544C62.1684 27.5002 62.1522 27.4482 62.1522 27.3949C62.1522 27.3417 62.1684 27.2897 62.1986 27.2458C61.3039 26.9475 60.4442 26.6844 59.5143 26.4212C59.473 26.4077 59.435 26.3857 59.4026 26.3567C59.3702 26.3277 59.3441 26.2924 59.326 26.2528C59.3079 26.2133 59.2981 26.1705 59.2973 26.127C59.2965 26.0835 59.3047 26.0403 59.3214 26.0002C58.1083 25.8172 56.8808 25.7467 55.6547 25.7897V25.7897Z" fill="#98C22E"/>
</g>
<g style="mix-blend-mode:multiply" opacity="0.4">
<path d="M72.4616 19.5091C72.1283 19.3687 71.7949 19.2634 71.4441 19.1406C74.3398 20.474 76.8774 22.4764 78.8476 24.9827C79.6111 25.8172 80.1974 26.7978 80.5713 27.8652C80.9452 28.9326 81.0989 30.0648 81.023 31.1932C80.9884 31.5325 80.8764 31.8592 80.6957 32.1483C80.5149 32.4375 80.2702 32.6812 79.9804 32.8609C79.6906 33.0405 79.3633 33.1512 79.024 33.1845C78.6846 33.2178 78.3422 33.1728 78.023 33.0529C75.6546 32.474 73.5142 31.1231 71.216 30.3336L70.3739 30.0529C72.0535 31.0256 73.5692 32.2571 74.8651 33.702C78.1107 37.4213 79.6195 44.5266 74.6019 47.6143C73.2067 48.339 71.6797 48.7747 70.1121 48.8953C68.5445 49.0159 66.9688 48.8189 65.4792 48.3161C62.2911 47.3844 59.5797 45.2693 57.9002 42.4038C56.83 40.7547 55.9178 39.0354 55.0055 37.2985C54.2118 35.4545 53.1923 33.716 51.9704 32.1231C51.7794 31.8887 51.5743 31.666 51.3563 31.4564C54.3037 36.8248 56.2511 49.0003 67.1458 51.1933C79.1633 53.5266 83.7423 47.3687 80.216 38.0529C80.6863 38.2927 81.2138 38.3977 81.7401 38.3562C82.2663 38.3147 82.7709 38.1283 83.1977 37.8177C83.6246 37.5071 83.9571 37.0844 84.1585 36.5964C84.3599 36.1084 84.4223 35.5742 84.3388 35.0529C84.3213 30.474 80.1283 22.5441 72.4616 19.5091Z" fill="#98C22E"/>
</g>
<path d="M79.9354 37.807C72.2512 26.9123 57.3039 24.4386 44.9705 25.1403C44.8828 25.1403 44.76 25.3333 44.8828 25.3333C58.0407 25.0175 70.1284 28.6842 79.6372 38.1052C79.7951 38.3333 80.0582 37.9649 79.9354 37.807Z" fill="#4E842A"/>
<g style="mix-blend-mode:screen" opacity="0.6">
<path d="M66.9879 42.7369C63.2966 40.4632 60.1709 37.3795 57.8475 33.7193C57.7598 33.5965 57.5142 33.8246 57.5668 33.9474C59.3212 37.5439 62.4791 42.4562 66.7247 43.2105C66.9352 43.2281 67.2159 42.8597 66.9879 42.7369Z" fill="#74B22C"/>
</g>
<g style="mix-blend-mode:screen" opacity="0.6">
<path d="M59.9178 25.2456C56.4113 24.1971 52.7257 23.8865 49.0932 24.3334C49.0055 24.3334 48.8827 24.5264 49.0932 24.5264C52.6892 24.3759 56.2891 24.7122 59.7949 25.5263C59.8651 25.579 60.0932 25.3158 59.9178 25.2456Z" fill="#74B22C"/>
</g>
<path d="M102.935 34.5439C102.935 34.5439 95.5143 41.1579 93.5143 48.0702C93.5143 48.0702 93.9178 40.1579 90.9178 35.6492C90.9178 35.6492 89.7073 33.8948 89.1635 35.6492C88.6196 37.4035 89.9705 37.8597 90.3564 47.772C90.7424 57.6842 91.9705 60.193 90.8652 71C89.7599 81.807 86.8652 95.0351 85.3564 103.947C83.8476 112.86 84.5494 118.877 87.1108 131.597C89.6722 144.316 93.9178 153.825 93.8126 158.93C93.7073 164.035 91.0231 172.842 93.5143 177.86C93.0031 173.923 93.1394 169.928 93.9178 166.035C95.2161 159.737 96.1283 155.316 92.4266 141.596C88.4956 128.567 87.8924 114.761 90.6722 101.439C93.5845 85.4211 95.9353 73.5088 95.4792 65.5965C95.0231 57.6842 96.795 47.0702 102.69 39.1579C108.584 31.2456 109.813 30.5439 109.813 30.5439C109.813 30.5439 111.567 29.2456 109.304 30.1404C107.023 31.3661 104.887 32.8431 102.935 34.5439V34.5439Z" fill="#5B9834"/>
<path d="M93.5143 178.158C93.4588 178.154 93.4054 178.136 93.3592 178.106C93.313 178.075 93.2757 178.032 93.2511 177.983C91.4967 174.474 92.2336 169.123 92.9178 164.421C93.2216 162.598 93.4208 160.758 93.5143 158.912C93.5143 156.263 92.409 152.368 90.9178 147.421C89.6196 143.07 88.0055 137.667 86.8125 131.632C84.2336 118.526 83.6196 112.684 85.0582 103.877C85.5143 101.175 86.1108 98.0527 86.7248 94.7369C88.1634 87.1053 89.795 78.4737 90.5669 70.9474C91.1357 65.8521 91.1357 60.7094 90.5669 55.6141C90.3739 53.4386 90.1634 50.9825 90.023 47.772C89.9727 44.5 89.6144 41.24 88.9529 38.0351C88.6899 37.2367 88.6475 36.382 88.8301 35.5614C89.0231 34.8772 89.3388 34.5264 89.795 34.5264C90.2511 34.5264 90.9704 35.3158 91.0757 35.4737C93.2511 38.7193 93.6722 43.6316 93.7423 46.2632C95.8948 41.7358 98.9172 37.6763 102.637 34.3158C104.621 32.5712 106.806 31.0693 109.146 29.8422C109.515 29.6632 109.913 29.5503 110.321 29.5088C110.403 29.5033 110.485 29.5241 110.555 29.5683C110.624 29.6125 110.678 29.6777 110.707 29.7544C110.707 29.8948 110.83 30.1229 109.935 30.772C109.935 30.772 108.584 31.7018 102.918 39.3158C95.5494 49.193 95.5844 61.8948 95.7774 65.6316C96.1459 73.0351 94.216 83.6316 91.5494 98.3158L90.9529 101.544C88.2043 114.828 88.8073 128.587 92.7073 141.579C96.4441 155.386 95.4968 159.895 94.2161 166.14C93.454 169.976 93.3177 173.91 93.8125 177.789C93.8222 177.83 93.8222 177.872 93.8125 177.912C93.8083 177.99 93.7755 178.064 93.7205 178.119C93.6654 178.174 93.592 178.206 93.5143 178.211V178.158ZM89.8827 35.1579C89.7424 35.1579 89.602 35.3685 89.4968 35.7369C89.3416 36.4669 89.3901 37.2256 89.6371 37.9299C90.2971 41.1645 90.6554 44.4535 90.7073 47.7544C90.8476 50.9649 91.0582 53.4211 91.2511 55.579C91.8202 60.7153 91.8202 65.8988 91.2511 71.0351C90.4792 78.579 88.8476 87.2281 87.409 94.8597C86.7775 98.1755 86.1985 101.298 85.7423 104C84.2687 112.772 84.8827 118.509 87.4967 131.526C88.6722 137.526 90.2862 142.912 91.5845 147.316C93.0757 152.316 94.2687 156.263 94.1985 159C94.115 160.87 93.9158 162.733 93.602 164.579C92.9165 168.043 92.7275 171.588 93.0406 175.105C92.9034 172.078 93.1272 169.045 93.7073 166.07C94.988 159.895 95.9002 155.439 92.216 141.772C88.2717 128.679 87.6685 114.807 90.4616 101.421L91.0406 98.193C93.7072 83.5614 95.6196 72.9825 95.2511 65.6492C95.0757 61.9299 95.0406 49.0351 102.532 39.0176C104.599 35.9403 106.948 33.0623 109.549 30.4211H109.427C107.164 31.6282 105.045 33.0878 103.111 34.772C103.111 34.772 95.7423 41.4036 93.795 48.1579C93.7682 48.227 93.7192 48.2853 93.6557 48.3234C93.5921 48.3615 93.5177 48.3774 93.4441 48.3685C93.373 48.3523 93.3097 48.312 93.2649 48.2544C93.2202 48.1969 93.1967 48.1256 93.1985 48.0527C93.1985 48.0527 93.5669 40.193 90.6546 35.772C90.4616 35.5439 90.1108 35.1579 89.8827 35.1579Z" fill="#528C45"/>
<g style="mix-blend-mode:multiply" opacity="0.7">
<path d="M93.9704 70.9649C93.6501 69.9756 93.2512 69.0135 92.7775 68.0878C92.3455 67.3042 91.865 66.5483 91.3389 65.8246C91.3389 67.3334 91.1459 69.0176 90.9529 71.0877C90.6722 73.8948 90.2511 76.8422 89.795 79.8597C90.5659 79.4408 91.2697 78.9085 91.8827 78.2807C92.6705 77.5016 93.2769 76.5585 93.659 75.5184C94.041 74.4784 94.1893 73.367 94.0932 72.2632C93.9704 71.7544 93.9704 71.3509 93.9704 70.9649Z" fill="#4A7D2A"/>
</g>
<path d="M90.4616 48.123C90.6657 48.4089 90.9621 48.6155 91.3009 48.7082C91.6397 48.8009 92 48.7739 92.3212 48.6318C92.8597 48.4409 93.3051 48.0519 93.5668 47.5441C93.5668 45.7897 93.5668 39.4739 90.9528 35.6494C90.9528 35.6494 89.7423 33.895 89.1984 35.6494C88.6546 37.4037 90.0054 37.8599 90.3914 47.7722L90.4616 48.123Z" fill="#84BC32"/>
<path d="M125.549 130.123C120.848 126.983 116.023 127.404 110.584 127.544C110.304 127.544 109.725 128.105 110.163 128.298C112.269 129.193 115.006 128.491 117.181 128.561C119.964 128.654 122.701 129.298 125.234 130.456C125.549 130.526 125.707 130.228 125.549 130.123Z" fill="#FADFB4"/>
<path d="M125.356 130.772H125.181C122.693 129.612 119.995 128.973 117.251 128.895C116.509 128.853 115.765 128.853 115.023 128.895C114.321 128.895 113.584 129 112.883 129C111.907 129.04 110.934 128.879 110.023 128.527C109.91 128.478 109.815 128.393 109.755 128.285C109.695 128.177 109.672 128.052 109.69 127.93C109.752 127.74 109.864 127.571 110.016 127.441C110.168 127.311 110.352 127.225 110.549 127.193H111.795C112.9 127.193 113.953 127.193 115.005 127.193C118.763 126.972 122.496 127.922 125.69 129.912C125.774 129.963 125.837 130.042 125.869 130.135C125.901 130.228 125.9 130.329 125.865 130.421C125.824 130.523 125.754 130.611 125.663 130.673C125.573 130.735 125.466 130.77 125.356 130.772V130.772ZM116.97 128.246H117.251C119.656 128.327 122.03 128.819 124.269 129.702C121.403 128.281 118.217 127.628 115.023 127.807H111.83H110.584C110.584 127.807 110.391 127.912 110.339 127.983C111.155 128.296 112.027 128.439 112.9 128.404C113.584 128.404 114.304 128.404 114.988 128.298C115.672 128.193 116.339 128.246 116.97 128.246Z" fill="#CC9263"/>
<path d="M112.549 140.737C109.279 138.389 106.688 135.218 105.04 131.544C103.795 129.035 103.795 125.807 101.777 123.72C101.462 123.386 100.69 124.07 100.918 124.439C102.76 127.492 103.233 131 105.093 134.088C106.806 137.027 109.279 139.451 112.251 141.106C112.444 141.263 112.76 140.878 112.549 140.737Z" fill="#FADFB4"/>
<path d="M112.321 141.474C112.252 141.491 112.18 141.491 112.111 141.474C109.078 139.77 106.563 137.279 104.83 134.263C103.957 132.715 103.245 131.08 102.707 129.386C102.195 127.732 101.507 126.138 100.655 124.632C100.595 124.524 100.563 124.404 100.563 124.281C100.563 124.158 100.595 124.037 100.655 123.93C100.744 123.771 100.87 123.637 101.023 123.539C101.176 123.441 101.351 123.383 101.532 123.368C101.694 123.373 101.85 123.435 101.97 123.544C103.113 124.951 103.886 126.621 104.216 128.403C104.474 129.451 104.827 130.472 105.269 131.456C106.885 135.085 109.441 138.216 112.672 140.526C112.756 140.582 112.82 140.663 112.855 140.758C112.89 140.853 112.893 140.956 112.865 141.053C112.823 141.167 112.75 141.267 112.654 141.341C112.558 141.416 112.442 141.461 112.321 141.474V141.474ZM101.567 123.93C101.507 123.94 101.45 123.963 101.398 123.996C101.347 124.029 101.303 124.072 101.269 124.123C101.224 124.172 101.194 124.233 101.181 124.298C102.041 125.839 102.747 127.461 103.286 129.14C103.811 130.803 104.504 132.408 105.356 133.93C106.861 136.559 108.973 138.79 111.514 140.439C108.578 138.095 106.24 135.089 104.69 131.667C104.231 130.65 103.867 129.593 103.602 128.509C103.298 126.824 102.574 125.243 101.497 123.912L101.567 123.93Z" fill="#CC9263"/>
<path d="M58.374 126.228C52.5318 127.983 43.3564 131.386 41.567 138.211C41.567 138.439 41.8477 138.298 41.9003 138.211C44.9003 131.772 51.4091 130.912 57.0757 127.825C57.2336 127.702 58.7073 126.053 58.374 126.228Z" fill="#FADFB4"/>
<path d="M41.6544 138.632C41.5947 138.633 41.5354 138.621 41.4808 138.597C41.4261 138.573 41.3776 138.537 41.3387 138.491C41.3107 138.434 41.2962 138.371 41.2962 138.307C41.2962 138.243 41.3107 138.18 41.3387 138.123C43.093 131.404 51.865 127.965 58.3387 125.947C58.4225 125.924 58.5119 125.933 58.5897 125.972C58.6675 126.01 58.7281 126.077 58.7597 126.158C58.8825 126.614 57.286 128.035 57.2685 128.053C55.7421 128.877 54.1457 129.561 52.6018 130.211C48.3738 131.965 44.3738 133.719 42.2334 138.316C42.1739 138.415 42.0888 138.497 41.987 138.553C41.8852 138.608 41.7703 138.636 41.6544 138.632ZM57.6369 126.772C52.251 128.526 45.5492 131.263 42.8123 135.983C45.1632 132.684 48.6545 131.211 52.3036 129.649C53.8784 129.025 55.4187 128.316 56.9176 127.526C57.0053 127.456 57.3387 127.105 57.6369 126.772Z" fill="#CC9263"/>
<path d="M73.2511 119.334C72.9063 119.492 72.5822 119.692 72.2863 119.93H72.1108C71.3371 120.492 70.6904 121.21 70.2128 122.038C69.7352 122.867 69.4374 123.786 69.3388 124.737C69.1161 125.456 68.9403 126.188 68.8125 126.93C68.1963 131.658 66.1379 136.081 62.9178 139.597C62.5494 139.965 62.9178 140.369 63.3213 140L63.6897 139.667C66.065 137.937 67.9363 135.606 69.1108 132.912C71.1283 128.772 70.988 123.755 73.6897 119.93C73.9529 119.614 73.7424 119.123 73.2511 119.334Z" fill="#FADFB4"/>
<path d="M63.0229 140.491C62.9165 140.494 62.8116 140.466 62.7212 140.41C62.6308 140.354 62.5588 140.272 62.5142 140.176C62.4742 140.047 62.471 139.91 62.5052 139.78C62.5393 139.649 62.6092 139.531 62.7072 139.439C66.2159 135.755 67.5317 131.912 68.5142 126.912C68.6721 126.088 68.8475 125.369 69.0405 124.702C69.1474 123.716 69.4622 122.763 69.9642 121.907C70.4662 121.051 71.144 120.312 71.9528 119.737C72.0223 119.723 72.0938 119.723 72.1633 119.737C72.4616 119.498 72.7924 119.303 73.1458 119.158C73.2976 119.075 73.4759 119.054 73.6429 119.1C73.8099 119.146 73.9525 119.255 74.0405 119.404C74.101 119.54 74.1231 119.691 74.1045 119.839C74.086 119.988 74.0275 120.128 73.9352 120.246C72.5871 122.452 71.6648 124.892 71.2159 127.439C70.8382 129.414 70.25 131.343 69.4616 133.193C68.2864 135.945 66.3739 138.319 63.9353 140.053L63.8475 140.141L63.6195 140.369C63.534 140.429 63.4369 140.472 63.3342 140.493C63.2315 140.514 63.1254 140.514 63.0229 140.491V140.491ZM72.251 120.228C71.5159 120.771 70.9032 121.462 70.4528 122.257C70.0024 123.052 69.7245 123.933 69.637 124.842C69.4125 125.562 69.2309 126.294 69.0932 127.035C68.5047 131.657 66.5429 135.996 63.4615 139.491V139.491C65.8217 137.808 67.673 135.508 68.8124 132.842C69.588 131.03 70.1759 129.143 70.5668 127.211C71.0247 124.593 71.9773 122.086 73.3739 119.825C73.4616 119.702 73.3739 119.614 73.3739 119.597H73.251C72.93 119.737 72.6291 119.92 72.3563 120.141C72.329 120.178 72.2928 120.208 72.251 120.228Z" fill="#CC9263"/>
<path d="M107.637 119.772C103.216 115.772 96.3388 117.825 92.1984 113.684C92.0054 113.474 91.5844 113.86 91.7072 114.088C92.0822 114.88 92.6494 115.567 93.3571 116.085C94.0649 116.602 94.8908 116.935 95.7598 117.053C99.7598 117.947 103.76 117.632 107.234 120.175C107.444 120.316 107.83 119.947 107.637 119.772Z" fill="#FADFB4"/>
<path d="M107.339 120.509C107.247 120.532 107.15 120.532 107.058 120.509C104.715 119.003 102.016 118.143 99.2336 118.017C98.0757 117.86 96.8827 117.702 95.7248 117.438C94.8104 117.314 93.9416 116.963 93.1972 116.418C92.4527 115.872 91.8562 115.15 91.4616 114.316C91.4185 114.232 91.3961 114.138 91.3961 114.044C91.3961 113.949 91.4185 113.856 91.4616 113.772C91.5044 113.692 91.5637 113.623 91.6356 113.568C91.7076 113.513 91.7904 113.475 91.8786 113.455C91.9667 113.435 92.0581 113.434 92.1466 113.452C92.2351 113.471 92.3186 113.508 92.3915 113.561C94.4266 115.596 97.1283 116.07 99.9704 116.596C102.828 116.83 105.557 117.884 107.83 119.631C107.897 119.7 107.942 119.786 107.961 119.879C107.98 119.972 107.971 120.069 107.935 120.158C107.876 120.264 107.79 120.353 107.685 120.414C107.58 120.476 107.46 120.508 107.339 120.509V120.509ZM92.0406 113.947C92.3957 114.689 92.9325 115.329 93.6012 115.807C94.2699 116.286 95.0486 116.587 95.8651 116.684C97.0406 116.947 98.216 117.105 99.3739 117.263C102.124 117.409 104.798 118.221 107.163 119.631C105.023 118.159 102.54 117.259 99.9529 117.017C97.0603 116.842 94.2944 115.769 92.0406 113.947V113.947Z" fill="#CC9263"/>
<path d="M115.514 146.544C109.812 144.667 103.339 146.544 97.6195 145.649C97.4089 145.649 97.9353 146 98.1283 146.193C99.7072 147.737 102.023 147.175 104.005 146.877C107.753 146.272 111.574 146.272 115.321 146.877C115.462 146.895 115.69 146.614 115.514 146.544Z" fill="#FADFB4"/>
<path d="M100.988 147.527C100.426 147.556 99.8632 147.474 99.3331 147.284C98.803 147.094 98.3159 146.801 97.9003 146.421L97.6897 146.228C97.3739 145.948 97.181 145.807 97.2687 145.562C97.3023 145.491 97.3586 145.434 97.4285 145.399C97.4984 145.364 97.578 145.353 97.6547 145.369C98.9089 145.556 100.176 145.644 101.444 145.632C102.69 145.632 103.97 145.632 105.199 145.509C106.427 145.386 107.76 145.386 109.041 145.386C111.255 145.327 113.464 145.623 115.584 146.263C115.674 146.292 115.751 146.352 115.799 146.433C115.848 146.514 115.865 146.609 115.848 146.702C115.825 146.828 115.761 146.943 115.665 147.029C115.57 147.114 115.449 147.166 115.321 147.176C111.602 146.579 107.812 146.579 104.093 147.176L103.585 147.263C102.728 147.423 101.859 147.511 100.988 147.527V147.527ZM98.4266 146.07C98.7756 146.376 99.1816 146.609 99.6212 146.757C100.061 146.904 100.525 146.963 100.988 146.93C101.807 146.906 102.623 146.812 103.427 146.649H103.935C107.038 146.142 110.195 146.053 113.321 146.386C111.907 146.147 110.475 146.035 109.041 146.053C107.777 146.053 106.479 146.053 105.234 146.176C103.988 146.299 102.707 146.299 101.444 146.299C100.441 146.281 99.4388 146.205 98.4441 146.07H98.4266Z" fill="#CC9263"/>
<path d="M115.146 158.421C114.234 156.228 114.023 153.947 112.146 152.368C111.935 152.193 110.707 152.368 110.883 152.579C114.304 156.561 114.777 162.526 119.058 165.877C119.198 166 116.304 161.14 115.146 158.421Z" fill="#FADFB4"/>
<path d="M119.058 166.176C118.995 166.191 118.928 166.191 118.865 166.176C116.635 164.129 114.947 161.561 113.953 158.702C113.148 156.592 112.036 154.611 110.654 152.825C110.617 152.767 110.597 152.7 110.597 152.632C110.597 152.563 110.617 152.496 110.654 152.439C110.83 152.053 111.725 152.053 111.83 152.053C112.028 152.029 112.228 152.079 112.391 152.193C113.616 153.364 114.465 154.872 114.83 156.526C115.015 157.151 115.232 157.766 115.479 158.369C116.269 160.246 117.9 163.123 118.777 164.684C119.479 165.93 119.479 165.93 119.374 166.088C119.334 166.13 119.284 166.16 119.228 166.176C119.172 166.191 119.114 166.191 119.058 166.176V166.176ZM111.321 152.632C112.638 154.405 113.712 156.346 114.514 158.404C115.313 160.544 116.444 162.545 117.865 164.333C116.953 162.719 115.584 160.246 114.865 158.544C114.602 157.912 114.409 157.281 114.198 156.667C113.861 155.121 113.081 153.706 111.953 152.597H111.777L111.321 152.632Z" fill="#CC9263"/>
<path d="M126.128 162.895C125.365 161.839 124.695 160.717 124.128 159.544C123.619 158.456 123.251 157.263 122.655 156.228C122.514 155.983 122.111 156.228 122.146 156.526C122.716 159.038 124.12 161.283 126.128 162.895V162.895Z" fill="#FADFB4"/>
<path d="M126.146 163.228C123.947 161.617 122.422 159.248 121.865 156.579C121.859 156.494 121.87 156.408 121.897 156.326C121.924 156.245 121.967 156.17 122.023 156.105C122.075 156.033 122.144 155.974 122.223 155.933C122.302 155.892 122.39 155.871 122.479 155.871C122.568 155.871 122.656 155.892 122.736 155.933C122.815 155.974 122.883 156.033 122.935 156.105C123.289 156.748 123.594 157.417 123.848 158.105C124.023 158.544 124.216 159.018 124.427 159.439C124.986 160.593 125.643 161.696 126.392 162.737C126.421 162.784 126.437 162.839 126.437 162.895C126.437 162.951 126.421 163.005 126.392 163.053C126.368 163.1 126.334 163.141 126.291 163.172C126.248 163.202 126.198 163.222 126.146 163.228V163.228ZM122.462 156.509C122.757 157.995 123.401 159.389 124.339 160.579C124.181 160.281 124.023 159.983 123.883 159.684C123.742 159.386 123.479 158.772 123.304 158.316C123.055 157.699 122.773 157.096 122.462 156.509Z" fill="#CC9263"/>
<path d="M108.391 178.878C107.022 175.747 106.129 172.43 105.742 169.035C105.426 166.702 105.233 164.439 103.532 162.685C103.356 162.492 103.023 162.842 103.093 163.053C105.304 168.439 104.391 174.228 108.023 179.176C108.146 179.334 108.462 179.035 108.391 178.878Z" fill="#FADFB4"/>
<path d="M108.111 179.526C108.045 179.526 107.98 179.51 107.922 179.48C107.864 179.449 107.814 179.405 107.777 179.351C105.913 176.473 104.776 173.186 104.462 169.772C104.166 167.512 103.612 165.293 102.812 163.158C102.771 163.076 102.749 162.986 102.749 162.895C102.749 162.803 102.771 162.713 102.812 162.632C102.87 162.544 102.948 162.471 103.04 162.419C103.131 162.368 103.234 162.338 103.339 162.333C103.464 162.334 103.584 162.385 103.672 162.474C105.062 164.189 105.84 166.319 105.883 168.526V168.983C106.26 172.352 107.141 175.646 108.497 178.754C108.538 178.826 108.56 178.908 108.56 178.991C108.56 179.074 108.538 179.156 108.497 179.228C108.455 179.301 108.4 179.365 108.334 179.416C108.267 179.467 108.192 179.505 108.111 179.526V179.526ZM103.391 162.895C104.185 165.063 104.744 167.309 105.058 169.597C105.352 172.688 106.309 175.681 107.865 178.368C106.637 175.376 105.823 172.23 105.444 169.018V168.544C105.414 166.501 104.718 164.524 103.462 162.912L103.391 162.895Z" fill="#CC9263"/>
<path d="M76.4264 157.632C76.3299 156.268 76.1008 154.916 75.7422 153.597C75.3061 151.729 75.1115 149.812 75.1633 147.895C75.1633 147.632 74.4615 148.211 74.4089 148.333C73.6777 150.297 73.7406 152.468 74.5843 154.386C75.6076 157.489 75.8605 160.795 75.3211 164.018C75.3211 164.386 75.7773 164.193 75.865 164.018C76.4805 161.949 76.6715 159.776 76.4264 157.632V157.632Z" fill="#FADFB4"/>
<path d="M75.5142 164.456C75.4472 164.461 75.38 164.449 75.3187 164.422C75.2575 164.394 75.204 164.352 75.1633 164.298C75.1264 164.234 75.1069 164.162 75.1069 164.088C75.1069 164.014 75.1264 163.941 75.1633 163.877C75.6945 160.705 75.4354 157.451 74.409 154.403C73.5574 152.419 73.5009 150.183 74.2511 148.158C74.4741 147.804 74.8268 147.552 75.2335 147.456C75.3283 147.456 75.4194 147.492 75.488 147.558C75.5566 147.623 75.5974 147.712 75.6019 147.807C75.5424 149.705 75.7252 151.604 76.1458 153.456C76.5271 154.795 76.7624 156.172 76.8475 157.561C77.0892 159.73 76.8924 161.926 76.2686 164.017C76.1999 164.157 76.0917 164.272 75.9575 164.35C75.8233 164.428 75.6692 164.465 75.5142 164.456ZM74.9177 148.21C74.8402 148.266 74.7695 148.331 74.7072 148.403C74.0245 150.298 74.0936 152.383 74.9002 154.228C75.8903 157.192 76.1786 160.345 75.7422 163.438C76.211 161.523 76.3533 159.542 76.1633 157.579C76.0709 156.232 75.8416 154.897 75.4791 153.596C75.0638 151.832 74.8751 150.022 74.9177 148.21V148.21Z" fill="#CC9263"/>
<path d="M78.8299 142.053C78.8085 142.04 78.7843 142.034 78.7597 142.034C78.7351 142.034 78.7109 142.04 78.6896 142.053C72.3913 146.105 61.479 145.807 57.6369 153.14C57.4966 153.421 57.865 153.474 58.0229 153.298C59.1412 152.008 60.4699 150.917 61.9527 150.07C62.6545 149.684 63.3913 149.351 64.0931 149.018L65.5492 148.404C67.2172 147.835 68.9158 147.361 70.6369 146.983C73.6194 146.281 77.4088 145.474 79.2158 142.719C79.6018 142.193 79.2334 141.947 78.8299 142.053Z" fill="#FADFB4"/>
<path d="M57.83 153.719C57.7461 153.72 57.6635 153.7 57.5898 153.66C57.5161 153.62 57.4538 153.562 57.4089 153.491C57.3636 153.421 57.3395 153.338 57.3395 153.254C57.3395 153.17 57.3636 153.088 57.4089 153.018C59.8651 148.281 65.1809 146.667 70.3037 145.105C73.1789 144.387 75.9459 143.29 78.5317 141.842C78.6023 141.788 78.6882 141.757 78.7773 141.754V141.754C78.9259 141.708 79.0858 141.711 79.2319 141.765C79.378 141.819 79.502 141.92 79.5843 142.053C79.6459 142.193 79.667 142.348 79.6453 142.5C79.6236 142.652 79.56 142.795 79.4616 142.912C77.7072 145.684 73.9177 146.544 70.9177 147.228H70.7071C68.997 147.604 67.3099 148.079 65.6545 148.649L64.2159 149.263L63.9001 149.404C63.3036 149.684 62.672 149.983 62.1457 150.298C60.6986 151.13 59.4002 152.198 58.3037 153.456C58.2492 153.532 58.1784 153.596 58.0965 153.641C58.0145 153.687 57.9235 153.713 57.83 153.719ZM78.8826 142.351C76.2641 143.825 73.462 144.946 70.5493 145.684C65.8475 147.105 61.0054 148.597 58.4966 152.474C59.4986 151.432 60.6448 150.54 61.9001 149.825C62.5142 149.491 63.1458 149.211 63.7598 148.912L64.0756 148.772C64.4966 148.561 64.9703 148.368 65.5492 148.14C67.2295 147.568 68.9396 147.088 70.6721 146.702H70.9002C73.7773 146.035 77.3738 145.211 79.058 142.632C79.1189 142.563 79.1558 142.477 79.1633 142.386H78.8826V142.351Z" fill="#CC9263"/>
<path d="M66.988 121.544H66.8827C61.3388 122.492 53.9003 119.088 49.1283 123.035C48.9353 123.193 49.1283 123.334 49.3388 123.263C50.4911 122.697 51.7308 122.329 53.0055 122.176C53.5845 122.176 54.1985 122.176 54.7599 122.176H55.9529C57.2724 122.26 58.5852 122.43 59.8827 122.684C62.1459 123.07 65.0055 123.632 67.0406 122.263C67.4792 121.877 67.2862 121.597 66.988 121.544Z" fill="#FADFB4"/>
<path d="M49.2512 123.562C49.1517 123.564 49.0538 123.536 48.9696 123.483C48.8854 123.43 48.8186 123.354 48.7775 123.263C48.7549 123.178 48.7578 123.087 48.7859 123.003C48.8139 122.919 48.8658 122.845 48.9354 122.79C50.8519 121.329 53.2327 120.612 55.6371 120.772C57.1678 120.799 58.6962 120.905 60.2161 121.088C61.6657 121.27 63.1238 121.375 64.5845 121.404C65.3368 121.413 66.0884 121.354 66.8301 121.228C66.9159 121.202 67.0074 121.202 67.0933 121.228C67.2123 121.244 67.3236 121.296 67.4116 121.378C67.4996 121.46 67.56 121.567 67.5845 121.684C67.5845 121.825 67.5845 122.105 67.2336 122.369C66.1815 123.018 64.9606 123.342 63.7249 123.298C62.4861 123.264 61.253 123.117 60.0406 122.86H59.8828C58.5954 122.615 57.295 122.445 55.988 122.351H54.5845C54.0757 122.351 53.5669 122.351 53.0582 122.439C51.8377 122.59 50.6514 122.946 49.5494 123.491C49.4588 123.543 49.3553 123.567 49.2512 123.562ZM55.3213 121.807H55.9705C57.3067 121.899 58.6364 122.069 59.9529 122.316H60.1108C61.2674 122.547 62.4409 122.682 63.6196 122.719C64.7485 122.775 65.8678 122.488 66.8301 121.895V121.895H66.7424C65.989 122.022 65.2256 122.081 64.4617 122.07C62.9777 122.042 61.4961 121.937 60.0231 121.755C58.5266 121.571 57.0217 121.466 55.5143 121.439C53.7845 121.372 52.0639 121.721 50.4968 122.456C51.2556 122.205 52.037 122.029 52.8301 121.93C53.374 121.93 53.9003 121.93 54.4091 121.842H55.374L55.3213 121.807Z" fill="#CC9263"/>
<path d="M85.6021 106.018C85.2746 106.174 85.0134 106.441 84.8652 106.772C84.6372 107.298 83.1109 113.79 78.0933 116.614C73.0758 119.439 61.4267 122.86 55.181 128.404C48.9354 133.947 48.5845 139.298 48.5845 139.298C48.5845 139.298 48.5845 139.983 48.8827 139.597C49.7409 136.715 51.1756 134.038 53.0996 131.728C55.0237 129.418 57.3971 127.523 60.0757 126.158C69.5319 121.053 80.567 119.316 84.4793 112.404C84.4793 112.404 87.7074 105.509 85.6021 106.018Z" fill="#FADFB4"/>
<path d="M48.7247 140.088C48.5844 140.088 48.2861 140.088 48.2861 139.369C48.2861 139.123 48.7423 133.825 54.9879 128.246C59.1458 124.544 65.7599 121.79 71.0756 119.561C73.4272 118.649 75.7235 117.601 77.9528 116.421C80.8125 114.772 83.0055 111.649 84.4441 107.123C84.4833 106.992 84.5301 106.863 84.5844 106.737C84.7616 106.328 85.0878 106.002 85.4967 105.825C85.6009 105.803 85.7083 105.803 85.8125 105.825C85.9377 105.82 86.0618 105.849 86.1725 105.907C86.2833 105.966 86.3769 106.052 86.444 106.158C87.1809 107.316 85.1633 111.772 84.6896 112.667C82.023 117.386 76.0756 119.684 69.7774 122.263C66.4839 123.496 63.2676 124.925 60.1458 126.544C54.982 129.192 51.0774 133.778 49.2861 139.298C49.2413 139.516 49.1581 139.724 49.0406 139.912C48.9603 140.008 48.8479 140.07 48.7247 140.088V140.088ZM85.6897 106.386C85.4479 106.517 85.2521 106.719 85.1282 106.965L85.023 107.298C83.5318 111.965 81.2511 115.211 78.2511 116.947C75.974 118.138 73.631 119.198 71.2335 120.123C65.9704 122.316 59.3914 125.07 55.3212 128.702C52.4088 131.133 50.2536 134.347 49.1107 137.965C51.0889 132.773 54.9202 128.498 59.8651 125.965C63.0044 124.335 66.2382 122.894 69.5493 121.649C75.7423 119.176 81.6019 116.842 84.1458 112.333C85.1107 110.281 86.2861 107.07 85.9002 106.421C85.9177 106.316 85.8475 106.281 85.6897 106.316V106.386Z" fill="#CC9263"/>
<path d="M86.4966 124.983C85.9878 124.597 85.637 125.106 85.5493 125.93C85.8759 130.151 84.5128 134.328 81.7598 137.544C78.251 141.983 66.0756 152.72 69.4791 165.807C69.4791 165.807 69.7774 166.562 70.0932 166.176C70.4089 165.79 67.3036 159.579 75.1984 148.316C83.0931 137.053 86.5318 135.246 87.1984 129.614C87.6047 128.157 87.4351 126.599 86.7247 125.263C86.6611 125.16 86.5844 125.066 86.4966 124.983Z" fill="#FADFB4"/>
<path d="M69.9528 166.596C69.5493 166.596 69.3212 166.07 69.251 165.912C66.2686 154.631 74.83 144.982 79.4265 139.789C80.2686 138.842 80.9879 138.035 81.5142 137.368C84.0298 134.487 85.3479 130.752 85.1984 126.93C85.1984 126.544 85.1984 126.193 85.1984 125.895C85.2861 125.052 85.6194 124.561 86.1107 124.561C86.3003 124.562 86.4846 124.624 86.637 124.737L86.9704 125.07C87.7035 126.377 87.9045 127.917 87.5317 129.368V129.649C87.0756 133.403 85.4265 135.491 82.1282 139.631C80.3738 141.842 78.1809 144.579 75.4616 148.491C68.9177 157.824 69.9879 163.596 70.3388 165.491C70.4265 166 70.4616 166.21 70.3388 166.368C70.2971 166.434 70.2404 166.489 70.1733 166.529C70.1062 166.569 70.0306 166.592 69.9528 166.596V166.596ZM86.1633 125.158C86.0756 125.158 85.9002 125.386 85.8651 125.965C85.8372 126.286 85.8372 126.609 85.8651 126.93C85.9795 130.889 84.6018 134.746 82.0054 137.737C81.4791 138.421 80.7423 139.245 79.9002 140.193C75.0932 145.614 67.0931 154.631 69.7773 165.456C69.3914 163.368 68.4791 157.456 75.0405 148.14C77.7949 144.228 79.9879 141.474 81.7423 139.263C84.9703 135.21 86.5844 133.158 87.0054 129.579V129.298C87.3521 128.008 87.1953 126.635 86.5668 125.456C86.4999 125.371 86.4234 125.295 86.3387 125.228C86.3156 125.205 86.2882 125.187 86.2581 125.175C86.228 125.163 86.1957 125.157 86.1633 125.158Z" fill="#CC9263"/>
<path d="M90.1808 142.369C89.8872 143.083 89.6411 143.815 89.444 144.562C88.8965 146.295 88.0537 147.922 86.9527 149.369C85.6018 151.246 84.2509 156.193 84.865 157.632C84.865 157.632 85.0053 158.298 85.2334 157.474C85.1551 155.048 85.9522 152.676 87.479 150.79C90.1808 147.281 91.093 147.281 91.1632 144.93C91.2334 142.579 90.1808 142.369 90.1808 142.369Z" fill="#FADFB4"/>
<path d="M85.0054 158.193C84.7949 158.193 84.637 158 84.5668 157.684C83.9177 156.193 85.3387 151.105 86.7071 149.193C87.7943 147.778 88.6201 146.179 89.1457 144.474C89.3547 143.715 89.6125 142.971 89.9177 142.246C89.9448 142.184 89.9935 142.133 90.0548 142.104C90.116 142.075 90.1857 142.069 90.251 142.088C90.3913 142.088 91.5492 142.439 91.4615 144.947C91.439 145.624 91.2705 146.288 90.9677 146.894C90.6649 147.499 90.235 148.032 89.7071 148.456C89.1808 149.07 88.5317 149.807 87.6896 150.912C86.3166 152.508 85.5631 154.544 85.5668 156.649C85.5703 156.932 85.5409 157.215 85.4791 157.491C85.4615 157.772 85.3563 158.193 85.0054 158.193ZM90.2686 142.807C90.033 143.381 89.828 143.966 89.6545 144.561C89.111 146.336 88.2555 148 87.1282 149.474C86.297 150.863 85.704 152.381 85.3738 153.965C85.785 152.723 86.4147 151.564 87.2335 150.544C87.8754 149.685 88.5605 148.86 89.2861 148.07C90.4264 146.772 90.7949 146.316 90.8475 144.842C90.9491 144.123 90.7666 143.393 90.3387 142.807H90.2686Z" fill="#CC9263"/>
<path d="M90.7072 106.404C90.7072 106.404 90.2685 109.912 94.0229 116.386C97.7773 122.86 103.023 124.351 112.426 128.561C121.83 132.772 125.04 137.877 124.97 138.316C124.9 138.754 124.444 138.175 124.444 138.175C118.883 129.842 103.181 127.351 96.7948 121.281C90.4089 115.211 89.3563 110.298 89.2159 107.456C89.1659 105.592 89.5503 103.742 90.3387 102.053C90.3387 102.053 91.0229 100.912 90.9352 103.246C90.9296 104.302 90.8535 105.357 90.7072 106.404V106.404Z" fill="#FADFB4"/>
<path d="M124.83 138.79C124.567 138.79 124.321 138.509 124.198 138.351C121.058 133.632 114.637 130.825 108.409 128.105C103.742 126.07 99.3212 124.123 96.5493 121.491C91.7072 116.877 89.1282 112.158 88.8826 107.456C88.8286 105.537 89.2252 103.633 90.0405 101.895C90.1282 101.754 90.3212 101.456 90.6194 101.456C90.7447 101.457 90.8646 101.507 90.9528 101.597C91.0931 101.754 91.251 102.07 91.1984 103.246C91.1992 104.314 91.1229 105.381 90.9703 106.439C90.9703 106.439 90.6019 109.947 94.251 116.228C97.4265 121.702 101.707 123.561 108.812 126.649L112.514 128.263C121.602 132.333 125.356 137.544 125.216 138.351C125.221 138.46 125.183 138.566 125.111 138.648C125.039 138.73 124.939 138.781 124.83 138.79ZM90.6019 102.193C89.8512 103.844 89.4796 105.643 89.5142 107.456C89.7422 111.982 92.2686 116.561 97.0054 121.07C99.6896 123.632 104.023 125.561 108.69 127.579C113.065 129.274 117.219 131.495 121.058 134.193C118.394 132.014 115.442 130.214 112.286 128.842L108.584 127.228C101.374 124.088 97.0229 122.211 93.7422 116.561C89.9878 110.088 90.3738 106.526 90.3914 106.386C90.5438 105.352 90.62 104.308 90.6194 103.263C90.6507 102.907 90.6448 102.548 90.6019 102.193V102.193Z" fill="#CC9263"/>
<path d="M93.4266 148.86C94.15 152.277 95.6374 155.485 97.7775 158.246C101.374 162.982 109.198 165.982 110.848 173.561C110.848 173.561 111.076 174.175 111.374 173.649C111.672 173.123 109.497 167.403 105.427 164.105C99.6057 158.766 95.3585 151.934 93.1459 144.351C93.061 145.86 93.1552 147.373 93.4266 148.86V148.86Z" fill="#FADFB4"/>
<path d="M111.111 174.211C110.76 174.211 110.602 173.807 110.567 173.737C109.497 168.86 105.918 165.947 102.462 163.123C100.64 161.774 98.9848 160.213 97.5317 158.474C95.3566 155.682 93.8502 152.429 93.1282 148.965C92.8431 147.456 92.7371 145.919 92.8124 144.386C92.82 144.314 92.8521 144.247 92.9032 144.196C92.9542 144.145 93.0213 144.113 93.0931 144.105C93.1625 144.094 93.2335 144.11 93.292 144.149C93.3504 144.188 93.3922 144.248 93.4089 144.316C95.6422 151.849 99.8882 158.631 105.69 163.93C109.707 167.193 112.128 173.105 111.707 173.842C111.657 173.957 111.573 174.054 111.467 174.12C111.36 174.186 111.236 174.217 111.111 174.211V174.211ZM110.883 172.579C110.97 172.86 111.04 173.14 111.111 173.439C111.067 173.144 110.991 172.856 110.883 172.579ZM93.3388 146.351C93.3688 147.188 93.4686 148.021 93.637 148.842C94.3693 152.217 95.8435 155.388 97.9527 158.123C99.3805 159.818 100.999 161.343 102.777 162.667C104.967 164.307 106.942 166.217 108.655 168.351C107.692 166.859 106.509 165.522 105.146 164.386C99.7822 159.454 95.746 153.252 93.4089 146.351H93.3388Z" fill="#CC9263"/>
<path d="M94.3916 157.632C94.405 156.846 94.3581 156.06 94.2512 155.281C94.2512 155.035 93.9004 155.281 93.8828 155.439C93.8581 158.487 93.0029 161.471 91.4091 164.07C89.9689 166.102 88.4168 168.053 86.76 169.912C86.4599 170.272 86.1787 170.646 85.9179 171.035C83.7695 172.462 81.8774 174.241 80.3214 176.298C79.0582 178.053 77.9354 181.246 79.0407 183.316C79.0407 183.439 79.2512 183.316 79.2512 183.193C79.2512 178.684 81.7249 176.053 84.5144 173.439C83.5996 175.301 83.4424 177.445 84.0758 179.421C84.0758 179.614 84.4442 179.421 84.4442 179.211C84.4268 178.918 84.4268 178.625 84.4442 178.333C84.6768 176.124 85.3893 173.993 86.5319 172.088C88.2657 169.991 90.1414 168.015 92.1459 166.175C93.9895 163.801 94.9229 160.845 94.7775 157.842C94.8126 157.491 94.6021 157.491 94.3916 157.632Z" fill="#FADFB4"/>
<path d="M79.1107 183.579C79.0409 183.579 78.9725 183.56 78.9135 183.522C78.8545 183.485 78.8073 183.432 78.7774 183.369C77.637 181.229 78.6546 178.106 80.0756 176.035C81.6436 173.977 83.5475 172.198 85.7072 170.772C85.9704 170.386 86.2511 170.018 86.5318 169.667C86.8125 169.316 87.4791 168.527 87.9703 167.913C89.1234 166.616 90.19 165.244 91.1633 163.807C92.7405 161.256 93.5786 158.316 93.5844 155.316C93.6002 155.174 93.665 155.043 93.7674 154.943C93.8698 154.844 94.0036 154.784 94.1458 154.772C94.247 154.772 94.3447 154.81 94.4194 154.878C94.4941 154.946 94.5405 155.04 94.5493 155.141C94.6397 155.81 94.6866 156.483 94.6897 157.158C94.8152 157.176 94.9297 157.239 95.0109 157.337C95.092 157.434 95.1338 157.558 95.1283 157.685C95.2347 160.764 94.2672 163.784 92.3914 166.228C91.7248 166.983 90.9528 167.72 90.1984 168.421C88.9401 169.517 87.8048 170.747 86.8125 172.088C85.7081 173.936 85.014 176.001 84.7774 178.141V178.141C84.7774 178.369 84.7774 178.65 84.7774 178.948C84.7765 179.021 84.7604 179.093 84.7302 179.159C84.7 179.226 84.6564 179.285 84.602 179.334C84.5557 179.398 84.4951 179.45 84.4251 179.487C84.355 179.523 84.2774 179.543 84.1984 179.544V179.544C84.1142 179.547 84.0317 179.52 83.9646 179.469C83.8976 179.418 83.8501 179.345 83.83 179.264C83.2859 177.653 83.2859 175.909 83.83 174.299C81.3739 176.65 79.4967 179.088 79.5493 182.948C79.5477 183.011 79.5328 183.074 79.5056 183.131C79.4784 183.189 79.4395 183.24 79.3914 183.281C79.3724 183.35 79.337 183.413 79.288 183.465C79.2391 183.517 79.1782 183.556 79.1107 183.579ZM94.0756 156.65C93.9139 159.325 93.0879 161.918 91.6721 164.193C90.68 165.653 89.596 167.047 88.4265 168.369L86.9879 170.123C86.7072 170.474 86.4265 170.843 86.1633 171.228C84.0485 172.623 82.1809 174.36 80.637 176.369C79.4027 178.039 78.8393 180.111 79.0581 182.176C79.3212 178.141 81.6546 175.667 84.4441 173.123C84.4993 173.081 84.5672 173.057 84.637 173.057C84.7069 173.057 84.7748 173.081 84.83 173.123C84.8803 173.168 84.9156 173.228 84.9313 173.294C84.9469 173.36 84.9422 173.429 84.9177 173.492C84.1907 175.001 83.9516 176.7 84.2335 178.351V178.264V178.123C84.473 175.9 85.1976 173.756 86.3563 171.843C87.384 170.46 88.5607 169.195 89.8651 168.071C90.6195 167.369 91.3739 166.65 92.0405 165.913C93.7935 163.616 94.6984 160.783 94.6019 157.895C94.5583 157.917 94.5103 157.928 94.4616 157.928C94.4129 157.928 94.3649 157.917 94.3213 157.895C94.278 157.866 94.2425 157.827 94.218 157.781C94.1936 157.735 94.1808 157.684 94.1809 157.632C94.0932 157.281 94.0932 156.965 94.0756 156.65V156.65Z" fill="#CC9263"/>
<path d="M93.7774 165.526C93.7774 165.176 93.2511 165.526 93.2686 165.737C93.4337 168.812 94.5356 171.763 96.4265 174.193C98.2716 176.909 99.7466 179.859 100.812 182.965C100.812 183.158 101.163 182.965 101.146 182.79C100.426 176.176 94.4441 172.07 93.7774 165.526Z" fill="#FADFB4"/>
<path d="M100.988 183.281C100.907 183.281 100.827 183.256 100.761 183.209C100.695 183.162 100.645 183.095 100.62 183.018C99.5612 179.954 98.0979 177.045 96.2687 174.368C94.3413 171.892 93.2152 168.887 93.0406 165.754C93.0552 165.582 93.1297 165.421 93.2511 165.298C93.3735 165.164 93.5433 165.082 93.7248 165.07C93.8369 165.074 93.9436 165.119 94.0245 165.197C94.1054 165.275 94.1548 165.379 94.1634 165.491C94.7052 168.569 95.9478 171.48 97.795 174C99.709 176.592 100.989 179.596 101.532 182.772C101.538 182.843 101.528 182.914 101.504 182.98C101.48 183.047 101.441 183.108 101.391 183.158C101.277 183.248 101.133 183.292 100.988 183.281V183.281ZM93.6546 166.281C93.9582 169.105 95.0392 171.789 96.7774 174.035C98.3662 176.394 99.6955 178.917 100.742 181.561C100.008 178.959 98.82 176.506 97.2335 174.316C95.4874 171.909 94.2407 169.177 93.5669 166.281H93.6546Z" fill="#CC9263"/>
<path d="M115.655 172.351C113.432 169.887 110.766 167.863 107.795 166.386C107.549 166.246 107.795 167.351 108.093 167.544C110.041 169.035 111.848 169.526 113.742 171.544C115.856 174.016 117.391 176.929 118.234 180.07C118.234 180.246 118.584 180.07 118.567 179.877C118.341 177.14 117.33 174.527 115.655 172.351Z" fill="#FADFB4"/>
<path d="M118.321 180.439C118.235 180.437 118.153 180.407 118.086 180.353C118.019 180.299 117.972 180.224 117.953 180.14C117.112 177.055 115.603 174.192 113.532 171.754C112.544 170.738 111.401 169.885 110.146 169.228C109.366 168.793 108.616 168.307 107.9 167.772C107.559 167.367 107.389 166.844 107.427 166.316C107.453 166.247 107.498 166.188 107.558 166.144C107.617 166.101 107.687 166.075 107.76 166.07C107.817 166.054 107.878 166.054 107.935 166.07L108.497 166.403C111.305 167.823 113.818 169.764 115.9 172.123C117.608 174.345 118.638 177.013 118.865 179.807C118.871 179.875 118.861 179.943 118.837 180.007C118.813 180.071 118.774 180.128 118.725 180.175C118.681 180.246 118.623 180.307 118.553 180.352C118.483 180.398 118.404 180.427 118.321 180.439V180.439ZM108.093 166.912C108.132 167.055 108.191 167.19 108.269 167.316C108.966 167.819 109.693 168.282 110.444 168.702C111.744 169.39 112.928 170.278 113.953 171.333C115.779 173.471 117.184 175.936 118.093 178.596C117.68 176.395 116.755 174.321 115.391 172.544C113.36 170.24 110.906 168.347 108.163 166.965L108.093 166.912Z" fill="#CC9263"/>
<path d="M130.111 164.456C127.655 155.825 116.97 153.842 109.672 151.175C104.953 149.421 100.234 147.667 96.444 144.298C92.6546 140.93 91.1809 136.421 90.0405 131.702C90.0405 131.526 89.7598 131.702 89.7598 131.842C90.0581 141.035 95.5668 147 103.795 150.404C112.83 154.158 125.409 154.526 129.76 164.719C129.83 164.947 130.163 164.649 130.111 164.456Z" fill="#FADFB4"/>
<path d="M129.83 165.105C129.747 165.105 129.666 165.079 129.597 165.032C129.529 164.985 129.475 164.919 129.444 164.842C126.304 157.474 118.725 155.298 111.374 153.211C108.751 152.509 106.169 151.665 103.637 150.684C94.6371 146.947 89.7423 140.439 89.4616 131.86C89.4697 131.727 89.5259 131.603 89.6195 131.509C89.6661 131.457 89.7228 131.414 89.7861 131.384C89.8493 131.354 89.918 131.337 89.988 131.333C90.07 131.332 90.1501 131.359 90.2142 131.41C90.2783 131.462 90.3224 131.534 90.3388 131.614C91.4616 136.07 92.8651 140.684 96.637 144.07C100.409 147.456 105.163 149.211 109.777 150.895C110.953 151.316 112.198 151.719 113.514 152.158C120.444 154.421 128.304 156.983 130.409 164.439C130.427 164.522 130.425 164.608 130.404 164.69C130.383 164.772 130.342 164.848 130.286 164.912C130.23 164.977 130.16 165.028 130.081 165.062C130.001 165.095 129.916 165.11 129.83 165.105V165.105ZM90.1634 133.333C90.9177 140.912 95.6371 146.702 103.865 150.123C106.38 151.095 108.945 151.932 111.549 152.632C118.655 154.649 125.988 156.754 129.479 163.509C127.041 157.211 119.777 154.737 113.339 152.737L109.567 151.456C104.918 149.702 100.093 147.947 96.2336 144.439C93.1719 141.407 91.0621 137.547 90.1634 133.333V133.333Z" fill="#CC9263"/>
<path d="M88.9353 122.123C88.8476 121.877 88.5143 122.123 88.4792 122.316C87.2686 129.474 98.1283 131.088 99.4265 137.754C99.4265 138.088 99.9353 137.754 99.9353 137.544C99.5143 130.597 91.0055 128.263 88.9353 122.123Z" fill="#FADFB4"/>
<path d="M99.5669 138.193C99.4592 138.194 99.3549 138.155 99.274 138.084C99.1931 138.012 99.1412 137.914 99.1283 137.807C98.5669 134.912 96.023 132.947 93.5844 131.053C90.5844 128.737 87.4968 126.351 88.181 122.281C88.2241 122.141 88.3066 122.017 88.4187 121.924C88.5308 121.83 88.6676 121.772 88.8125 121.754C88.9036 121.751 88.993 121.779 89.0663 121.833C89.1396 121.887 89.1923 121.965 89.216 122.053C90.3724 124.659 92.186 126.92 94.4792 128.614C97.181 131.053 99.988 133.579 100.234 137.544C100.226 137.709 100.157 137.865 100.041 137.982C99.9164 138.112 99.7463 138.188 99.5669 138.193ZM88.7073 122.544C88.1634 126.158 90.9353 128.316 93.9704 130.596C96.3739 132.456 98.8476 134.386 99.6195 137.228C99.2862 133.719 96.7599 131.456 94.0932 129.07C91.7991 127.36 89.9515 125.121 88.7073 122.544V122.544Z" fill="#CC9263"/>
<g style="mix-blend-mode:multiply" opacity="0.5">
<path d="M90.6721 38.5091C91.9062 42.9699 92.5838 47.5661 92.6897 52.1933C93.187 50.8411 93.4768 49.4216 93.5493 47.9827V48.0705C93.5493 48.0705 93.9528 40.1582 90.9528 35.6494C90.9528 35.6494 89.8476 34.0003 89.3037 35.474C90.0932 36.0529 90.4616 37.667 90.6721 38.5091Z" fill="#5B9834"/>
</g>
<g style="mix-blend-mode:multiply" opacity="0.5">
<path d="M109.339 30.1406C107.046 31.364 104.898 32.8411 102.935 34.5441C102.935 34.5441 102.321 35.0879 101.427 36.0177C101.655 36.2283 101.76 36.6318 101.637 37.2809C101.306 38.5141 100.804 39.6951 100.146 40.7897C99.3213 42.3511 98.5143 43.8949 97.795 45.509C94.5494 52.8598 94.1108 60.7195 93.9178 68.6493C93.7041 76.2489 92.6927 83.805 90.9003 91.1932C90.3564 93.4563 90.4792 96.1055 88.0582 97.1756C87.5723 97.3922 87.0671 97.5625 86.5494 97.6844C86.1283 99.9475 85.7248 102.07 85.409 104C83.9003 112.912 84.602 118.93 87.1634 131.649C89.7248 144.369 93.9704 153.877 93.8652 158.983C93.7599 164.088 91.0757 172.895 93.5669 177.912C93.0557 173.975 93.192 169.981 93.9704 166.088C95.2687 159.79 96.181 155.369 92.4792 141.649C88.5482 128.62 87.945 114.814 90.7248 101.491C93.6371 85.4739 95.988 73.5616 95.5319 65.6493C95.0757 57.7371 96.8476 47.123 102.742 39.2107C108.637 31.2984 109.865 30.5967 109.865 30.5967C109.865 30.5967 111.637 29.2458 109.339 30.1406Z" fill="#5B9834"/>
</g>
<path d="M90.7073 101.491C90.9529 100.14 91.1985 98.8245 91.4441 97.5262C90.6401 97.6945 89.8108 97.7021 89.0039 97.5486C88.197 97.395 87.4284 97.0834 86.7424 96.6315C86.2511 99.2807 85.7774 101.772 85.409 104C83.9003 112.912 84.602 118.93 87.1634 131.649C89.7248 144.368 93.9704 153.877 93.8652 158.982C93.7599 164.088 91.0757 172.895 93.5669 177.912C93.0557 173.975 93.192 169.981 93.9704 166.088C95.2687 159.789 96.181 155.368 92.4792 141.649C88.5424 128.621 87.9332 114.815 90.7073 101.491Z" fill="#E7B883"/>
<path d="M93.5143 178.158C93.4588 178.154 93.4054 178.136 93.3592 178.105C93.313 178.075 93.2757 178.032 93.2511 177.982C91.4967 174.474 92.2336 169.123 92.9178 164.421C93.2216 162.598 93.4208 160.758 93.5143 158.912C93.5143 156.263 92.409 152.368 90.9178 147.421C89.6196 143.07 88.0055 137.667 86.8125 131.632C84.2336 118.526 83.6196 112.684 85.0582 103.877C85.4441 101.596 85.9353 98.9824 86.3915 96.4912C86.4018 96.442 86.4252 96.3965 86.4592 96.3595C86.4931 96.3225 86.5364 96.2953 86.5845 96.2806C86.6265 96.2541 86.6751 96.2401 86.7248 96.2401C86.7745 96.2401 86.8232 96.2541 86.8652 96.2806C87.813 96.9319 88.9438 97.2638 90.0932 97.228C90.5107 97.2279 90.9273 97.1927 91.3388 97.1228C91.3798 97.1026 91.4248 97.0921 91.4704 97.0921C91.5161 97.0921 91.561 97.1026 91.602 97.1228C91.6269 97.1621 91.6402 97.2077 91.6402 97.2543C91.6402 97.3009 91.6269 97.3466 91.602 97.3859L90.8827 101.351C88.1342 114.635 88.7371 128.394 92.6371 141.386C96.3739 155.193 95.4266 159.702 94.1459 165.947C93.3799 169.806 93.2436 173.764 93.7423 177.667C93.7514 177.736 93.7375 177.806 93.7026 177.866C93.6677 177.926 93.6138 177.973 93.5494 178L93.5143 178.158ZM86.9529 97.0701C86.5143 99.421 86.0582 101.86 85.7073 104C84.2336 112.772 84.8476 118.509 87.4617 131.526C88.6371 137.526 90.2511 142.912 91.5494 147.316C93.0406 152.316 94.2335 156.263 94.1634 159C94.0799 160.87 93.8807 162.733 93.5669 164.579C92.8814 168.043 92.6924 171.588 93.0055 175.105C92.8683 172.078 93.0921 169.045 93.6721 166.07C94.9528 159.895 95.8652 155.439 92.181 141.772C88.2366 128.679 87.6335 114.807 90.4266 101.421L91.0581 97.9122C89.6343 98.0918 88.191 97.7957 86.9529 97.0701Z" fill="#AD7E48"/>
<g style="mix-blend-mode:multiply">
<path d="M86.953 118.175C87.379 125.426 88.7412 132.59 91.0056 139.491C92.8819 145.626 94.2491 151.904 95.0934 158.263C95.0507 152.609 94.1697 146.992 92.4793 141.596C88.5483 128.567 87.9451 114.761 90.7249 101.439C90.9705 100.088 91.2162 98.7719 91.4618 97.4736C90.6719 97.6052 89.8657 97.6052 89.0758 97.4736C87.5628 104.268 86.8504 111.216 86.953 118.175Z" fill="#E7B883"/>
</g>
<g style="mix-blend-mode:screen" opacity="0.7">
<path d="M86.7073 100.316C86.3915 103.018 85.6021 105.579 85.374 108.386C85.175 111.531 85.2219 114.687 85.5143 117.825C85.5143 117.948 85.6898 117.825 85.6898 117.825C85.6898 114.316 85.6898 110.807 85.988 107.299C86.181 105 86.8828 102.684 86.9179 100.386C86.9529 100.123 86.7073 100.228 86.7073 100.316Z" fill="#FFF8BB"/>
</g>
<g style="mix-blend-mode:screen" opacity="0.7">
<path d="M71.2512 121.877C70.3168 123.602 69.7213 125.49 69.4968 127.439C68.7239 130.894 67.4596 134.22 65.7424 137.316C65.7424 137.456 65.8828 137.421 65.9354 137.316C67.2739 135.046 68.3958 132.656 69.2863 130.176C70.1108 127.509 70.181 124.439 71.4266 121.912C71.5143 121.79 71.3214 121.79 71.2512 121.877Z" fill="#FFF8BB"/>
</g>
<g style="mix-blend-mode:screen" opacity="0.7">
<path d="M75.0756 146.369C73.6786 148.264 72.5015 150.312 71.5668 152.474C71.4791 152.684 71.7422 152.667 71.8299 152.474C73.0755 150.509 74.0405 148.369 75.3387 146.369C75.3563 146.281 75.1633 146.246 75.0756 146.369Z" fill="#FFF8BB"/>
</g>
<g style="mix-blend-mode:screen" opacity="0.7">
<path d="M100.286 159.386C99.038 157.952 97.8667 156.453 96.7774 154.895C96.7774 154.807 96.5317 154.895 96.5844 155.053C97.3852 156.824 98.5863 158.386 100.093 159.614C100.198 159.579 100.374 159.386 100.286 159.386Z" fill="#FFF8BB"/>
</g>
<g style="mix-blend-mode:screen" opacity="0.7">
<path d="M101.093 148.246C99.9807 147.64 98.903 146.972 97.8651 146.246C97.7773 146.246 97.6019 146.351 97.6896 146.421C98.6534 147.268 99.7423 147.96 100.918 148.474C100.988 148.527 101.216 148.316 101.093 148.246Z" fill="#FFF8BB"/>
</g>
<g style="mix-blend-mode:screen" opacity="0.7">
<path d="M95.9176 131.316C95.0812 130.543 94.2026 129.817 93.286 129.141C92.3913 128.474 91.5316 127.649 90.7246 126.965C90.7246 126.965 90.479 127.053 90.5492 127.141C92.1402 128.783 93.905 130.248 95.8123 131.509C95.8299 131.544 95.9878 131.316 95.9176 131.316Z" fill="#FFF8BB"/>
</g>
<g style="mix-blend-mode:screen">
<path d="M89.7598 36.8775C89.7598 36.7547 89.5317 36.8775 89.5492 36.9828C89.9528 40.667 90.7422 44.2986 90.8475 48.0179C90.8475 48.1582 91.058 48.0179 91.058 48.0179C91.1963 44.2599 90.7585 40.5029 89.7598 36.8775V36.8775Z" fill="#84BC32"/>
</g>
<path d="M148.549 20.9825C142.942 17.696 136.722 15.5927 130.271 14.8022C123.82 14.0117 117.275 14.5507 111.041 16.386C105.497 18.1404 99.3564 21.2281 96.409 26.5088C95.0055 29.0351 93.1107 33.193 95.9353 35.4211C97.1634 36.386 99.7247 35.5965 101.023 35.2807C102.596 34.8941 104.143 34.4078 105.655 33.8246C103.532 37.4386 102.427 41.3334 104.374 45.579C106.76 50.8421 113.286 52.5965 118.409 51.6141C121.137 50.9979 123.705 49.816 125.947 48.1448C128.19 46.4736 130.056 44.3503 131.427 41.9123C132.14 40.4919 132.762 39.0269 133.286 37.5263C134.567 35.193 135.76 32.807 137.093 30.5088C139.541 26.2069 143.548 23.0101 148.286 21.5789C148.567 21.5439 148.83 21.1404 148.549 20.9825Z" fill="#B4CD29"/>
<path d="M115.637 52.1931C113.297 52.324 110.968 51.7823 108.925 50.6321C106.883 49.4818 105.212 47.7711 104.111 45.7019C103.306 43.8912 102.964 41.9086 103.117 39.933C103.271 37.9574 103.913 36.051 104.988 34.3861C103.711 34.8497 102.411 35.2479 101.093 35.5791H100.707C99.7159 35.8826 98.6902 36.0595 97.6545 36.1054C96.9743 36.1426 96.3011 35.9511 95.7422 35.5615C92.4264 32.9475 95.2334 27.9299 96.1457 26.2808C99.2685 20.6843 105.918 17.6141 110.953 16.0177C115.207 14.6657 119.646 13.985 124.111 14.0001C132.729 14.0803 141.184 16.3632 148.672 20.6317C148.764 20.6796 148.839 20.7534 148.889 20.8438C148.939 20.9343 148.961 21.0375 148.953 21.1405C148.93 21.2896 148.87 21.4306 148.778 21.5503C148.686 21.6699 148.565 21.7643 148.426 21.8247C143.746 23.2007 139.788 26.3476 137.391 30.5966C136.567 31.9826 135.812 33.4212 135.058 34.8247C134.584 35.7545 134.093 36.5791 133.584 37.5791C133.084 39.0734 132.498 40.5378 131.83 41.965C130.434 44.4428 128.533 46.6004 126.252 48.2986C123.971 49.9969 121.359 51.198 118.584 51.8247C117.616 52.0423 116.629 52.1656 115.637 52.1931V52.1931ZM105.655 33.5089C105.699 33.5131 105.742 33.5261 105.781 33.5472C105.82 33.5683 105.855 33.5971 105.883 33.6317C105.916 33.681 105.933 33.739 105.933 33.7984C105.933 33.8577 105.916 33.9158 105.883 33.965C103.391 38.2457 103.005 41.8948 104.637 45.4563C106.707 49.9826 111.847 51.5966 115.619 51.5966C116.55 51.5927 117.479 51.4987 118.391 51.3159C121.077 50.7156 123.606 49.5552 125.813 47.9106C128.02 46.2661 129.855 44.1743 131.198 41.7721C131.869 40.3577 132.454 38.9049 132.953 37.4212C133.479 36.4738 133.953 35.5615 134.444 34.6317C135.198 33.2282 135.97 31.772 136.777 30.3861C139.269 26.0254 143.338 22.7857 148.146 21.3334C148.194 21.3056 148.231 21.2623 148.251 21.2107C140.856 17.0076 132.511 14.7613 124.005 14.6843C119.608 14.6747 115.235 15.3433 111.04 16.6668C106.093 18.2282 99.5843 21.2282 96.5668 26.6492C94.2335 30.8422 94.058 33.6668 96.0054 35.1756C96.4629 35.4733 97.0046 35.6149 97.5492 35.5791C98.5359 35.5298 99.5133 35.3649 100.462 35.0878L100.848 35.0001C102.407 34.6046 103.941 34.1184 105.444 33.544L105.655 33.5089Z" fill="#559649"/>
<g style="mix-blend-mode:multiply" opacity="0.4">
<path d="M148.549 20.9825C142.942 17.696 136.722 15.5927 130.271 14.8022C123.82 14.0117 117.275 14.5507 111.041 16.386C105.497 18.1404 99.3564 21.2281 96.409 26.5088C95.0055 29.0351 93.1107 33.193 95.9353 35.4211C97.1634 36.386 99.7247 35.5965 101.023 35.2807C102.596 34.8941 104.143 34.4078 105.655 33.8246C103.532 37.4386 102.427 41.3334 104.374 45.579C106.76 50.8421 113.286 52.5965 118.409 51.6141C121.137 50.9979 123.705 49.816 125.947 48.1448C128.19 46.4736 130.056 44.3503 131.427 41.9123C132.14 40.4919 132.762 39.0269 133.286 37.5263C134.567 35.193 135.76 32.807 137.093 30.5088C139.541 26.2069 143.548 23.0101 148.286 21.5789C148.567 21.5439 148.83 21.1404 148.549 20.9825ZM142.304 20.9825C140.558 21.6858 138.848 22.4763 137.181 23.3509C135.403 24.4303 133.745 25.6946 132.234 27.1228C129.444 29.7369 127.146 32.7193 124.602 35.5614C122.501 38.107 119.897 40.1914 116.953 41.6842C116.163 42.0706 115.341 42.3875 114.497 42.6316C113.15 43.0968 111.686 43.0968 110.339 42.6316C109.372 42.3684 108.495 41.8448 107.806 41.1178C107.116 40.3908 106.639 39.4883 106.427 38.5088C106.295 37.2419 106.452 35.9616 106.887 34.7643C107.321 33.567 108.022 32.4839 108.935 31.5965C112.646 27.5537 117.247 24.4304 122.374 22.4737C121.146 22.807 119.918 23.193 118.725 23.6491C116.224 24.5648 113.811 25.7039 111.514 27.0527C109.602 28.2105 107.9 29.6667 106.041 30.9123C103.76 32.4737 100.128 34.5614 97.3563 32.8947C94.5844 31.2281 96.7949 27.6316 98.0756 25.7193L98.2686 25.4386V25.3333C99.4615 23.8113 100.939 22.5361 102.619 21.5789C106.201 19.3302 110.198 17.8265 114.374 17.1579C119.078 16.2591 123.88 15.9878 128.655 16.3509C130.996 16.5747 133.31 17.0212 135.567 17.6842C137.849 18.4702 140.076 19.408 142.234 20.4912C142.272 20.5137 142.304 20.5443 142.329 20.5809C142.354 20.6174 142.37 20.6591 142.377 20.7027C142.383 20.7463 142.38 20.7909 142.368 20.8332C142.355 20.8755 142.333 20.9145 142.304 20.9474V20.9825Z" fill="#98C22E"/>
</g>
<g style="mix-blend-mode:multiply" opacity="0.5">
<path d="M110.532 29.8948C109.912 30.4931 109.326 31.1257 108.777 31.7896L108.988 31.5264C109.444 30.965 109.988 30.4212 110.532 29.8948Z" fill="#A2C629"/>
</g>
<g style="mix-blend-mode:multiply" opacity="0.4">
<path d="M148.549 20.9825C147.234 20.2456 145.9 19.5614 144.532 18.9474C145.31 19.5221 146.022 20.1811 146.655 20.9123C146.76 21.0527 146.777 21.3158 146.655 21.386C144.762 22.0856 142.931 22.9424 141.181 23.9474C139.514 25.0365 138.014 26.36 136.725 27.8772C134.388 30.6523 132.243 33.583 130.304 36.6491C127.128 41.4562 123.409 46.772 117.444 48.1755C112.181 49.4211 105.742 48.1755 104.725 42.0351C103.865 36.772 107.111 32.2807 110.918 28.9298C109.191 29.7629 107.526 30.7186 105.935 31.7895C103.479 33.4386 99.6721 35.4386 96.6897 33.807C96.081 33.4634 95.5889 32.9459 95.2763 32.3208C94.9638 31.6956 94.845 30.9913 94.9353 30.2983C94.5456 31.1823 94.4444 32.1665 94.646 33.1113C94.8475 34.0561 95.3416 34.9134 96.0581 35.5614C97.2862 36.5263 99.8476 35.7369 101.146 35.4211C102.719 35.0345 104.266 34.5481 105.777 33.9649C103.655 37.579 102.549 41.4737 104.497 45.7193C106.883 50.9825 113.409 52.7369 118.532 51.7544C121.26 51.1382 123.828 49.9563 126.07 48.2851C128.313 46.6139 130.179 44.4907 131.549 42.0526C132.263 40.6323 132.884 39.1673 133.409 37.6667C134.69 35.3333 135.883 32.9474 137.216 30.6491C139.664 26.3473 143.671 23.1504 148.409 21.7193C148.567 21.5439 148.83 21.1404 148.549 20.9825Z" fill="#98C22E"/>
</g>
<path d="M122.865 22.4389C115.635 24.4183 109.168 28.526 104.304 34.2284L104.093 34.4038L104.69 34.246C104.74 34.2365 104.792 34.2395 104.841 34.2547C104.89 34.2699 104.935 34.2968 104.971 34.3331C105.007 34.3694 105.034 34.4139 105.049 34.4629C105.064 34.512 105.067 34.5639 105.058 34.6144C104.9 35.0476 104.712 35.4696 104.497 35.8775C104.83 35.7547 105.374 35.3337 106.251 34.1232C108.005 31.6319 118.356 20.667 141.935 20.5267C135.514 19.8747 129.028 20.5251 122.865 22.4389V22.4389Z" fill="#4E842A"/>
<g style="mix-blend-mode:screen" opacity="0.6">
<path d="M127.584 23.0002C120.567 24.5967 110.637 27.9651 107.479 35.0353C107.286 35.4739 107.865 35.4213 108.058 35.1581C112.462 29.1932 120.602 25.3862 127.532 23.2634C127.655 23.2283 127.795 22.9476 127.584 23.0002Z" fill="#74B22C"/>
</g>
<g style="mix-blend-mode:screen" opacity="0.6">
<path d="M104.181 21.474C101.146 22.8951 96.0581 27.246 97.7949 31.1232C97.9528 31.4565 98.4265 31.1232 98.4616 30.8249C98.7172 28.9782 99.3643 27.2073 100.36 25.631C101.355 24.0546 102.676 22.7091 104.234 21.6846C104.234 21.6846 104.339 21.3863 104.181 21.474Z" fill="#74B22C"/>
</g>
<path d="M70.7949 57.8424H66.6721C66.6721 57.8424 51.4616 59.7196 49.1283 72.4038C46.3914 87.3863 61.2686 87.4915 71.2686 83.1757C81.2686 78.86 70.7949 57.8424 70.7949 57.8424Z" fill="#A0BF58"/>
<path d="M60.0757 85.965C55.8301 85.965 52.5669 84.7369 50.6196 82.4562C48.6722 80.1755 48.0757 76.7545 48.8652 72.4562C51.1985 59.7018 66.5143 57.6667 66.6546 57.6492H70.8125C70.8674 57.6447 70.9223 57.6575 70.9695 57.6858C71.0167 57.7141 71.0539 57.7566 71.0757 57.8071C71.374 58.3861 78.0932 71.8422 75.2511 79.4738C74.9421 80.3927 74.4413 81.2355 73.782 81.9463C73.1226 82.657 72.3198 83.2195 71.4266 83.5966C67.8343 85.121 63.9778 85.9257 60.0757 85.965V85.965ZM70.602 58.1404H66.6898C66.567 58.1404 51.6897 60.1404 49.4441 72.4562C48.6897 76.5615 49.2336 79.772 51.0757 81.965C53.3915 84.7545 57.2511 85.3334 60.0757 85.3334C63.8956 85.2544 67.6628 84.4258 71.1634 82.8948C71.9817 82.5499 72.7175 82.0353 73.3224 81.3852C73.9272 80.735 74.3872 79.9639 74.6722 79.1229C77.181 72.2808 71.3739 59.7369 70.602 58.1404V58.1404Z" fill="#6FAA57"/>
<g style="mix-blend-mode:multiply">
<path d="M70.795 57.8424H66.6721C64.5504 58.1759 62.4769 58.765 60.4967 59.5968V59.5968C58.2334 61.1819 56.3565 63.2567 55.0055 65.667C53.4756 68.1194 52.6278 70.9355 52.5494 73.8249C52.6168 75.3097 52.8822 76.7788 53.3388 78.1933C53.6721 79.5266 54.1458 82.8599 51.6722 81.4564C50.5898 80.81 49.723 79.8578 49.1809 78.7196C51.2862 87.281 62.9879 86.7547 71.3037 83.1757C81.2686 78.895 70.795 57.8424 70.795 57.8424Z" fill="#A0BF58"/>
</g>
<path d="M92.8125 73.1052C92.8125 73.1052 93.4266 68.1929 88.5143 61.8947C83.602 55.5964 65.1809 51.0701 56.3739 64.8947C55.243 66.8264 54.5333 68.9754 54.2914 71.2007C54.0495 73.4261 54.2809 75.6774 54.9704 77.807C55.9962 80.71 58.1296 83.089 60.9042 84.4237C63.6788 85.7584 66.869 85.9403 69.7774 84.9298C75.1985 83.0175 78.0055 78.614 82.9002 77.9122C87.795 77.2105 92.3213 78.421 92.8125 73.1052Z" fill="#C5D872"/>
<path d="M65.9002 85.8597C63.4258 85.8774 61.0079 85.1207 58.9851 83.6956C56.9622 82.2704 55.4358 80.2483 54.6195 77.9123C53.9237 75.7386 53.6907 73.4434 53.9355 71.1742C54.1802 68.905 54.8973 66.7122 56.0406 64.7369C57.8477 61.8497 60.375 59.4823 63.374 57.8674C66.3731 56.2526 69.7406 55.4458 73.1459 55.5264C79.3564 55.5264 85.9003 58.1229 88.6722 61.7018C93.602 68.0352 93.0757 72.9299 93.0406 73.1404C92.6371 77.5439 89.5318 77.7194 86.023 77.9299C85.023 77.9299 83.9879 78.0527 82.9353 78.2106C80.4334 78.7539 78.1061 79.9114 76.1634 81.579C74.2558 83.0952 72.1331 84.3192 69.8652 85.2106C68.5907 85.6532 67.2494 85.8728 65.9002 85.8597ZM73.1459 56.1404C69.8434 56.0549 66.5758 56.832 63.6653 58.3949C60.7549 59.9578 58.3022 62.2525 56.5494 65.0527C55.4564 66.9508 54.7703 69.0557 54.5347 71.2333C54.2991 73.411 54.5192 75.6138 55.181 77.7018C55.9541 79.9238 57.4037 81.8479 59.3262 83.2041C61.2487 84.5602 63.5476 85.2803 65.9002 85.2632V85.2632C67.1671 85.2677 68.4252 85.0541 69.6195 84.6317C71.8302 83.7755 73.8999 82.5928 75.7599 81.1229C77.7666 79.3815 80.1803 78.1746 82.7774 77.6141C83.8476 77.4562 84.9002 77.4036 85.9178 77.3334C89.4266 77.1229 92.0581 76.965 92.4265 73.0702C92.4265 73.0702 92.9529 68.193 88.181 62.0702C85.9704 59.1229 80.0582 56.1404 73.216 56.1404H73.1459Z" fill="#6FAA57"/>
<g style="mix-blend-mode:multiply" opacity="0.6">
<path d="M88.5143 61.8951C83.602 55.5793 65.1809 51.0705 56.3739 64.8951C55.243 66.8268 54.5333 68.9758 54.2914 71.2012C54.0495 73.4265 54.2809 75.6778 54.9704 77.8074C55.9962 80.7104 58.1296 83.0894 60.9042 84.4241C63.6788 85.7588 66.869 85.9407 69.7774 84.9302C75.1985 83.0179 78.0055 78.6144 82.9002 77.9126C87.795 77.2109 92.3213 78.4214 92.8125 73.1056C92.8125 73.1056 93.4266 68.1582 88.5143 61.8951ZM81.9178 68.7021C80.2596 69.2689 78.5283 69.5939 76.7774 69.667C74.6493 69.993 72.6356 70.8431 70.9178 72.1407C68.2511 73.8951 65.4616 76.2986 62.1458 76.7899C61.0214 77.0829 59.831 76.9876 58.7675 76.5195C57.7039 76.0514 56.8296 75.2379 56.2862 74.2109C54.8125 71.1232 56.2862 67.1933 57.9178 64.5442C57.9426 64.5012 57.9785 64.4655 58.0216 64.4408C58.0648 64.4162 58.1137 64.4034 58.1634 64.4039C59.1684 62.8987 60.441 61.5905 61.9178 60.5442C66.4441 57.3512 73.2511 56.0705 78.2862 58.9302C80.9529 60.4741 87.3213 66.4039 81.9178 68.7021Z" fill="#C5D872"/>
</g>
<g style="mix-blend-mode:multiply" opacity="0.7">
<path d="M88.5142 61.8951C86.6323 59.7582 84.2075 58.17 81.4966 57.2986C85.6896 59.8775 89.3563 63.8424 89.5493 68.5442C89.6545 71.0179 88.9527 73.4916 86.2159 74.0179C83.0931 74.6144 80.0405 73.9126 77.0229 75.2635C74.0054 76.6144 71.058 79.1407 67.7598 80.5266C65.1079 81.7307 62.0975 81.8812 59.3387 80.9477C58.2664 80.5499 57.2867 79.9369 56.46 79.1464C55.6333 78.3559 54.9771 77.4047 54.5317 76.3512C54.6515 76.8519 54.8039 77.3441 54.9878 77.8249C56.0136 80.728 58.147 83.1068 60.9216 84.4416C63.6963 85.7763 66.8865 85.9583 69.7949 84.9477C75.2159 83.0354 78.0229 78.6319 82.9177 77.9302C87.8124 77.2284 92.3387 78.4389 92.83 73.1232C92.8124 73.1056 93.4265 68.1582 88.5142 61.8951Z" fill="#C5D872"/>
</g>
<g style="mix-blend-mode:screen" opacity="0.9">
<path d="M69.2687 58.2107C62.602 59.6318 54.8125 65.4739 56.988 73.0353C56.988 73.2634 57.3914 73.0353 57.3914 72.8248C57.5502 69.1887 59.0796 65.7476 61.6721 63.1932C63.7938 61.0354 66.3974 59.412 69.2687 58.4564C69.2687 58.4564 69.409 58.1757 69.2687 58.2107Z" fill="#C6D541"/>
</g>
<g style="mix-blend-mode:screen" opacity="0.6">
<path d="M55.0582 63.737C50.3038 67.2458 48.9704 72.6668 49.795 78.1581C49.795 78.3335 50.0581 78.1581 50.0406 78.0528C49.7599 72.6844 50.8652 67.5265 55.1108 63.8949C55.2687 63.8072 55.181 63.6317 55.0582 63.737Z" fill="#C6D541"/>
</g>
</svg>
