<svg width="178" height="163" viewBox="0 0 178 163" fill="none" xmlns="http://www.w3.org/2000/svg">
<path fill-rule="evenodd" clip-rule="evenodd" d="M98.5399 5.42578C125.303 5.27419 159.493 0.935676 173.585 23.6893C187.634 46.3746 164.37 73.2918 156.327 98.7344C151.806 113.037 150.063 129.48 137.536 137.73C126.247 145.165 111.716 133.777 98.5399 136.792C76.0283 141.944 57.9289 169.229 36.3993 160.875C13.2089 151.876 2.65165 123.513 0.460029 98.7344C-1.91974 71.8288 4.77066 43.1521 24.3401 24.5346C43.5765 6.23408 71.9895 5.57616 98.5399 5.42578Z" fill="#EAEEDD"/>
<path d="M101.721 102.693L99.3214 103.995C87.5282 83.2674 67.7452 86.6625 67.7452 86.6625V85.769V83.9567C67.7452 83.9567 78.0834 77.4474 88.7279 82.7314C100.649 88.7045 101.721 102.693 101.721 102.693Z" fill="#8DA1AB"/>
<g style="mix-blend-mode:multiply" opacity="0.4">
<path d="M100.164 103.536L99.3214 103.995C87.5282 83.2677 67.7452 86.6627 67.7452 86.6627V85.7693C71.957 84.4674 81.2487 83.4975 87.0942 87.1477C91.689 89.9812 97.1006 97.4348 100.164 103.536Z" fill="#8DA1AB"/>
</g>
<path d="M97.8409 107.033V109.585L97.6112 115.099C97.6112 115.099 82.5251 111.015 69.5321 114.461C66.5614 115.217 63.7395 116.468 61.185 118.162C58.9044 119.703 56.9522 121.682 55.4416 123.982C54.7523 125.054 54.1397 126.127 53.5781 127.224C51.1704 132.168 49.841 137.567 49.6782 143.064C49.5154 148.561 50.5228 154.029 52.6336 159.107C52.4682 159.024 52.3138 158.921 52.1741 158.8C49.6215 157.09 37.9304 147.722 39.0791 128.169C39.4211 122.47 41.4565 117.004 44.9246 112.47C47.9269 108.553 51.6638 105.258 55.9265 102.77C62.4619 98.5837 70.158 96.5815 77.9048 97.0519L83.2398 99.7323L97.8409 107.033Z" fill="#8DA1AB"/>
<g style="mix-blend-mode:screen" opacity="0.4">
<path d="M69.5065 114.435C63.783 115.733 58.7548 119.13 55.4159 123.957C44.2098 141.161 52.608 159.081 52.608 159.081C52.4425 158.999 52.2881 158.896 52.1485 158.775C47.8006 152.608 45.7669 145.106 46.405 137.588C47.324 126.994 56.539 113.159 69.5065 114.435Z" fill="#8DA1AB"/>
</g>
<path d="M87.1712 102.948C88.8559 109.738 91.5617 127.53 93.5017 140.932C94.0633 144.812 94.5483 148.334 94.9567 151.142C95.0844 152.112 95.212 153.006 95.3141 153.695L95.7991 157.32C90.1117 157.283 84.5482 155.654 79.739 152.618C74.9297 149.581 71.0668 145.259 68.5879 140.14C66.8082 136.506 65.619 132.611 65.0652 128.602C64.8866 127.377 64.7589 126.05 64.6824 124.875C64.4374 122.123 64.8513 119.351 65.89 116.79C66.9287 114.228 68.5622 111.951 70.6555 110.147C75.4326 106.338 81.1291 103.855 87.1712 102.948V102.948Z" fill="#8DA1AB"/>
<g style="mix-blend-mode:multiply" opacity="0.2">
<path d="M97.8409 107.033V109.585C94.1625 109.325 90.4728 109.266 86.7879 109.407L83.3163 99.7322L97.8409 107.033Z" fill="#8DA1AB"/>
</g>
<g style="mix-blend-mode:multiply" opacity="0.4">
<path d="M95.2628 153.746L95.7478 157.371C78.0835 156.835 65.8053 143.816 64.631 124.926C64.386 122.174 64.8 119.402 65.8387 116.841C66.8774 114.279 68.5109 112.002 70.6042 110.198C68.7918 115.482 65.065 128.296 72.34 139.247C79.6151 150.198 87.758 153.006 95.2628 153.746Z" fill="#8DA1AB"/>
</g>
<path d="M89.3407 111.959C89.9191 115.565 89.5496 119.26 88.2686 122.68C88.2686 122.68 70.0938 113.695 68.2304 114.282C67.4929 109.703 65.6629 105.369 62.8953 101.647C62.1162 100.747 61.2036 99.9721 60.1895 99.3492L67.5922 91.6912C73.3502 92.2374 78.8493 94.347 83.4952 97.792C86.9668 100.779 88.7792 106.573 89.3407 111.959Z" fill="#A9BAC0"/>
<path d="M68.1791 24.2502C69.098 47.5303 67.592 91.7677 67.592 91.7677L64.0183 95.4435L60.1893 99.349C50.8721 86.0753 49.2385 67.5175 55.518 44.1608C60.2914 26.2923 57.7898 0.00012207 57.7898 0.00012207L61.9762 0.638283L65.6264 1.17436C65.6264 1.17436 67.2601 0.970127 68.1791 24.2502Z" fill="url(#paint0_linear_76_1436)"/>
<path d="M167.248 40.5105L171.128 47.7345C171.128 47.7345 172.685 66.1646 151.421 86.0242C129.622 106.445 113.131 107.134 110.017 108.309C106.903 109.483 104.912 116.196 104.912 116.196L97.4582 115.022L96.0288 108.947L95.3395 106.062C95.3395 106.062 127.503 88.5002 144.401 75.4306C166.124 58.6343 167.248 40.5105 167.248 40.5105Z" fill="url(#paint1_linear_76_1436)"/>
<path d="M78.2368 104.02C78.4546 104.466 78.5379 104.965 78.4765 105.457C78.4152 105.95 78.2118 106.413 77.8913 106.792C77.5707 107.17 77.1469 107.447 76.6716 107.588C76.1963 107.73 75.6901 107.73 75.2148 107.588C74.7395 107.447 74.3158 107.169 73.9953 106.791C73.6749 106.413 73.4716 105.949 73.4104 105.457C73.3492 104.965 73.4326 104.465 73.6505 104.02C73.8685 103.574 74.2114 103.202 74.6375 102.948C74.9408 102.768 75.2781 102.652 75.6283 102.609C75.9786 102.565 76.334 102.594 76.6723 102.695C77.0105 102.796 77.3241 102.966 77.5934 103.194C77.8627 103.422 78.0818 103.703 78.2368 104.02V104.02Z" fill="#647880"/>
<g style="mix-blend-mode:multiply" opacity="0.5">
<path d="M68.1792 24.2503C69.0981 47.5304 67.5921 91.7677 67.5921 91.7677L64.0184 95.4435C58.9131 82.808 63.0739 60.2426 64.631 41.0977C65.8884 27.5606 65.0272 13.9101 62.0784 0.638306L65.7287 1.17438C65.7287 1.17438 67.2602 0.97015 68.1792 24.2503Z" fill="#EE6520"/>
</g>
<g style="mix-blend-mode:multiply" opacity="0.5">
<path d="M167.248 40.5105L168.856 43.4971C167.171 58.5833 154.535 75.1499 136.412 88.347C124.191 97.3963 110.566 104.373 96.0798 108.998L95.3906 106.113C95.3906 106.113 127.554 88.5513 144.452 75.4818C166.124 58.6343 167.248 40.5105 167.248 40.5105Z" fill="#EE6520"/>
</g>
<g style="mix-blend-mode:multiply" opacity="0.2">
<path d="M55.901 102.744L61.1594 118.06C58.8788 119.601 56.9266 121.579 55.416 123.88C54.7268 124.952 54.1142 126.024 53.5526 127.122L44.8991 112.368C47.9088 108.478 51.6452 105.21 55.901 102.744V102.744Z" fill="#8DA1AB"/>
</g>
<g style="mix-blend-mode:screen" opacity="0.2">
<path d="M93.4505 140.932C94.0121 144.812 94.4971 148.334 94.9055 151.142L68.5367 140.217C66.757 136.582 65.5679 132.688 65.0141 128.679C71.702 131.563 85.9713 137.588 93.4505 140.932Z" fill="#8DA1AB"/>
</g>
<g style="mix-blend-mode:multiply" opacity="0.2">
<path d="M89.3407 111.959C81.6828 97.7917 67.5412 100.191 62.8953 101.748C62.1162 100.849 61.2036 100.074 60.1895 99.451L67.5922 91.793C73.3502 92.3392 78.8493 94.4488 83.4952 97.8939C86.9668 100.778 88.7792 106.573 89.3407 111.959Z" fill="#8DA1AB"/>
</g>
<defs>
<linearGradient id="paint0_linear_76_1436" x1="38.9143" y1="60.5556" x2="84.4357" y2="36.0654" gradientUnits="userSpaceOnUse">
<stop stop-color="#EE6520"/>
<stop offset="0.99" stop-color="#DE5515"/>
</linearGradient>
<linearGradient id="paint1_linear_76_1436" x1="90.8536" y1="102.788" x2="176.052" y2="56.952" gradientUnits="userSpaceOnUse">
<stop stop-color="#EE6520"/>
<stop offset="0.99" stop-color="#DE5515"/>
</linearGradient>
</defs>
</svg>
