<svg width="144" height="164" viewBox="0 0 144 164" fill="none" xmlns="http://www.w3.org/2000/svg">
<path fill-rule="evenodd" clip-rule="evenodd" d="M76.2778 0.39385C98.7099 -1.91501 125.936 5.84054 136.123 25.9592C145.844 45.1589 118.615 64.3027 119.523 85.8041C120.528 109.588 153.304 130.311 141.4 150.926C129.989 170.687 99.094 160.348 76.2778 160.698C52.8554 161.059 25.1625 170.032 9.12137 152.961C-6.83261 135.982 2.23121 108.811 5.90201 85.8041C8.81171 67.5674 15.8589 51.3812 27.6025 37.1288C41.0403 20.8204 55.2574 2.55741 76.2778 0.39385Z" fill="#EAEEDD"/>
<g clip-path="url(#clip0_76_1270)">
<path d="M53.8691 99.2775C53.8691 99.2775 33.7877 85.8456 27.7306 72.7764C21.6736 59.7071 17.563 42.2493 18.7841 40.9315C20.0052 39.6137 58.1247 71.652 67.1438 99.4467L53.8691 99.2775Z" fill="#1D7256"/>
<path d="M21.347 45.3199C27.7789 54.206 33.8359 63.2493 40.1711 72.075C43.3024 76.512 46.5304 80.8885 49.843 85.1563C53.1296 89.4902 56.7042 93.598 60.5426 97.4517C55.9842 94.3567 51.8541 90.6738 48.2592 86.4983C46.3611 84.4913 44.6323 82.3272 42.9276 80.2115C41.2229 78.0957 39.5907 75.847 37.9949 73.6225C34.8273 69.1371 31.8169 64.555 29.0362 59.8399C26.2122 55.1427 23.6454 50.2956 21.347 45.3199V45.3199Z" fill="#55A261"/>
<path d="M71.049 99.2049C71.049 99.2049 60.4099 67.4931 59.2009 48.5965C57.9919 29.6999 62.3443 5.7377 65.125 5.01231C67.9057 4.28691 100.343 62.7054 75.6553 99.2049H71.049Z" fill="#1D7256"/>
<path d="M66.2128 9.37677C68.1472 16.4977 69.7068 23.7033 70.9883 30.9573C71.6774 34.5843 72.1973 38.2113 72.7655 41.8382C73.3338 45.4652 73.7206 49.0922 74.1075 52.8159C74.4944 56.5396 74.7725 60.1665 75.0384 63.8419C75.3044 67.5172 75.4253 71.2167 75.377 74.9163C75.5139 82.3135 74.845 89.7037 73.3821 96.9562C73.4547 95.1064 73.5393 93.3292 73.6602 91.4553C73.7811 89.5814 73.6602 87.8283 73.6602 85.9544C73.6602 84.0804 73.5635 82.3274 73.5272 80.4655L73.4547 77.7211L73.2854 74.9888C72.8864 67.7348 72.2336 60.3842 71.4477 53.1061C70.6619 45.8279 69.8277 38.5377 68.933 31.2474L66.2128 9.37677Z" fill="#3C8A59"/>
<path d="M71.0488 99.2046C71.0488 99.2046 65.0039 76.403 76.3805 58.4978C87.7571 40.5927 102.676 21.4785 104.284 21.8291C105.892 22.1797 99.3755 79.1716 75.6551 99.2046H71.0488Z" fill="#55A261"/>
<path d="M102.894 25.3474C100.597 31.3923 98.1786 37.4373 95.7244 43.4822L88.2891 61.4841L80.8296 79.4498C78.3511 85.4947 75.9211 91.4551 73.3459 97.4517C74.8572 91.1166 76.7674 84.8782 78.8831 78.7244C80.9989 72.5706 83.3443 66.4773 85.8227 60.4686C88.3012 54.4599 90.9609 48.4996 93.79 42.648C96.619 36.7965 99.6052 30.9813 102.894 25.3474Z" fill="#1D7256"/>
<path d="M73.1043 98.1651C73.1043 98.1651 81.5673 74.8557 96.8247 66.2961C112.082 57.7364 127.569 50.7726 129.746 52.0783C131.922 53.384 121.754 81.8074 77.7589 99.229L73.1043 98.1651Z" fill="#3C8A59"/>
<path d="M126.119 55.2216C122.008 58.764 117.897 62.2338 113.775 65.6915C109.652 69.1492 105.517 72.6069 101.443 76.1009L89.1355 86.5587C85.025 90.0406 80.9627 93.5709 76.7313 96.9681C80.1854 92.7953 83.8578 88.8081 87.7331 85.0233C91.5656 81.2029 95.6036 77.6001 99.7142 74.0698C103.825 70.5396 108.105 67.2269 112.493 64.0594C116.858 60.8487 121.407 57.8977 126.119 55.2216V55.2216Z" fill="#55A261"/>
<path d="M81.0351 98.5883C81.0351 98.5883 89.9212 84.8783 104.683 82.69C119.445 80.5017 127.436 78.0958 127.92 79.3048C128.403 80.5138 112.203 96.8352 97.9126 99.2048C83.6223 101.574 81.0351 98.5883 81.0351 98.5883Z" fill="#55A261"/>
<path d="M84.6624 98.2255C87.6607 96.5087 90.7073 95.0096 93.8507 93.5829C96.9941 92.1563 100.089 90.8144 103.232 89.4845C106.376 88.1546 109.556 86.9335 112.747 85.7487C115.939 84.5639 119.143 83.3307 122.419 82.2668C119.641 84.3151 116.687 86.1153 113.594 87.6468C110.547 89.2427 107.404 90.6209 104.248 91.9508C101.093 93.2807 97.8646 94.4534 94.5761 95.5052C91.3299 96.6127 88.0192 97.5211 84.6624 98.2255Z" fill="#1D7256"/>
<path d="M65.7293 97.9475C65.7293 97.9475 49.5167 84.032 44.185 62.1855C38.8534 40.339 36.6893 20.0159 38.3819 20.1368C40.0745 20.2577 72.3183 57.1319 71.9314 98.2256L65.7293 97.9475Z" fill="#3C8A59"/>
<path d="M40.2317 25.3474C42.6497 31.2231 44.9951 37.1229 47.2801 43.0349L54.0867 60.7708C56.3355 66.6949 58.6285 72.5948 60.9659 78.4705C63.3839 84.3341 65.7052 90.1856 68.3045 96.0009C64.8068 90.6713 61.7151 85.0862 59.0557 79.2926C56.2992 73.5499 53.9054 67.65 51.5962 61.7259C49.287 55.8018 47.1834 49.8053 45.3215 43.7603C43.4597 37.7153 41.6341 31.5616 40.2317 25.3474Z" fill="#1D7256"/>
<path d="M61.8966 98.5883C61.8966 98.5883 53.0105 84.8662 38.2487 82.69C23.4869 80.5139 15.4954 78.0958 15.0119 79.3048C14.5283 80.5138 30.7287 96.8352 45.019 99.2048C59.3093 101.574 61.8966 98.5883 61.8966 98.5883Z" fill="#55A261"/>
<path d="M58.3062 98.2255C55.3079 96.5087 52.2612 95.0096 49.1178 93.5829C45.9744 92.1563 42.8794 90.8144 39.736 89.4845C36.5926 88.1546 33.413 86.9335 30.2213 85.7487C27.0295 84.5639 23.8257 83.3307 20.5493 82.2668C23.328 84.3151 26.2812 86.1153 29.3749 87.6468C32.4216 89.2427 35.565 90.6209 38.7205 91.9508C41.8759 93.2807 45.104 94.4534 48.3924 95.5052C51.6386 96.6127 54.9494 97.5211 58.3062 98.2255V98.2255Z" fill="#3C8A59"/>
<path d="M35.7827 101.853V141.254C35.8018 147.039 38.1084 152.581 42.199 156.672C46.2896 160.762 51.8322 163.069 57.6171 163.088H81.7002C87.4873 163.072 93.033 160.767 97.1262 156.676C101.219 152.585 103.528 147.041 103.547 141.254V101.853H35.7827Z" fill="#F8C72F"/>
<path d="M107.512 118.258L100.959 125.512L94.4067 118.258C94.0651 117.922 93.6047 117.733 93.1251 117.733C92.6455 117.733 92.1852 117.922 91.8436 118.258L85.2908 125.512L78.7623 118.258C78.4187 117.921 77.9563 117.732 77.4747 117.732C76.9931 117.732 76.5307 117.921 76.1871 118.258C74.0109 120.676 71.8227 123.094 69.6465 125.512C67.4703 123.094 65.282 120.676 63.1059 118.258C62.7622 117.921 62.2999 117.732 61.8183 117.732C61.3367 117.732 60.8743 117.921 60.5307 118.258L54.0021 125.512C51.8098 123.094 49.6296 120.676 47.4615 118.258C47.1179 117.921 46.6555 117.732 46.1739 117.732C45.6923 117.732 45.2299 117.921 44.8863 118.258C42.7101 120.676 40.5339 123.094 38.3457 125.512L31.8171 118.258C30.2575 116.517 27.6824 119.093 29.242 120.834L37.0641 129.575C37.4078 129.912 37.8701 130.101 38.3517 130.101C38.8333 130.101 39.2957 129.912 39.6393 129.575L46.1679 122.321C48.3561 124.739 50.5323 127.157 52.7085 129.575C53.0521 129.912 53.5145 130.101 53.9961 130.101C54.4777 130.101 54.94 129.912 55.2837 129.575C57.4599 127.157 59.636 124.739 61.8243 122.321C64.0005 124.739 66.1767 127.157 68.3649 129.575C68.7065 129.911 69.1669 130.1 69.6465 130.1C70.1261 130.1 70.5865 129.911 70.928 129.575C73.1163 127.157 75.2925 124.739 77.4687 122.321C79.6569 124.739 81.8331 127.157 84.0093 129.575C84.3529 129.912 84.8153 130.101 85.2969 130.101C85.7785 130.101 86.2409 129.912 86.5845 129.575L93.1251 122.321L99.6779 129.575C100.022 129.912 100.484 130.101 100.965 130.101C101.447 130.101 101.909 129.912 102.253 129.575L110.087 120.834C111.647 119.093 109.072 116.517 107.512 118.258Z" fill="white"/>
<path opacity="0.1" d="M88.0593 101.853V141.254C88.0401 147.041 85.7319 152.585 81.6387 156.676C77.5455 160.767 71.9998 163.072 66.2128 163.088H81.7C87.487 163.072 93.0327 160.767 97.1259 156.676C101.219 152.585 103.527 147.041 103.546 141.254V101.853H88.0593Z" fill="#4F2882"/>
<path d="M108.794 97.7538H30.5355V105.951H108.794V97.7538Z" fill="#E5A000"/>
</g>
<defs>
<clipPath id="clip0_76_1270">
<rect width="115.011" height="158.088" fill="white" transform="translate(15 5)"/>
</clipPath>
</defs>
</svg>
