<svg width="26" height="20" viewBox="0 0 26 20" fill="none" xmlns="http://www.w3.org/2000/svg">
<path d="M5.90709 7.73493C5.61816 7.73493 5.3409 7.77898 5.06493 7.81915C5.15432 7.51856 5.24631 7.21279 5.39402 6.93812C5.54172 6.53906 5.77234 6.19313 6.00167 5.8446C6.19342 5.46757 6.53158 5.21233 6.78034 4.88972C7.04077 4.57618 7.39577 4.36758 7.67692 4.10716C7.95289 3.83507 8.31438 3.69903 8.60201 3.50728C8.90259 3.33496 9.16431 3.1445 9.44417 3.05381L10.1425 2.76618L10.7566 2.51094L10.1283 0L9.35477 0.186571C9.1073 0.248761 8.80542 0.321317 8.46208 0.408124C8.11096 0.472906 7.73652 0.650408 7.31933 0.812362C6.90732 0.996342 6.43052 1.12072 5.98742 1.41613C5.54172 1.69858 5.02735 1.93438 4.57388 2.31271C4.13466 2.70269 3.60475 3.04085 3.21347 3.53708C2.78591 4.00092 2.36353 4.48807 2.03573 5.0426C1.65611 5.57122 1.39828 6.15167 1.1262 6.72563C0.88003 7.2996 0.681798 7.88652 0.519844 8.4566C0.212778 9.59935 0.0754412 10.6851 0.0223202 11.6141C-0.0217313 12.5443 0.00418134 13.3178 0.0585979 13.8775C0.0780324 14.1418 0.11431 14.3984 0.140223 14.5759L0.172614 14.7935L0.2063 14.7858C0.436743 15.8622 0.96723 16.8514 1.7364 17.639C2.50556 18.4265 3.48197 18.9802 4.55268 19.236C5.62339 19.4918 6.74464 19.4393 7.78673 19.0845C8.82882 18.7296 9.74917 18.087 10.4413 17.231C11.1334 16.375 11.5691 15.3405 11.6978 14.2472C11.8266 13.1539 11.6432 12.0465 11.1688 11.0531C10.6945 10.0597 9.94861 9.22085 9.01745 8.63365C8.0863 8.04644 7.00793 7.73486 5.90709 7.73493ZM20.1591 7.73493C19.8701 7.73493 19.5929 7.77898 19.3169 7.81915C19.4063 7.51856 19.4983 7.21279 19.646 6.93812C19.7937 6.53906 20.0243 6.19313 20.2536 5.8446C20.4454 5.46757 20.7836 5.21233 21.0323 4.88972C21.2927 4.57618 21.6477 4.36758 21.9289 4.10716C22.2049 3.83507 22.5663 3.69903 22.854 3.50728C23.1546 3.33496 23.4163 3.1445 23.6961 3.05381L24.3945 2.76618L25.0086 2.51094L24.3802 0L23.6067 0.186571C23.3593 0.248761 23.0574 0.321317 22.714 0.408124C22.3629 0.472906 21.9885 0.650408 21.5713 0.812362C21.1606 0.997638 20.6825 1.12072 20.2394 1.41742C19.7937 1.69987 19.2793 1.93568 18.8259 2.314C18.3866 2.70399 17.8567 3.04215 17.4654 3.53708C17.0379 4.00092 16.6155 4.48807 16.2877 5.0426C15.9081 5.57122 15.6503 6.15167 15.3782 6.72563C15.132 7.2996 14.9338 7.88652 14.7718 8.4566C14.4647 9.59935 14.3274 10.6851 14.2743 11.6141C14.2302 12.5443 14.2562 13.3178 14.3106 13.8775C14.33 14.1418 14.3663 14.3984 14.3922 14.5759L14.4246 14.7935L14.4583 14.7858C14.6887 15.8622 15.2192 16.8514 15.9884 17.639C16.7575 18.4265 17.7339 18.9802 18.8047 19.236C19.8754 19.4918 20.9966 19.4393 22.0387 19.0845C23.0808 18.7296 24.0011 18.087 24.6933 17.231C25.3854 16.375 25.821 15.3405 25.9498 14.2472C26.0785 13.1539 25.8951 12.0465 25.4208 11.0531C24.9465 10.0597 24.2006 9.22085 23.2694 8.63365C22.3383 8.04644 21.2599 7.73486 20.1591 7.73493Z" fill="#95A857"/>
</svg>
