<svg width="47" height="35" viewBox="0 0 47 35" fill="none" xmlns="http://www.w3.org/2000/svg">
<path d="M10.6469 13.9414C10.1262 13.9414 9.62641 14.0208 9.129 14.0932C9.29013 13.5514 9.45594 13.0003 9.72215 12.5052C9.98837 11.786 10.404 11.1625 10.8174 10.5343C11.163 9.85473 11.7725 9.39469 12.2209 8.81321C12.6902 8.24808 13.3301 7.87211 13.8369 7.40272C14.3343 6.91232 14.9858 6.66712 15.5042 6.32151C16.046 6.01092 16.5177 5.66764 17.0221 5.50417L18.2808 4.98575L19.3877 4.5257L18.2551 0L16.861 0.336274C16.415 0.448366 15.8709 0.57914 15.252 0.735601C14.6192 0.852363 13.9443 1.17229 13.1923 1.4642C12.4497 1.7958 11.5903 2.01999 10.7917 2.55242C9.98837 3.0615 9.06128 3.48652 8.24394 4.16841C7.4523 4.87132 6.49718 5.48082 5.79194 6.37522C5.02131 7.21123 4.26002 8.08928 3.6692 9.08877C2.98497 10.0415 2.52026 11.0877 2.02986 12.1223C1.58616 13.1568 1.22887 14.2146 0.936964 15.2421C0.383511 17.3018 0.135975 19.2588 0.0402298 20.9331C-0.0391685 22.6098 0.00753642 24.004 0.105617 25.0128C0.140645 25.4892 0.206032 25.9516 0.252737 26.2715L0.311118 26.6638L0.371834 26.6498C0.787184 28.59 1.74333 30.373 3.12967 31.7924C4.51601 33.2119 6.2759 34.2099 8.20574 34.671C10.1356 35.132 12.1565 35.0373 14.0348 34.3978C15.913 33.7582 17.5719 32.6 18.8193 31.0571C20.0668 29.5141 20.852 27.6496 21.0841 25.679C21.3161 23.7085 20.9856 21.7125 20.1306 19.922C19.2757 18.1315 17.9313 16.6196 16.253 15.5612C14.5747 14.5029 12.6311 13.9413 10.6469 13.9414ZM36.3346 13.9414C35.8138 13.9414 35.3141 14.0208 34.8167 14.0932C34.9778 13.5514 35.1436 13.0003 35.4098 12.5052C35.6761 11.786 36.0917 11.1625 36.5051 10.5343C36.8507 9.85473 37.4602 9.39469 37.9085 8.81321C38.3779 8.24808 39.0178 7.87211 39.5245 7.40272C40.0219 6.91232 40.6735 6.66712 41.1919 6.32151C41.7337 6.01092 42.2054 5.66764 42.7098 5.50417L43.9685 4.98575L45.0754 4.5257L43.9428 0L42.5487 0.336274C42.1026 0.448366 41.5585 0.57914 40.9397 0.735601C40.3068 0.852363 39.632 1.17229 38.88 1.4642C38.1397 1.79814 37.278 2.01999 36.4794 2.55476C35.6761 3.06384 34.749 3.48885 33.9316 4.17075C33.14 4.87365 32.1849 5.48315 31.4796 6.37522C30.709 7.21123 29.9477 8.08928 29.3569 9.08877C28.6727 10.0415 28.2079 11.0877 27.7175 12.1223C27.2738 13.1568 26.9166 14.2146 26.6246 15.2421C26.0712 17.3018 25.8237 19.2588 25.7279 20.9331C25.6485 22.6098 25.6952 24.004 25.7933 25.0128C25.8283 25.4892 25.8937 25.9516 25.9404 26.2715L25.9988 26.6638L26.0595 26.6498C26.4749 28.59 27.431 30.373 28.8174 31.7924C30.2037 33.2119 31.9636 34.2099 33.8934 34.671C35.8233 35.132 37.8442 35.0373 39.7225 34.3978C41.6007 33.7582 43.2595 32.6 44.507 31.0571C45.7545 29.5141 46.5397 27.6496 46.7718 25.679C47.0038 23.7085 46.6733 21.7125 45.8183 19.922C44.9634 18.1315 43.619 16.6196 41.9407 15.5612C40.2624 14.5029 38.3187 13.9413 36.3346 13.9414Z" fill="#95A857"/>
</svg>
