<svg width="146" height="190" viewBox="0 0 146 190" fill="none" xmlns="http://www.w3.org/2000/svg">
<path fill-rule="evenodd" clip-rule="evenodd" d="M67.4635 30.4399C92.5131 28.7902 123.925 18.8478 139.451 38.5753C154.996 58.3283 139.102 86.9367 130.519 110.562C125.231 125.116 111.007 132.296 101.084 144.183C89.1524 158.476 85.2605 180.625 67.4635 186.095C46.0672 192.671 17.0034 192.244 4.00567 174.02C-8.90783 155.915 13.5273 132.801 13.5917 110.562C13.6557 88.4678 -7.95586 65.8067 4.37234 47.4712C17.0076 28.679 44.8674 31.928 67.4635 30.4399Z" fill="#EAEEDD"/>
<g clip-path="url(#clip0_76_1292)">
<path d="M66.0349 69.7039C66.0349 69.7039 56.4676 18.4045 94.1115 -0.000183105C94.1115 -0.000183105 95.8119 51.9419 66.0349 69.7039Z" fill="#3C8A59"/>
<path d="M91.3655 6.19328C91.0137 6.54385 90.701 6.91389 90.3883 7.27419C89.411 8.39405 88.5608 9.54312 87.7301 10.7019C86.3522 12.6495 85.1013 14.5971 83.9384 16.5447C82.2673 19.3979 80.7818 22.2803 79.4137 25.1725C77.6155 29.0092 76.0324 32.8752 74.6154 36.7606C72.827 41.6783 71.3025 46.6251 69.9832 51.5915C68.3902 57.59 67.0514 63.6275 66.0253 69.665C64.7548 76.9003 63.8167 84.1551 63.1424 91.4196C62.3508 99.9792 61.9306 108.558 61.8133 117.128C61.6667 127.021 61.9208 136.905 62.4974 146.789C62.644 149.419 62.8199 152.058 63.0251 154.687C63.0251 155.057 64.061 155.057 64.0024 154.687C63.2401 144.462 62.8003 134.237 62.7612 124.003C62.7612 115.17 62.986 106.348 63.631 97.535C64.1685 89.9491 64.9894 82.3828 66.1621 74.8261C67.1394 68.4673 68.3609 62.1668 69.905 55.7885C71.1754 50.5787 72.6511 45.3787 74.4004 40.2078C75.7978 36.0887 77.3321 31.989 79.1792 27.9186C80.5669 24.783 82.1109 21.6571 83.8113 18.5702C85.0329 16.3791 86.3522 14.1978 87.8181 12.0458C88.7172 10.7214 89.6749 9.39705 90.7499 8.1506C91.246 7.63918 91.7157 7.10291 92.1571 6.54385L92.2255 6.47568C92.548 6.15433 91.6685 5.86218 91.346 6.18354L91.3655 6.19328Z" fill="#1D7256"/>
<path d="M66.4941 46.8879C67.6897 51.1918 68.1522 55.6652 67.8623 60.1217C67.8134 60.9007 68.7809 60.9397 68.8395 60.1217C69.2208 55.5445 68.8277 50.936 67.6766 46.4886C67.6326 46.3336 67.5285 46.2025 67.3874 46.1239C67.2463 46.0454 67.0796 46.026 66.9241 46.0699C66.7686 46.1138 66.637 46.2174 66.5582 46.3581C66.4794 46.4987 66.4599 46.6647 66.5039 46.8197L66.4941 46.8879Z" fill="#1D7256"/>
<path d="M81.6417 41.2889C78.0464 43.3905 74.8561 46.1143 72.2209 49.3325C71.1083 50.6665 70.1753 52.1397 69.4455 53.7145C69.123 54.4157 69.9146 55.0194 70.2371 54.3085C72.3773 49.5759 76.8629 45.8852 81.1335 43.0515C81.5049 42.808 81.8762 42.5646 82.2574 42.3406C82.3767 42.2499 82.4586 42.1188 82.4877 41.9721C82.5168 41.8254 82.4912 41.6731 82.4155 41.5439C82.3399 41.4147 82.2195 41.3175 82.077 41.2705C81.9345 41.2236 81.7797 41.2301 81.6417 41.2889V41.2889Z" fill="#1D7256"/>
<path d="M71.3121 26.9255C71.6001 28.1426 71.7961 29.3796 71.8985 30.6259C72.2925 34.8758 72.4231 39.1459 72.2894 43.4118C72.2678 43.4872 72.264 43.5665 72.2784 43.6435C72.2928 43.7206 72.3249 43.7933 72.3723 43.8558C72.4197 43.9184 72.481 43.9692 72.5514 44.0041C72.6218 44.0391 72.6993 44.0573 72.778 44.0573C72.8566 44.0573 72.9342 44.0391 73.0046 44.0041C73.075 43.9692 73.1363 43.9184 73.1837 43.8558C73.231 43.7933 73.2632 43.7206 73.2776 43.6435C73.292 43.5665 73.2882 43.4872 73.2666 43.4118C73.4752 39.0981 73.41 34.7756 73.0712 30.4701C72.9742 29.157 72.7683 27.8542 72.4555 26.5749C72.4114 26.42 72.3074 26.2888 72.1663 26.2103C72.0252 26.1318 71.8585 26.1123 71.703 26.1562C71.5475 26.2001 71.4159 26.3038 71.3371 26.4444C71.2583 26.585 71.2387 26.7511 71.2828 26.906L71.3121 26.9255Z" fill="#1D7256"/>
<path d="M88.2285 23.2153C84.4028 24.9673 80.9924 27.5061 78.2214 30.6648C76.9718 32.0749 75.9198 33.6473 75.0942 35.339C74.7521 36.0401 75.6121 36.6731 75.9542 35.9622C78.3191 31.0933 82.9415 27.3637 87.6812 24.8221C88.0721 24.6176 88.4533 24.4131 88.854 24.2378C89.5771 23.9164 88.9517 22.8647 88.2383 23.1861L88.2285 23.2153Z" fill="#1D7256"/>
<path d="M80.1758 12.7957C80.4943 13.7185 80.6977 14.6767 80.7817 15.6489C81.1029 18.2047 80.9606 20.7972 80.3615 23.3029C80.1661 24.0625 81.114 24.2767 81.3388 23.5269C82.0468 20.9644 82.2819 18.2951 82.0326 15.6489C81.9461 14.5688 81.7296 13.5029 81.3876 12.4743C81.114 11.744 79.9315 12.0556 80.2052 12.7957H80.1758Z" fill="#1D7256"/>
<path d="M91.4044 12.0263C90.5707 12.0403 89.7413 12.1481 88.9319 12.3477C87.5203 12.6441 86.25 13.4057 85.3259 14.5095C85.1109 14.7627 84.7982 15.0743 85.0425 15.3178C85.2868 15.5612 85.6386 15.3664 85.8536 15.1133C86.7972 14.2062 88.0187 13.6405 89.3228 13.5065C90.0024 13.33 90.7021 13.2416 91.4044 13.2436C91.5531 13.2248 91.6898 13.1526 91.7889 13.0406C91.888 12.9285 91.9427 12.7843 91.9427 12.635C91.9427 12.4856 91.888 12.3414 91.7889 12.2294C91.6898 12.1173 91.5531 12.0451 91.4044 12.0263V12.0263Z" fill="#1D7256"/>
<path d="M94.1212 2.15198C91.8051 36.8969 67.7353 68.5743 67.6669 68.6717C92.2254 52.3315 94.0528 11.9094 94.1212 2.15198Z" fill="#55AE71"/>
<path d="M69.6215 93.6594C69.6215 93.6594 75.7195 48.4657 120.351 61.0958C120.351 61.0958 97.5514 88.8391 69.6215 93.6594Z" fill="#55A261"/>
<path d="M116.246 61.1057C114.397 61.2505 112.561 61.5337 110.754 61.9529C106.306 62.9172 101.977 64.3638 97.8446 66.2668C84.8417 72.1627 74.4889 82.6453 68.781 95.6948C64.3149 105.608 62.507 115.882 62.0086 126.097C61.9304 127.674 61.8815 129.242 61.8718 130.819C61.8718 131.19 62.849 131.19 62.849 130.819C62.9565 120.108 64.3442 109.396 68.4194 98.957C71.2789 91.4074 75.659 84.521 81.2899 78.7216C85.7564 74.1605 90.9592 70.3784 96.6817 67.5327C100.875 65.4376 105.295 63.8269 109.855 62.7319C111.991 62.2511 114.155 61.8999 116.334 61.6802V61.6802C116.969 61.6802 116.979 61.057 116.334 61.1057H116.246Z" fill="#1D7256"/>
<path d="M79.4917 73.0052C79.1301 74.4269 78.7099 75.8292 78.2702 77.2314C77.5677 79.726 76.6217 82.1461 75.4459 84.457C75.2211 84.866 75.8563 85.236 76.0811 84.827C77.2592 82.5036 78.2146 80.0746 78.9347 77.5723C79.394 76.1213 79.824 74.6509 80.1954 73.1999C80.2213 73.107 80.2091 73.0075 80.1614 72.9235C80.1138 72.8395 80.0346 72.7778 79.9413 72.752C79.848 72.7262 79.7482 72.7383 79.6639 72.7858C79.5796 72.8333 79.5177 72.9122 79.4917 73.0052Z" fill="#1D7256"/>
<path d="M92.2157 78.8478C89.7839 79.2965 87.3943 79.948 85.072 80.7954C80.8307 82.2853 76.6089 84.34 73.4133 87.5632C73.081 87.8943 73.599 88.4202 73.9312 88.0793C77.1366 84.8463 81.417 82.8111 85.6583 81.3504C87.8519 80.5752 90.1033 79.9728 92.3916 79.5489C92.8509 79.471 92.6555 78.7699 92.1962 78.8478H92.2157Z" fill="#1D7256"/>
<path d="M87.6812 65.4487C87.6337 66.5669 87.4833 67.6785 87.2316 68.7693C86.8489 70.9111 85.9276 72.9212 84.554 74.6121C84.2413 74.9626 84.7592 75.4787 85.0719 75.1282C86.5199 73.3673 87.4981 71.2704 87.9157 69.0322C88.1938 67.8427 88.3607 66.63 88.4141 65.4097C88.4141 64.9423 87.7007 64.9423 87.6812 65.4097V65.4487Z" fill="#1D7256"/>
<path d="M103.816 70.9308C101.735 70.6679 99.6387 70.5508 97.5417 70.5802C94.0529 70.5802 90.2807 70.9308 87.1535 72.6057C86.7431 72.8297 87.1535 73.4626 87.5248 73.2386C90.5934 71.5929 94.3656 71.2911 97.7372 71.2911C99.1346 71.2911 100.532 71.3398 101.92 71.4469L103.161 71.5637H103.532C103.532 71.5637 103.816 71.5637 103.62 71.5637C104.08 71.6221 104.275 70.921 103.816 70.8529V70.9308Z" fill="#1D7256"/>
<path d="M100.327 60.7256C100.327 60.8035 100.327 60.6379 100.327 60.7256C100.327 60.8132 100.327 60.8229 100.327 60.8716C100.327 60.9203 100.258 61.193 100.219 61.3488C100.084 61.8972 99.8972 62.4318 99.6623 62.9458C98.8783 64.6647 97.6211 66.1268 96.0367 67.1623C95.6458 67.4253 96.0367 68.0582 96.408 67.7953C98.6853 66.3197 100.314 64.0357 100.962 61.4072C101.014 61.1959 101.05 60.9811 101.07 60.7645C101.128 60.2971 100.395 60.3068 100.337 60.7645L100.327 60.7256Z" fill="#1D7256"/>
<path d="M120.351 61.0958C120.351 61.0958 88.1014 87.3882 69.6215 93.6594C97.5514 88.8391 120.351 61.0958 120.351 61.0958Z" fill="#62BD71"/>
<path d="M110.783 65.8479C109.809 65.4984 108.813 65.2089 107.803 64.9812C105.969 64.4752 104.06 64.3004 102.164 64.4651C101.705 64.5236 101.695 65.2539 102.164 65.1955C104.03 65.0377 105.909 65.2091 107.715 65.7019C108.688 65.9308 109.647 66.2136 110.588 66.549C111.028 66.7146 111.223 66.0135 110.783 65.8479V65.8479Z" fill="#1D7256"/>
<path d="M77.0487 115.462C77.0487 115.462 89.2937 92.8607 110.275 112.142C110.236 112.142 94.7077 125.648 77.0487 115.462Z" fill="#3C8A59"/>
<path d="M103.542 110.194C102.335 109.804 101.1 109.505 99.848 109.298C96.9907 108.771 94.0759 108.624 91.1797 108.86C87.5853 109.138 84.1085 110.263 81.0358 112.142C77.252 114.598 74.3445 118.184 72.7291 122.386C69.9244 129.047 69.4944 136.019 69.6605 142.836C69.6605 143.965 69.7387 145.105 69.8071 146.234C69.8071 146.614 70.843 146.614 70.7844 146.234C70.3544 139.028 70.4814 131.676 72.905 124.567C74.218 120.145 76.8784 116.238 80.5178 113.388C83.3722 111.294 86.7222 109.972 90.2415 109.552C93.082 109.196 95.9594 109.255 98.7828 109.727C99.76 109.873 100.815 110.097 101.558 110.282C102.027 110.399 102.477 110.584 102.946 110.681H103.004C103.562 110.866 104.07 110.37 103.513 110.175L103.542 110.194Z" fill="#1D7256"/>
<path d="M88.7072 105.9C88.4924 106.276 88.2332 106.626 87.9352 106.942C87.0594 107.933 86.0762 108.825 85.0034 109.6C84.0654 110.306 83.0864 110.956 82.0717 111.548C82.0011 111.603 81.953 111.682 81.9362 111.77C81.9194 111.857 81.9351 111.948 81.9804 112.026C82.0257 112.103 82.0975 112.161 82.1825 112.19C82.2676 112.218 82.3601 112.215 82.443 112.181C85.0115 110.842 87.2663 108.977 89.059 106.708C89.147 106.581 89.235 106.455 89.3131 106.318C89.3475 106.236 89.3506 106.144 89.322 106.059C89.2933 105.974 89.2349 105.903 89.1574 105.858C89.08 105.812 88.9887 105.797 88.9006 105.813C88.8124 105.83 88.7333 105.878 88.6779 105.948L88.7072 105.9Z" fill="#1D7256"/>
<path d="M93.6033 115.277C92.0608 114.389 90.4214 113.68 88.717 113.164C85.8341 112.268 82.6189 111.889 79.7946 113.164C79.3647 113.359 79.736 113.982 80.1563 113.797C82.9023 112.57 86.0784 113.077 88.8343 113.982C90.3678 114.468 91.8427 115.121 93.2319 115.93C93.3149 115.979 93.414 115.993 93.5075 115.969C93.6009 115.946 93.6811 115.886 93.7303 115.803C93.7796 115.721 93.7939 115.622 93.77 115.529C93.7462 115.435 93.6862 115.356 93.6033 115.307V115.277Z" fill="#1D7256"/>
<path d="M101.05 113.525C100.14 112.651 99.1593 111.853 98.1183 111.139C96.4472 109.98 94.4439 108.841 92.3428 108.87C91.8737 108.87 91.8737 109.327 92.3428 109.327C94.2973 109.327 96.2518 110.72 97.835 111.82C98.7995 112.49 99.711 113.232 100.561 114.041C100.633 114.091 100.72 114.115 100.808 114.108C100.895 114.101 100.978 114.063 101.04 114.001C101.102 113.939 101.14 113.857 101.147 113.77C101.154 113.683 101.13 113.596 101.079 113.525H101.05Z" fill="#1D7256"/>
<path d="M97.4928 105.802L97.3951 105.871L96.9944 106.153C96.496 106.484 96.0172 106.776 95.4602 107.059C93.7654 107.958 91.9431 108.595 90.0559 108.948C89.5966 109.035 89.8018 109.629 90.2709 109.552C92.2078 109.214 94.0824 108.587 95.8315 107.692C96.5964 107.298 97.3256 106.838 98.0108 106.319C98.3821 106.026 97.8544 105.52 97.4928 105.802V105.802Z" fill="#1D7256"/>
<path d="M110.236 112.142C110.236 112.142 91.1016 120.468 77.0095 115.463C94.7076 125.648 110.236 112.142 110.236 112.142Z" fill="#55AE71"/>
<path d="M53.9952 88.3912C53.9952 88.3912 28.3813 48.378 43.9001 21.0534C43.9001 21.0534 68.4488 48.4657 53.9952 88.3912Z" fill="#55A261"/>
<path d="M59.6534 151.756C59.1713 137.87 58.3439 123.987 57.1711 110.107C56.2004 98.6355 54.9788 87.1707 53.5064 75.7125C52.3728 66.9094 51.0698 58.116 49.5974 49.3324C48.6202 43.6065 47.594 37.8904 46.4213 32.1742C46.0988 30.5869 45.7666 28.9899 45.4441 27.4026C45.3733 26.6739 45.2091 25.9572 44.9554 25.27C44.9554 25.27 44.9554 25.2018 44.9554 25.1726C44.8675 24.8123 43.8902 24.9681 43.9782 25.3284C43.9782 25.494 43.9782 25.4064 44.0466 25.6401C44.115 25.8738 44.2127 26.3509 44.2909 26.7112C44.6036 28.094 44.8968 29.4865 45.19 30.8693C46.291 36.1992 47.2976 41.5291 48.2097 46.859C49.6658 55.2823 50.9363 63.7056 52.0699 72.1776C53.5618 83.3308 54.8062 94.4937 55.803 105.666C57.0343 119.202 57.9237 132.744 58.4709 146.293C58.5491 148.124 58.6175 149.954 58.6859 151.785C58.6859 152.155 59.712 152.155 59.6632 151.785L59.6534 151.756Z" fill="#1D7256"/>
<path d="M46.1282 67.4448C47.3037 68.4926 48.365 69.6612 49.2945 70.931C51.3359 73.5219 52.6813 76.5884 53.2035 79.8412C53.2719 80.2989 53.9755 80.1041 53.9169 79.6464C53.38 76.3343 52.0156 73.2099 49.9492 70.5609C48.9862 69.2383 47.8856 68.0208 46.6656 66.9287C46.3041 66.6268 45.7861 67.1429 46.1477 67.4448H46.1282Z" fill="#1D7256"/>
<path d="M54.8161 58.6124C54.1496 59.4942 53.6375 60.4819 53.3013 61.5338C52.2913 64.6027 51.867 67.8329 52.0505 71.0575C52.0505 71.5249 52.8029 71.5346 52.7834 71.0575C52.6061 67.9365 53.0103 64.8099 53.9756 61.8356C54.2325 61.1078 54.5598 60.4066 54.9529 59.742C55.0604 59.5667 55.1679 59.3914 55.2852 59.2259L55.334 59.148C55.637 58.7877 55.119 58.2716 54.8161 58.6319V58.6124Z" fill="#1D7256"/>
<path d="M41.281 51.6597C42.6482 52.8128 43.9075 54.0872 45.0434 55.4673C47.7762 58.6415 49.9325 62.2664 51.4151 66.179C51.5715 66.6172 52.2849 66.4224 52.1187 65.9842C50.6426 62.0423 48.4972 58.3828 45.7763 55.1654C44.5824 53.6836 43.2507 52.3175 41.7989 51.0852C41.4373 50.793 40.9096 51.3092 41.281 51.611V51.6597Z" fill="#1D7256"/>
<path d="M52.8126 42.7592C52.2676 44.2429 51.8396 45.7666 51.5324 47.3166C50.7047 51.0741 50.2983 54.9117 50.3206 58.7586C50.3349 58.8452 50.3795 58.924 50.4467 58.9808C50.5138 59.0376 50.599 59.0688 50.6871 59.0688C50.7752 59.0688 50.8604 59.0376 50.9275 58.9808C50.9946 58.924 51.0393 58.8452 51.0536 58.7586C51.0302 54.9111 51.4399 51.0731 52.2751 47.3166C52.5844 45.8349 52.9991 44.377 53.5163 42.954C53.6922 42.506 52.9788 42.321 52.8126 42.7592V42.7592Z" fill="#1D7256"/>
<path d="M40.9781 37.9292C42.1038 38.9016 43.1315 39.9811 44.0467 41.1525C46.1934 43.746 47.7952 46.7429 48.7571 49.9653C48.783 50.0583 48.8449 50.1372 48.9292 50.1846C49.0135 50.2321 49.1133 50.2443 49.2066 50.2185C49.2999 50.1926 49.3791 50.1309 49.4267 50.0469C49.4744 49.9629 49.4866 49.8635 49.4607 49.7705C48.4882 46.521 46.8844 43.4936 44.7405 40.8603C43.7807 39.6003 42.6935 38.4419 41.496 37.4034C41.1442 37.1112 40.6165 37.6176 40.9781 37.9292V37.9292Z" fill="#1D7256"/>
<path d="M48.415 30.5871C48.0213 31.3405 47.7414 32.1477 47.5843 32.9826C47.0769 35.3924 46.9484 37.8661 47.2032 40.3153C47.2032 40.7827 47.9752 40.7924 47.9361 40.3153C47.6811 37.9322 47.7998 35.5241 48.2879 33.1774C48.4323 32.4043 48.6891 31.6563 49.0502 30.9571C49.0845 30.8745 49.0877 30.7823 49.0591 30.6976C49.0304 30.6128 48.972 30.5413 48.8945 30.4961C48.8171 30.451 48.7258 30.4354 48.6377 30.4521C48.5495 30.4688 48.4704 30.5168 48.415 30.5871V30.5871Z" fill="#1D7256"/>
<path d="M53.9951 88.3912C68.4389 48.4657 43.9 21.0534 43.9 21.0534C43.9 21.0534 63.6797 54.8245 53.9951 88.3912Z" fill="#62BD71"/>
<path d="M51.4151 113.135C51.4151 113.135 51.1415 80.8441 26.0065 80.5324C25.9771 80.5324 28.7525 109.727 51.4151 113.135Z" fill="#55A261"/>
<path d="M25.9772 80.5324C25.9772 80.5324 50.6333 89.7153 51.3858 113.135C51.4152 113.135 51.1415 80.8441 25.9772 80.5324Z" fill="#62BD71"/>
<path d="M28.1369 83.5024C29.1942 84.1535 30.2034 84.8792 31.1566 85.674C33.769 87.7848 36.183 90.1284 38.3688 92.6755C41.6448 96.4733 44.4684 100.636 46.7829 105.082C49.8021 110.87 52.0336 117.033 53.4185 123.408C55.1624 131.57 55.8 139.929 55.3144 148.26C55.2557 149.435 55.1776 150.613 55.0799 151.794C55.0799 152.165 56.0571 152.165 56.0571 151.794C56.836 143.164 56.4481 134.468 54.904 125.94C53.695 119.309 51.598 112.87 48.6691 106.796C46.3984 102.1 43.5808 97.6879 40.2744 93.6493C37.9975 90.8508 35.4582 88.2748 32.6909 85.9564C31.87 85.265 31.0003 84.5931 30.0914 83.9406C29.7117 83.6292 29.3026 83.3553 28.8698 83.1226H28.821C28.3617 82.85 27.6483 83.259 28.0978 83.5316L28.1369 83.5024Z" fill="#1D7256"/>
<path d="M39.2386 103.796C40.4569 103.879 41.6577 104.131 42.8056 104.546C45.3034 105.338 47.4548 106.956 48.9037 109.133C49.1577 109.532 49.793 109.133 49.5389 108.763C48.4765 107.223 47.0957 105.928 45.4894 104.963C43.8831 103.999 42.0883 103.389 40.2256 103.173C39.9022 103.119 39.5759 103.083 39.2484 103.066C38.7793 103.066 38.7793 103.777 39.2484 103.796H39.2386Z" fill="#1D7256"/>
<path d="M42.1703 90.9233C42.9912 94.4484 43.861 97.9638 44.8284 101.45C44.8609 101.536 44.9247 101.608 45.0072 101.65C45.0897 101.692 45.185 101.702 45.2744 101.677C45.3638 101.653 45.4408 101.596 45.4903 101.518C45.5398 101.44 45.5582 101.346 45.5418 101.255C44.5646 97.769 43.6948 94.2536 42.8739 90.7285C42.7762 90.2708 42.0628 90.4656 42.1703 90.9233Z" fill="#1D7256"/>
<path d="M32.6421 94.5455C32.8668 94.5455 33.2773 94.4676 33.6193 94.4481C34.4976 94.4072 35.3779 94.4496 36.2481 94.5747C38.8327 94.9112 41.1791 96.2518 42.7762 98.3044C43.0499 98.6841 43.6851 98.3044 43.4114 97.9441C42.1247 96.3358 40.4251 95.1046 38.493 94.3811C36.5608 93.6576 34.468 93.4687 32.4368 93.8346C31.9678 93.9126 32.1632 94.6234 32.6323 94.5455H32.6421Z" fill="#1D7256"/>
<path d="M33.5119 83.6977C34.9006 86.7208 36.5348 89.6259 38.3981 92.3839C38.662 92.7637 39.2972 92.3839 39.0333 92.0139C37.17 89.2558 35.5358 86.3508 34.1471 83.3277C33.9418 82.9089 33.3066 83.3277 33.5119 83.6977V83.6977Z" fill="#1D7256"/>
<path d="M28.4986 86.4142H28.6451L29.124 86.5019C29.6785 86.6116 30.2266 86.7514 30.7658 86.9206C32.413 87.4162 33.9491 88.2229 35.2905 89.2967C35.6521 89.5985 36.1798 89.0824 35.8084 88.7806C33.7269 87.0817 31.207 86.0017 28.5377 85.6644C28.0783 85.6157 28.0783 86.3461 28.5377 86.3948L28.4986 86.4142Z" fill="#1D7256"/>
<path d="M27.9805 131.754L32.5639 168.943C32.5819 174.405 34.7674 179.638 38.6433 183.5C42.5193 187.363 47.771 189.54 53.2524 189.558H76.0615C81.5505 189.553 86.8137 187.381 90.6987 183.517C94.5836 179.653 96.7736 174.413 96.7891 168.943L102.516 131.754H27.9805Z" fill="#A3D9D3"/>
<path d="M101.079 146.536C99.0076 148.834 96.939 151.129 94.8738 153.421L88.6682 146.536C88.3443 146.217 87.9071 146.038 87.4515 146.038C86.9959 146.038 86.5587 146.217 86.2348 146.536L80.039 153.421L73.8432 146.536C73.5193 146.217 73.0821 146.038 72.6265 146.038C72.1709 146.038 71.7337 146.217 71.4098 146.536L65.214 153.421L59.0182 146.536C58.6944 146.217 58.2572 146.038 57.8015 146.038C57.3459 146.038 56.9087 146.217 56.5848 146.536L50.389 153.421L44.1932 146.536C43.8694 146.217 43.4322 146.038 42.9766 146.038C42.5209 146.038 42.0837 146.217 41.7599 146.536L35.5738 153.421L29.3585 146.536C27.8731 144.881 25.4495 147.315 26.9154 148.961L34.3229 157.209C34.6468 157.528 35.084 157.707 35.5397 157.707C35.9953 157.707 36.4325 157.528 36.7563 157.209L42.9521 150.324L49.1382 157.209C49.4649 157.527 49.9033 157.704 50.3597 157.704C50.8162 157.704 51.2546 157.527 51.5813 157.209C53.6466 154.911 55.7118 152.616 57.7771 150.324L63.9631 157.209C64.2899 157.527 64.7282 157.704 65.1847 157.704C65.6412 157.704 66.0796 157.527 66.4063 157.209L72.6021 150.324L78.7881 157.209C79.1148 157.527 79.5532 157.704 80.0097 157.704C80.4661 157.704 80.9045 157.527 81.2312 157.209L87.4271 150.315L93.6229 157.209C93.9496 157.527 94.388 157.704 94.8444 157.704C95.3009 157.704 95.7393 157.527 96.066 157.209L103.483 148.961C104.988 147.325 102.565 144.881 101.079 146.536Z" fill="white"/>
<path d="M101.079 159.088C99.0076 161.386 96.939 163.681 94.8738 165.973L88.6682 159.088C88.3443 158.769 87.9071 158.59 87.4515 158.59C86.9959 158.59 86.5587 158.769 86.2348 159.088L80.039 165.973L73.8432 159.088C73.5193 158.769 73.0821 158.59 72.6265 158.59C72.1709 158.59 71.7337 158.769 71.4098 159.088L65.214 165.973L59.0182 159.088C58.6944 158.769 58.2572 158.59 57.8015 158.59C57.3459 158.59 56.9087 158.769 56.5848 159.088L50.389 165.973L44.1932 159.088C43.8694 158.769 43.4322 158.59 42.9766 158.59C42.5209 158.59 42.0837 158.769 41.7599 159.088L35.5738 165.973L29.3585 159.088C27.8731 157.433 25.4495 159.867 26.9154 161.513L34.3229 169.761C34.6468 170.08 35.084 170.259 35.5397 170.259C35.9953 170.259 36.4325 170.08 36.7563 169.761L42.9521 162.876L49.1382 169.761C49.4649 170.079 49.9033 170.256 50.3597 170.256C50.8162 170.256 51.2546 170.079 51.5813 169.761C53.6466 167.463 55.7118 165.168 57.7771 162.876L63.9631 169.761C64.2899 170.079 64.7282 170.256 65.1847 170.256C65.6412 170.256 66.0796 170.079 66.4063 169.761L72.6021 162.876L78.7881 169.761C79.1148 170.079 79.5532 170.256 80.0097 170.256C80.4661 170.256 80.9045 170.079 81.2312 169.761L87.4271 162.867L93.6229 169.761C93.9496 170.079 94.388 170.256 94.8444 170.256C95.3009 170.256 95.7393 170.079 96.066 169.761L103.483 161.513C104.988 159.877 102.565 157.433 101.079 159.088Z" fill="white"/>
<path opacity="0.1" d="M86.0394 131.754L80.3127 168.943C80.2973 174.401 78.1166 179.631 74.2465 183.493C70.3763 187.355 65.1306 189.535 59.6535 189.558H76.1105C81.591 189.54 86.8417 187.362 90.7161 183.5C94.5905 179.637 96.7738 174.404 96.7892 168.943L102.516 131.754H86.0394Z" fill="#4F2882"/>
<path d="M105.467 130.615H25V137.694H105.467V130.615Z" fill="#7EB9B2"/>
</g>
<defs>
<clipPath id="clip0_76_1292">
<rect width="95.3607" height="189.558" fill="white" transform="translate(25)"/>
</clipPath>
</defs>
</svg>
