<svg width="173" height="226" viewBox="0 0 173 226" fill="none" xmlns="http://www.w3.org/2000/svg">
<g clip-path="url(#clip0_76_890)">
<path d="M149.841 15.4483C147.996 17.5236 146.26 19.6941 144.642 21.9508C140.111 28.1192 135.959 34.5566 132.207 41.2273C126.278 51.7207 121.072 62.606 116.623 73.8073C110.667 88.7528 105.835 104.122 102.166 119.786C97.5728 139.45 94.5273 159.444 93.0567 179.584C92.8395 182.407 92.6495 185.217 92.5002 188.041C92.4323 189.249 94.2921 189.249 94.3599 188.041C96.4641 151.008 103.292 113.908 116.514 79.0609C123.804 59.9337 132.994 41.2273 145.022 24.5707C146.909 21.8399 148.958 19.2243 151.158 16.738C151.972 15.8556 150.656 14.5252 149.8 15.3805L149.841 15.4483Z" fill="#1D7256"/>
<path d="M145.47 22.0457C145.853 19.4279 146.689 16.8968 147.941 14.5659C149.066 12.3965 150.432 10.361 152.013 8.49783C153.621 6.62968 155.444 4.95748 157.443 3.5158C159.562 1.92566 161.948 0.725885 164.489 -0.0272827C164.118 2.59598 163.286 5.13294 162.031 7.46611C160.888 9.63618 159.499 11.6677 157.891 13.5206C156.276 15.3819 154.454 17.0534 152.461 18.5026C150.355 20.082 147.989 21.2811 145.47 22.0457V22.0457Z" fill="#1D7256"/>
<path d="M140.664 28.5754C142.703 27.0852 144.919 25.854 147.262 24.9102C149.517 23.9857 151.835 23.2236 154.199 22.6296C156.567 22.0345 158.976 21.617 161.407 21.3807C163.919 21.1198 166.454 21.17 168.955 21.53C166.915 23.0198 164.699 24.251 162.357 25.1953C157.836 27.0575 153.065 28.2423 148.198 28.7112C145.691 28.9842 143.16 28.9386 140.664 28.5754V28.5754Z" fill="#1D7256"/>
<path d="M141.262 28.8333C139.369 26.9784 137.824 24.799 136.7 22.3988C134.542 17.9775 133.427 13.1195 133.442 8.19932C133.426 5.54617 133.886 2.91161 134.8 0.420837C136.689 2.27681 138.237 4.45015 139.375 6.84181C141.506 11.2764 142.611 16.1346 142.606 21.0549C142.613 23.7061 142.159 26.3384 141.262 28.8333V28.8333Z" fill="#1D7256"/>
<path d="M133.918 39.4625C135.9 37.7058 138.168 36.3009 140.624 35.3085C142.897 34.3896 145.264 33.7205 147.683 33.313C150.104 32.9116 152.564 32.7886 155.013 32.9465C157.661 33.0965 160.262 33.7123 162.697 34.7655C160.722 36.5356 158.452 37.9461 155.991 38.9331C153.723 39.8663 151.354 40.5314 148.932 40.915C146.509 41.3119 144.05 41.4303 141.601 41.268C138.954 41.1229 136.353 40.5117 133.918 39.4625Z" fill="#1D7256"/>
<path d="M133.958 39.2859C132.244 37.357 130.825 35.1839 129.75 32.8377C128.716 30.6198 127.889 28.3114 127.279 25.9416C126.661 23.5775 126.275 21.1588 126.126 18.7197C125.938 16.1424 126.144 13.5515 126.736 11.0363C128.461 12.9602 129.885 15.1342 130.958 17.4844C133.027 21.9248 134.248 26.7132 134.556 31.6024C134.754 34.179 134.553 36.7709 133.958 39.2859V39.2859Z" fill="#1D7256"/>
<path d="M128.297 49.3178C130.55 48.1327 132.952 47.256 135.438 46.7114C140.206 45.6137 145.121 45.2974 149.99 45.7748C152.521 46.0021 155.009 46.5683 157.389 47.4581C155.143 48.6468 152.745 49.5237 150.262 50.0645C145.492 51.1487 140.578 51.4604 135.709 50.9876C133.175 50.7652 130.682 50.2036 128.297 49.3178V49.3178Z" fill="#1D7256"/>
<path d="M129.139 50.4039C127.039 48.7932 125.238 46.8268 123.818 44.5938C122.476 42.5357 121.374 40.3314 120.533 38.0235C119.68 35.7238 119.101 33.3317 118.809 30.8966C118.458 28.2674 118.578 25.5969 119.161 23.0095C121.272 24.6177 123.079 26.5899 124.496 28.8332C125.841 30.8824 126.939 33.0832 127.768 35.3899C128.608 37.6972 129.182 40.0929 129.478 42.5304C129.827 45.1545 129.712 47.8195 129.139 50.4039V50.4039Z" fill="#1D7256"/>
<path d="M122.012 63.0422C123.778 61.0619 125.877 59.4077 128.216 58.1552C130.363 56.9673 132.641 56.0334 135.004 55.3723C137.362 54.698 139.789 54.2972 142.239 54.1777C144.885 54.0278 147.536 54.3449 150.072 55.1144C148.312 57.098 146.216 58.7568 143.882 60.015C141.73 61.1752 139.453 62.0861 137.094 62.73C134.729 63.3921 132.298 63.7883 129.845 63.911C127.204 64.0767 124.553 63.7828 122.012 63.0422Z" fill="#1D7256"/>
<path d="M122.297 62.7707C120.478 60.9835 118.911 58.9555 117.641 56.7434C116.408 54.6347 115.35 52.4281 114.478 50.1459C113.605 47.8626 112.924 45.5105 112.442 43.1141C111.912 40.6217 111.734 38.0674 111.912 35.5256C113.721 37.3246 115.27 39.367 116.514 41.5937C118.986 45.799 120.738 50.3869 121.7 55.1687C122.247 57.6632 122.448 60.2213 122.297 62.7707V62.7707Z" fill="#1D7256"/>
<path d="M116.514 76.7396C118.409 75.0146 120.545 73.5742 122.854 72.4635C127.243 70.2922 131.981 68.9135 136.85 68.391C139.393 68.0814 141.969 68.1501 144.492 68.5946C142.6 70.3266 140.464 71.7718 138.153 72.8843C133.764 75.0564 129.026 76.4352 124.157 76.9568C121.612 77.2554 119.038 77.1823 116.514 76.7396V76.7396Z" fill="#1D7256"/>
<path d="M117.288 76.7937C115.003 75.4534 112.968 73.7263 111.274 71.6895C109.692 69.8125 108.326 67.7634 107.202 65.5808C106.068 63.4055 105.193 61.1046 104.596 58.7254C103.92 56.1591 103.704 53.4935 103.957 50.8519C106.256 52.1952 108.301 53.9321 109.998 55.9832C111.59 57.8534 112.957 59.9036 114.071 62.092C115.187 64.2786 116.056 66.5824 116.664 68.9609C117.325 71.5159 117.536 74.1663 117.288 76.7937V76.7937Z" fill="#1D7256"/>
<path d="M112.265 89.0112C113.673 87.0843 115.404 85.417 117.383 84.0835C119.202 82.84 121.156 81.8062 123.207 81.0019C125.257 80.19 127.393 79.6161 129.573 79.2915C131.93 78.9234 134.334 78.9739 136.673 79.4408C135.273 81.3694 133.546 83.0373 131.569 84.3686C129.744 85.6094 127.786 86.643 125.732 87.4501C123.681 88.2532 121.545 88.818 119.365 89.1334C117.009 89.5046 114.607 89.4632 112.265 89.0112Z" fill="#1D7256"/>
<path d="M112.265 88.8347C110.39 87.4682 108.733 85.825 107.351 83.9612C106.021 82.2097 104.857 80.3372 103.876 78.3683C102.886 76.4052 102.091 74.3501 101.5 72.2324C100.845 70.0077 100.534 67.6959 100.577 65.3771C102.459 66.7349 104.121 68.374 105.505 70.2369C106.837 71.9873 108.001 73.8599 108.98 75.8298C109.958 77.8015 110.748 79.8603 111.342 81.9793C111.998 84.204 112.309 86.5159 112.265 88.8347V88.8347Z" fill="#1D7256"/>
<path d="M99.8035 188.828C99.3963 182.394 100.781 175.647 102.41 169.484C106.754 153.044 115.605 138.031 126.845 125.392C136.475 114.815 147.521 105.619 159.669 98.0657C160.674 97.4141 159.669 95.7987 158.719 96.4503C139.28 108.79 121.809 124.836 110.419 145.035C103.875 156.339 99.7169 168.864 98.2017 181.837C97.9166 184.138 97.8212 186.458 97.9166 188.774C97.9845 189.969 99.8578 189.969 99.79 188.774L99.8035 188.828Z" fill="#55A261"/>
<path d="M148.578 104.31C149.943 102.158 151.597 100.203 153.493 98.5004C155.287 96.8437 157.216 95.3406 159.262 94.007C161.305 92.6687 163.457 91.5061 165.697 90.5318C168.021 89.484 170.478 88.7622 173 88.387C171.643 90.5454 169.994 92.5053 168.099 94.2107C164.49 97.5134 160.362 100.201 155.882 102.166C153.558 103.213 151.1 103.935 148.578 104.31Z" fill="#55A261"/>
<path d="M142.809 109.062C145.055 107.932 147.465 107.163 149.95 106.781C154.646 105.992 159.451 106.131 164.095 107.188C166.557 107.723 168.92 108.639 171.099 109.903C168.851 111.045 166.437 111.824 163.945 112.211C161.605 112.6 159.231 112.755 156.859 112.673C154.483 112.603 152.119 112.303 149.8 111.777C147.342 111.244 144.983 110.328 142.809 109.062V109.062Z" fill="#55A261"/>
<path d="M142.171 110.188C142.02 107.919 142.147 105.639 142.551 103.401C142.908 101.239 143.425 99.106 144.099 97.0206C144.749 94.9265 145.557 92.8844 146.515 90.9118C147.478 88.8596 148.686 86.9314 150.112 85.1696C150.265 87.4391 150.137 89.7187 149.732 91.9571C149.376 94.1237 148.858 96.2609 148.185 98.3509C147.521 100.438 146.709 102.475 145.755 104.446C144.792 106.495 143.589 108.423 142.171 110.188V110.188Z" fill="#55A261"/>
<path d="M136.47 114.532C138.416 114.133 140.403 113.964 142.388 114.03C146.234 114.13 150.045 114.775 153.71 115.944C155.611 116.534 157.434 117.35 159.14 118.374C157.194 118.773 155.207 118.942 153.221 118.876C151.301 118.823 149.386 118.632 147.493 118.306C145.6 117.981 143.731 117.527 141.9 116.949C140.002 116.358 138.179 115.547 136.47 114.532V114.532Z" fill="#55A261"/>
<path d="M137.067 114.465C136.197 112.435 135.648 110.283 135.438 108.084C135.241 106.012 135.241 103.926 135.438 101.853C135.623 99.7799 136.009 97.7294 136.592 95.7311C137.179 93.6102 138.095 91.5946 139.307 89.7581C140.183 91.781 140.732 93.9298 140.936 96.1247C141.383 100.276 141.005 104.474 139.823 108.478C139.221 110.605 138.291 112.625 137.067 114.465V114.465Z" fill="#55A261"/>
<path d="M130.85 119.392C129.373 117.549 128.192 115.488 127.347 113.283C126.532 111.211 125.919 109.066 125.515 106.876C125.105 104.683 124.914 102.455 124.944 100.224C124.952 97.8626 125.332 95.5169 126.071 93.2738C127.547 95.1168 128.729 97.1776 129.574 99.3826C131.214 103.538 132.026 107.974 131.963 112.442C131.953 114.802 131.578 117.147 130.85 119.392Z" fill="#55A261"/>
<path d="M131.107 119.284C133.353 118.56 135.698 118.189 138.058 118.184C140.288 118.162 142.516 118.353 144.71 118.754C146.901 119.159 149.047 119.777 151.117 120.601C153.321 121.445 155.378 122.632 157.212 124.116C154.969 124.853 152.623 125.225 150.262 125.216C148.031 125.253 145.802 125.062 143.61 124.646C141.42 124.235 139.275 123.617 137.203 122.8C135.004 121.944 132.949 120.759 131.107 119.284Z" fill="#55A261"/>
<path d="M124.496 127.524C123.02 125.681 121.839 123.62 120.994 121.415C119.358 117.258 118.542 112.823 118.591 108.356C118.606 105.995 118.986 103.65 119.718 101.405C121.204 103.242 122.386 105.304 123.22 107.514C124.047 109.582 124.662 111.729 125.053 113.921C125.45 116.116 125.636 118.343 125.61 120.573C125.607 122.934 125.231 125.28 124.496 127.524Z" fill="#55A261"/>
<path d="M124.754 127.415C127 126.691 129.345 126.32 131.705 126.315C136.172 126.266 140.607 127.082 144.764 128.718C146.967 129.57 149.024 130.761 150.859 132.248C148.616 132.985 146.27 133.356 143.909 133.347C141.678 133.372 139.45 133.176 137.257 132.763C135.068 132.357 132.922 131.744 130.85 130.931C128.651 130.075 126.596 128.89 124.754 127.415Z" fill="#55A261"/>
<path d="M117.75 137.053C116.105 135.37 114.731 133.443 113.677 131.338C112.621 129.384 111.752 127.334 111.084 125.216C110.455 123.076 110.036 120.88 109.835 118.659C109.588 116.31 109.717 113.936 110.216 111.627C111.865 113.306 113.239 115.235 114.288 117.342C116.347 121.304 117.615 125.629 118.021 130.076C118.292 132.402 118.201 134.755 117.75 137.053Z" fill="#55A261"/>
<path d="M116.514 136.076C118.713 135.361 120.994 134.928 123.302 134.786C125.516 134.623 127.739 134.623 129.954 134.786C132.166 134.957 134.363 135.298 136.524 135.804C138.774 136.3 140.95 137.085 142.999 138.139C140.802 138.861 138.52 139.294 136.212 139.429C133.998 139.605 131.774 139.605 129.56 139.429C127.348 139.251 125.152 138.911 122.99 138.411C120.743 137.902 118.568 137.118 116.514 136.076V136.076Z" fill="#55A261"/>
<path d="M112.686 145.049C110.842 143.574 109.239 141.82 107.935 139.85C106.689 138.002 105.626 136.038 104.758 133.985C103.882 131.939 103.209 129.811 102.749 127.632C102.242 125.325 102.1 122.952 102.328 120.6C104.184 122.068 105.792 123.824 107.093 125.8C109.589 129.499 111.341 133.649 112.252 138.017C112.756 140.325 112.902 142.697 112.686 145.049V145.049Z" fill="#55A261"/>
<path d="M111.274 144.221C113.368 143.26 115.576 142.571 117.845 142.171C122.216 141.339 126.687 141.175 131.107 141.682C133.401 141.919 135.655 142.448 137.813 143.257C135.72 144.222 133.512 144.916 131.243 145.321C126.871 146.139 122.4 146.299 117.98 145.796C115.689 145.546 113.437 145.018 111.274 144.221V144.221Z" fill="#55A261"/>
<path d="M107.283 155.868C105.164 154.82 103.221 153.446 101.527 151.796C99.9124 150.256 98.4486 148.565 97.1563 146.746C95.8635 144.933 94.754 142.996 93.844 140.963C92.848 138.816 92.1974 136.525 91.9164 134.175C94.0357 135.224 95.9778 136.598 97.6722 138.248C99.2939 139.776 100.758 141.464 102.043 143.284C103.333 145.104 104.443 147.045 105.356 149.081C106.345 151.23 106.995 153.52 107.283 155.868V155.868Z" fill="#55A261"/>
<path d="M105.736 155.393C107.578 154.01 109.584 152.861 111.709 151.972C113.751 151.098 115.856 150.381 118.008 149.827C120.155 149.267 122.343 148.877 124.551 148.66C126.839 148.394 129.153 148.426 131.433 148.755C129.6 150.15 127.592 151.301 125.46 152.176C121.372 153.924 117.042 155.041 112.618 155.488C110.329 155.748 108.017 155.716 105.736 155.393V155.393Z" fill="#55A261"/>
<path d="M60.0965 18.272C65.5265 23.702 69.7619 30.4895 73.5765 37.0462C83.707 54.8991 90.6482 74.3812 94.0884 94.6178C96.9586 111.101 98.0328 127.846 97.2921 144.56C97.2921 145.768 99.1383 145.022 99.1926 143.814C100.265 116.664 97.0884 89.7987 87.9932 64.0469C83.0121 49.3563 75.7761 35.53 66.5447 23.0639C64.9651 20.9169 63.2513 18.8721 61.4133 16.9416C61.2333 16.7616 60.9891 16.6605 60.7346 16.6605C60.48 16.6605 60.2358 16.7616 60.0558 16.9416C59.8758 17.1216 59.7746 17.3658 59.7746 17.6204C59.7746 17.8749 59.8758 18.1191 60.0558 18.2991L60.0965 18.272Z" fill="#3C8A59"/>
<path d="M68.2687 26.5798C65.763 25.7124 63.4289 24.4121 61.3726 22.7381C57.5345 19.6616 54.4396 15.7593 52.318 11.3215C51.1557 8.9356 50.4293 6.36107 50.1732 3.71948C52.6789 4.58691 55.0129 5.8872 57.0693 7.56121C58.9883 9.08871 60.7239 10.8334 62.2414 12.7604C63.755 14.6896 65.0524 16.7791 66.1103 18.9914C67.2693 21.3747 67.9999 23.9433 68.2687 26.5798V26.5798Z" fill="#3C8A59"/>
<path d="M73.5223 35.9059C73.1359 33.409 73.0585 30.874 73.2915 28.3582C73.4972 25.9302 73.8829 23.5208 74.4454 21.1499C74.9971 18.7707 75.7323 16.4378 76.6446 14.1723C77.5478 11.8142 78.7524 9.58298 80.2283 7.53412C80.6216 10.0304 80.6991 12.5662 80.4591 15.0818C80.2535 17.5098 79.8678 19.9192 79.3053 22.2902C78.7391 24.6654 78.0042 26.9972 77.1061 29.2677C76.1861 31.6181 74.9826 33.8473 73.5223 35.9059V35.9059Z" fill="#3C8A59"/>
<path d="M73.9296 35.2001C71.4256 35.6092 68.8781 35.6823 66.3547 35.4173C63.9225 35.1941 61.512 34.7765 59.1464 34.1683C56.7816 33.5685 54.4705 32.7739 52.2367 31.7927C49.8941 30.8039 47.6937 29.5074 45.6936 27.9374C48.2022 27.5287 50.7541 27.4556 53.282 27.7202C58.1503 28.1814 62.9151 29.4092 67.4 31.3583C69.7378 32.3427 71.9337 33.6347 73.9296 35.2001V35.2001Z" fill="#3C8A59"/>
<path d="M80.4456 48.5712C79.8993 46.1033 79.6622 43.5771 79.7397 41.0506C79.7972 38.6113 80.0331 36.1794 80.4456 33.7744C80.8494 31.3715 81.4348 29.0027 82.1968 26.6883C82.9603 24.3013 84.023 22.0206 85.3597 19.9008C85.906 22.3686 86.1431 24.8949 86.0657 27.4213C85.9504 32.304 85.1179 37.1432 83.595 41.7837C82.8281 44.167 81.7703 46.4467 80.4456 48.5712V48.5712Z" fill="#3C8A59"/>
<path d="M80.9615 48.1368C78.4998 49.117 75.8857 49.6591 73.2373 49.7387C70.785 49.834 68.33 49.6473 65.9204 49.1821C63.5082 48.7358 61.1571 48.0067 58.9156 47.0101C56.4813 45.963 54.2521 44.4922 52.3317 42.6661C54.7915 41.6797 57.4068 41.1373 60.0559 41.0642C62.5082 40.9683 64.9633 41.1551 67.3728 41.6208C69.7988 42.0691 72.1666 42.7886 74.4319 43.7657C76.8423 44.8387 79.0508 46.3172 80.9615 48.1368Z" fill="#3C8A59"/>
<path d="M85.6447 62.8523C85.1393 60.3095 85.034 57.7034 85.3325 55.1281C85.8592 50.2522 87.3203 45.5234 89.6358 41.2002C90.846 38.9076 92.4079 36.8189 94.2648 35.0099C94.77 37.5528 94.8754 40.1588 94.5771 42.7341C94.3198 45.166 93.8242 47.5668 93.0974 49.9017C92.3701 52.2495 91.4201 54.5223 90.2602 56.6893C89.0446 58.9667 87.4881 61.045 85.6447 62.8523V62.8523Z" fill="#3C8A59"/>
<path d="M86.6494 62.6892C84.0832 63.3392 81.4226 63.5321 78.7894 63.2593C73.8816 62.8176 69.1403 61.2573 64.9294 58.6981C62.6486 57.346 60.6261 55.5993 58.9564 53.5396C61.5253 52.8787 64.1915 52.681 66.8299 52.9559C71.7296 53.4142 76.4605 54.9834 80.6628 57.5443C82.9443 58.8953 84.9707 60.6367 86.6494 62.6892V62.6892Z" fill="#3C8A59"/>
<path d="M90.0159 76.7122C89.7647 74.1349 89.9111 71.5344 90.4503 69.0016C90.9386 66.6016 91.6615 64.2555 92.6087 61.9969C93.5463 59.7382 94.7058 57.5783 96.0703 55.5488C97.4841 53.3763 99.2345 51.4426 101.256 49.8201C101.525 52.4009 101.383 55.008 100.835 57.5443C100.347 59.9398 99.6238 62.2815 98.6767 64.5354C97.7291 66.7919 96.5652 68.9513 95.2015 70.9836C93.7877 73.1561 92.0373 75.0898 90.0159 76.7122V76.7122Z" fill="#3C8A59"/>
<path d="M91.0883 76.6581C88.4683 77.0553 85.799 76.991 83.2012 76.468C78.3656 75.5515 73.8022 73.546 69.857 70.6036C67.7239 69.0339 65.8855 67.0991 64.427 64.8885C67.0453 64.4738 69.7169 64.5336 72.3141 65.065C77.1483 65.9879 81.7079 68.003 85.6447 70.9566C87.7787 72.5242 89.6211 74.4539 91.0883 76.6581V76.6581Z" fill="#3C8A59"/>
<path d="M94.713 93.2059C94.7077 90.8043 95.0835 88.4171 95.8261 86.1333C96.4995 83.9734 97.3768 81.8825 98.4461 79.8888C99.5197 77.8948 100.788 76.0123 102.234 74.2687C103.738 72.401 105.53 70.7836 107.541 69.4767C107.545 71.8771 107.174 74.2633 106.442 76.5493C105.773 78.7108 104.886 80.7985 103.795 82.7802C102.721 84.7742 101.452 86.6567 100.007 88.4003C98.5007 90.2655 96.7149 91.8865 94.713 93.2059V93.2059Z" fill="#3C8A59"/>
<path d="M95.6902 93.2331C93.2454 93.3633 90.7966 93.0647 88.4547 92.3508C86.2792 91.6796 84.1849 90.7691 82.2102 89.6358C80.2245 88.5303 78.3786 87.1903 76.7123 85.6447C74.8858 84.0071 73.3644 82.0582 72.219 79.8889C74.6683 79.7579 77.1217 80.0566 79.4681 80.7713C83.8349 82.0694 87.8468 84.3493 91.1969 87.4366C93.026 89.0875 94.5474 91.0502 95.6902 93.2331Z" fill="#3C8A59"/>
<path d="M34.8064 74.7441C35.2 75.0428 35.2408 75.0835 35.8245 75.5586C36.8969 76.4274 37.915 77.3505 38.9196 78.2736C42.706 81.8788 46.2012 85.7779 49.3724 89.9346C61.0061 105.044 69.0425 122.745 74.2961 141.004C78.6644 156.6 81.3048 172.628 82.1696 188.801C82.2375 189.996 84.1108 189.996 84.0429 188.801C82.4954 162.737 77.0925 136.66 65.6895 113.053C59.4857 100.238 51.49 87.9255 41.2545 77.9207C39.5354 76.1789 37.6886 74.568 35.7294 73.1015C34.752 72.3956 33.8154 74.0246 34.7928 74.717L34.8064 74.7441Z" fill="#55A261"/>
<path d="M42.9242 81.3413C40.3072 80.9204 37.7845 80.0428 35.4714 78.7484C31.1642 76.3935 27.4501 73.088 24.6114 69.083C23.0519 66.9336 21.8846 64.5255 21.1634 61.9697C23.7844 62.384 26.3118 63.2571 28.6297 64.549C30.7863 65.7248 32.7997 67.146 34.6298 68.7844C36.4583 70.4044 38.0977 72.2259 39.5168 74.2144C41.0621 76.3716 42.2155 78.784 42.9242 81.3413V81.3413Z" fill="#55A261"/>
<path d="M50.6212 91.5228C49.7929 89.2146 49.2903 86.8022 49.128 84.3552C48.7589 79.6642 49.1671 74.9445 50.3362 70.3865C50.9247 68.0099 51.8383 65.7259 53.0512 63.599C53.8903 65.9095 54.3976 68.3273 54.558 70.7802C54.7549 73.12 54.7549 75.4722 54.558 77.812C54.3474 80.1483 53.9479 82.4636 53.3634 84.7353C52.7627 87.1121 51.8401 89.3957 50.6212 91.5228V91.5228Z" fill="#55A261"/>
<path d="M50.757 89.0929C48.5514 90.1663 46.2078 90.9292 43.793 91.3599C39.1676 92.2374 34.4285 92.3383 29.77 91.6585C27.3416 91.3247 24.9708 90.6578 22.7246 89.6766C24.9289 88.5972 27.2727 87.8297 29.6886 87.396C31.9957 86.9678 34.3337 86.7271 36.6797 86.6765C39.032 86.6299 41.3841 86.7798 43.7115 87.1245C46.1394 87.4534 48.5102 88.1158 50.757 89.0929V89.0929Z" fill="#55A261"/>
<path d="M57.9925 100.889C56.8573 98.6243 56.1181 96.1818 55.8069 93.6675C55.5024 91.3314 55.4478 88.9696 55.644 86.622C55.8418 84.2716 56.2971 81.9499 57.0015 79.6988C57.7353 77.2533 58.8932 74.9558 60.4224 72.9113C61.5617 75.1756 62.3055 77.6181 62.6215 80.1332C63.2365 84.8237 62.8148 89.592 61.3862 94.1018C60.653 96.5424 59.505 98.8384 57.9925 100.889V100.889Z" fill="#55A261"/>
<path d="M58.8748 100.089C56.6687 101.158 54.3251 101.916 51.9108 102.342C49.6004 102.781 47.2574 103.027 44.9061 103.075C42.5585 103.133 40.2103 102.988 37.8878 102.641C35.4581 102.313 33.0865 101.646 30.8424 100.659C33.0473 99.5836 35.3911 98.8206 37.8063 98.3917C42.4334 97.5278 47.1711 97.4315 51.8294 98.1067C54.2577 98.4405 56.6285 99.1074 58.8748 100.089Z" fill="#55A261"/>
<path d="M64.6578 114.112C64.4399 111.669 64.554 109.207 64.9972 106.795C65.4015 104.487 65.9963 102.217 66.7755 100.007C67.5567 97.7892 68.524 95.6413 69.667 93.5862C70.829 91.4303 72.2866 89.4472 73.9974 87.6946C74.2264 90.137 74.1168 92.5993 73.6716 95.0116C72.8553 99.6441 71.2724 104.108 68.9882 108.22C67.822 110.373 66.3648 112.356 64.6578 114.112V114.112Z" fill="#55A261"/>
<path d="M65.3908 113.501C62.9888 113.987 60.5315 114.143 58.0874 113.962C55.7413 113.806 53.412 113.457 51.1234 112.917C48.8388 112.386 46.6043 111.66 44.4445 110.745C42.1719 109.817 40.0384 108.579 38.105 107.066C40.5098 106.567 42.9734 106.411 45.4219 106.605C47.7645 106.753 50.0898 107.103 52.3723 107.65C54.6594 108.193 56.8978 108.924 59.0648 109.835C61.3313 110.762 63.4599 111.995 65.3908 113.501V113.501Z" fill="#55A261"/>
<path d="M69.8164 125.107C69.7436 122.654 70.0039 120.201 70.5902 117.818C71.1344 115.534 71.87 113.299 72.7893 111.139C73.6905 108.97 74.7807 106.885 76.0473 104.908C77.3379 102.821 78.9144 100.924 80.7307 99.2742C80.815 101.728 80.5591 104.181 79.9705 106.564C79.4221 108.847 78.6866 111.081 77.7713 113.243C76.8517 115.405 75.7575 117.489 74.4997 119.474C73.2021 121.556 71.6265 123.451 69.8164 125.107V125.107Z" fill="#55A261"/>
<path d="M70.3594 125.216C67.9075 125.91 65.3527 126.167 62.8117 125.976C60.4553 125.814 58.1242 125.39 55.8613 124.713C53.6009 124.062 51.4235 123.151 49.3724 121.998C47.1496 120.749 45.1607 119.123 43.4944 117.193C45.952 116.505 48.5103 116.248 51.0557 116.433C53.4075 116.596 55.734 117.019 57.9926 117.695C60.2506 118.377 62.4232 119.315 64.4678 120.492C66.6925 121.71 68.6864 123.309 70.3594 125.216V125.216Z" fill="#55A261"/>
<path d="M74.1738 138.452C74.0245 135.875 74.3512 133.294 75.1376 130.836C75.8424 128.579 76.8227 126.418 78.0563 124.402C79.277 122.38 80.7454 120.52 82.4274 118.863C84.2446 117.021 86.3961 115.542 88.767 114.505C88.9174 117.086 88.5906 119.672 87.8031 122.135C87.101 124.388 86.1206 126.545 84.8845 128.555C83.6546 130.574 82.182 132.434 80.4998 134.094C78.6821 135.929 76.5363 137.407 74.1738 138.452V138.452Z" fill="#55A261"/>
<path d="M75.4771 138.601C72.9502 138.924 70.3862 138.8 67.9023 138.234C65.5947 137.734 63.3501 136.978 61.2098 135.981C59.0741 134.98 57.0608 133.736 55.2096 132.275C53.1859 130.723 51.4532 128.825 50.0918 126.668C52.6225 126.341 55.1909 126.461 57.6803 127.021C59.9851 127.522 62.2256 128.283 64.3592 129.288C66.4893 130.299 68.5016 131.542 70.3593 132.994C72.3768 134.553 74.1084 136.45 75.4771 138.601V138.601Z" fill="#55A261"/>
<path d="M16.5479 114.519C16.7244 114.587 16.3443 114.424 16.6973 114.519L17.7018 114.967C18.8692 115.496 20.0367 116.039 21.2042 116.609C25.2767 118.605 29.3492 120.79 33.1909 123.125C45.0803 130.043 55.9036 138.649 65.323 148.673C71.4261 155.205 76.5394 162.596 80.4998 170.611C81.0292 171.683 82.6447 170.746 82.1152 169.66C70.2235 145.225 46.9288 127.293 23.0503 115.442C21.0684 114.464 19.0865 113.501 17.0502 112.727C15.9371 112.265 15.4483 114.084 16.5479 114.532V114.519Z" fill="#1D7256"/>
<path d="M27.3401 118.428C24.7534 118.989 22.0883 119.09 19.4666 118.727C14.583 118.097 9.90516 116.37 5.78293 113.677C3.55287 112.219 1.59564 110.381 0 108.247C2.58967 107.676 5.26036 107.57 7.88708 107.935C10.3234 108.243 12.7153 108.835 15.014 109.7C17.3139 110.551 19.5092 111.662 21.5571 113.012C23.7869 114.465 25.7443 116.298 27.3401 118.428V118.428Z" fill="#1D7256"/>
<path d="M37.4806 125.867C35.9935 123.919 34.7787 121.777 33.8696 119.501C32.9812 117.301 32.2774 115.03 31.7655 112.713C31.2407 110.424 30.9137 108.094 30.7881 105.749C30.6247 103.302 30.8028 100.844 31.3175 98.4459C32.8127 100.404 34.028 102.56 34.9285 104.853C35.8293 107.049 36.5335 109.321 37.0326 111.641C37.5574 113.93 37.8844 116.26 38.01 118.605C38.1696 121.039 37.9915 123.483 37.4806 125.867Z" fill="#1D7256"/>
<path d="M38.7838 124.334C37.0085 126.026 35.0076 127.465 32.838 128.61C28.6979 130.846 24.2165 132.383 19.5752 133.157C17.1558 133.586 14.6882 133.673 12.2447 133.415C14.0199 131.719 16.0207 130.275 18.1906 129.126C20.2567 128.009 22.4138 127.068 24.6387 126.316C26.8509 125.562 29.1209 124.99 31.4262 124.605C33.8544 124.175 36.3305 124.083 38.7838 124.334V124.334Z" fill="#1D7256"/>
<path d="M49.4538 134.148C47.9672 132.194 46.7525 130.048 45.8428 127.768C44.9561 125.595 44.2523 123.352 43.7387 121.062C43.2149 118.773 42.8879 116.443 42.7613 114.098C42.5982 111.646 42.7764 109.184 43.2907 106.781C44.7829 108.731 45.9981 110.878 46.9017 113.161C47.7989 115.331 48.5075 117.575 49.0194 119.867C49.5321 122.158 49.8545 124.487 49.9832 126.831C50.1463 129.283 49.9682 131.745 49.4538 134.148V134.148Z" fill="#1D7256"/>
<path d="M50.757 132.614C48.9816 134.307 46.9807 135.746 44.8111 136.89C40.671 139.127 36.1897 140.663 31.5483 141.438C29.1321 141.855 26.67 141.937 24.2314 141.682C26.0045 139.993 28.0005 138.554 30.1637 137.406C34.3115 135.179 38.7965 133.648 43.44 132.872C45.8563 132.457 48.3175 132.37 50.757 132.614V132.614Z" fill="#1D7256"/>
<path d="M58.5897 141.872C57.3086 139.778 56.322 137.517 55.6575 135.153C55.0197 132.899 54.5657 130.597 54.3 128.27C54.0214 125.937 53.9396 123.585 54.0557 121.238C54.1416 118.782 54.5759 116.351 55.3453 114.016C56.622 116.113 57.6084 118.374 58.2775 120.736C59.5782 125.277 60.1149 130.002 59.8658 134.718C59.7652 137.15 59.336 139.556 58.5897 141.872Z" fill="#1D7256"/>
<path d="M60.0422 140.488C58.0974 141.984 55.9548 143.203 53.6755 144.112C51.5036 145.012 49.2605 145.729 46.9695 146.257C44.6858 146.791 42.3604 147.127 40.0191 147.262C37.5686 147.434 35.1061 147.265 32.7022 146.759C34.6387 145.254 36.7773 144.03 39.0553 143.121C43.4044 141.333 48.0183 140.274 52.7117 139.985C55.1667 139.818 57.633 139.987 60.0422 140.488V140.488Z" fill="#1D7256"/>
<path d="M46.0735 171.371V194.028C46.0986 202.355 49.4176 210.333 55.3058 216.222C61.1939 222.11 69.1727 225.429 77.4997 225.454H104.297C112.623 225.429 120.6 222.109 126.486 216.221C132.372 210.332 135.688 202.353 135.709 194.028V171.371H46.0735Z" fill="#A3D9D3"/>
<path d="M135.75 182.842H46.0735V184.335H135.75V182.842Z" fill="white"/>
<path d="M126.777 197.584C123.791 197.584 122.297 195.602 121.089 194C119.881 192.399 119.229 191.598 117.872 191.598C116.514 191.598 115.727 192.466 114.573 194C113.419 195.534 111.858 197.584 108.899 197.584C105.939 197.584 104.419 195.602 103.211 194C102.003 192.399 101.351 191.598 99.9393 191.598C98.5275 191.598 97.7944 192.466 96.6405 194C95.4866 195.534 93.9255 197.584 90.9662 197.584C88.0068 197.584 86.4864 195.602 85.2782 194C84.07 192.399 83.4185 191.598 81.9931 191.598C80.5677 191.598 79.8618 192.466 78.7079 194C77.554 195.534 75.9929 197.584 73.0336 197.584C70.0742 197.584 68.5538 195.602 67.3456 194C66.1375 192.399 65.4858 191.598 64.0605 191.598C62.6351 191.598 61.9292 192.466 60.7889 194C59.6486 195.534 58.0739 197.584 55.101 197.584C52.1281 197.584 50.6212 195.602 49.4266 194C48.232 192.399 47.5668 191.598 46.1415 191.598V188.611C49.1415 188.611 50.6212 190.607 51.8294 192.208C53.0376 193.81 53.6892 194.598 55.101 194.598C56.5128 194.598 57.2458 193.729 58.3861 192.208C59.5264 190.688 61.1011 188.611 64.0605 188.611C67.0198 188.611 68.5538 190.607 69.7484 192.208C70.943 193.81 71.6082 194.598 73.0336 194.598C74.4589 194.598 75.1784 193.729 76.3187 192.208C77.459 190.688 79.0337 188.611 81.9931 188.611C84.9524 188.611 86.4864 190.607 87.681 192.208C88.8756 193.81 89.5408 194.598 90.9662 194.598C92.3915 194.598 93.111 193.729 94.2513 192.208C95.3916 190.688 96.9663 188.611 99.9393 188.611C102.912 188.611 104.419 190.607 105.614 192.208C106.808 193.81 107.473 194.598 108.899 194.598C110.324 194.598 111.044 193.729 112.184 192.208C113.324 190.688 114.899 188.611 117.872 188.611C120.845 188.611 122.352 190.607 123.56 192.195C124.768 193.783 125.42 194.598 126.845 194.598C128.27 194.598 128.99 193.729 130.13 192.195C131.27 190.661 132.845 188.611 135.818 188.611V191.598C134.393 191.598 133.673 192.466 132.533 194C131.393 195.534 129.764 197.584 126.777 197.584Z" fill="white"/>
<path opacity="0.1" d="M119.026 171.371V194.028C119.001 202.355 115.682 210.333 109.794 216.222C103.905 222.11 95.9266 225.429 87.5996 225.454H104.297C112.623 225.429 120.6 222.109 126.486 216.221C132.372 210.332 135.688 202.353 135.709 194.028V171.371H119.026Z" fill="#4F2882"/>
<path d="M138.601 167.285H43.2228V175.715H138.601V167.285Z" fill="#7EB9B2"/>
</g>
<defs>
<clipPath id="clip0_76_890">
<rect width="173" height="225.44" fill="white"/>
</clipPath>
</defs>
</svg>
