<svg width="30" height="30" viewBox="0 0 30 30" fill="none" xmlns="http://www.w3.org/2000/svg">
<path d="M25.974 9.36877C25.986 9.61177 25.9905 9.85778 25.9905 10.1008C25.9905 17.5858 20.295 26.2138 9.88051 26.2138C6.68101 26.2138 3.70651 25.2763 1.20001 23.6683C2.68258 23.8476 4.18594 23.7329 5.62417 23.3309C7.0624 22.9289 8.40731 22.2473 9.58201 21.3253C8.40064 21.3029 7.25577 20.912 6.30748 20.2071C5.35919 19.5022 4.65487 18.5186 4.29301 17.3938C5.14211 17.5526 6.01597 17.5192 6.85051 17.2963C5.56893 17.0364 4.41661 16.3414 3.58883 15.3291C2.76105 14.3168 2.30873 13.0494 2.30851 11.7418V11.6713C3.09481 12.1087 3.97421 12.3519 4.87351 12.3808C3.67332 11.5806 2.82373 10.3527 2.49814 8.94743C2.17255 7.54221 2.39551 6.0657 3.12151 4.81927C4.5432 6.56897 6.31704 8.00003 8.32783 9.0195C10.3386 10.039 12.5414 10.6241 14.793 10.7368C14.6956 10.3132 14.6468 9.8799 14.6475 9.44527C14.6475 8.70193 14.794 7.96587 15.0785 7.27913C15.363 6.59239 15.78 5.96843 16.3057 5.44287C16.8314 4.91732 17.4554 4.50048 18.1423 4.21615C18.8291 3.93182 19.5652 3.78558 20.3085 3.78577C21.0832 3.78451 21.8499 3.94243 22.561 4.24975C23.2722 4.55706 23.9126 5.00721 24.4425 5.57227C25.7102 5.32132 26.926 4.8567 28.038 4.19827C27.6151 5.50958 26.7302 6.62261 25.548 7.33027C26.6704 7.19722 27.7666 6.89689 28.8 6.43928C28.0408 7.57693 27.0836 8.56915 25.974 9.36877Z" fill="#EAEEDD"/>
</svg>
